<?xml version="1.0" encoding="UTF-8"?>
<svg id="Layer_1" data-name="Layer 1" xmlns="http://www.w3.org/2000/svg" xmlns:xlink="http://www.w3.org/1999/xlink" viewBox="0 0 300 300">
  <defs>
    <style>
      .cls-1, .cls-2, .cls-3 {
        fill: #fff;
      }

      .cls-2, .cls-4 {
        fill-rule: evenodd;
      }

      .cls-5 {
        fill: #3658a8;
        stroke: #fff;
        stroke-miterlimit: 10;
        stroke-width: .22px;
      }

      .cls-6 {
        clip-path: url(#clippath-1);
      }

      .cls-3 {
        filter: url(#drop-shadow-1);
      }

      .cls-7 {
        clip-path: url(#clippath);
      }

      .cls-4, .cls-8 {
        fill: none;
      }

      .cls-9 {
        fill: #2d317b;
      }
    </style>
    <filter id="drop-shadow-1" filterUnits="userSpaceOnUse">
      <feOffset dx="0" dy="0"/>
      <feGaussianBlur result="blur" stdDeviation="8.5"/>
      <feFlood flood-color="#231f20" flood-opacity=".8"/>
      <feComposite in2="blur" operator="in"/>
      <feComposite in="SourceGraphic"/>
    </filter>
    <clipPath id="clippath">
      <circle class="cls-8" cx="149.26" cy="150.4" r="85.27"/>
    </clipPath>
    <clipPath id="clippath-1">
      <path class="cls-8" d="M64.57,50.33c.63-.92,1.33-1.89,2.37-2.29,1.38-.53,2.9,.08,4.28,.61,11.35,4.38,24.62,3.43,35.24-2.52,3.17-1.77,6.16-3.99,9.65-4.98,2.52-.72,5.17-.76,7.79-.79,16.88-.24,33.76-.48,50.63-.71,4.78-.07,9.94-.89,14.24,1.18,4.65,2.24,8.19,5.33,13.05,7.34,8.05,3.33,18.57,2.92,26.92,.44,2.26-.67,4.65-1.56,6.9-.87,2.24,.69,3.73,2.76,5.06,4.7,2.67,3.93,5.35,7.85,8.02,11.78,.66,.97,1.35,2.05,1.23,3.22-.12,1.13-.97,2.03-1.76,2.86-8.83,9.31-14.53,21.54-15.99,34.28-2.64,23.01,8.08,45.26,11.39,68.18,.91,6.32,1.26,12.73,.89,19.11-.27,4.64-.93,9.29-2.37,13.71-5.47,16.75-21.36,27.94-37.54,34.93-16.18,6.99-33.67,11.09-48.86,20.04-1.08,.63-2.19,1.31-3.44,1.42-1.57,.14-3.06-.63-4.45-1.37-10.27-5.43-20.93-10.11-31.87-14.01-12.12-4.32-24.82-7.79-35.26-15.31-18.51-13.33-26.72-39.34-19.23-60.88-.6-.6-.52-1.58-.4-2.43,1.55-10.72,3.93-21.32,7.11-31.68,.35-7.37-3.57-12.85-.97-19.75-.8,.49,1.09-5.58,.29-5.09,.84-8.79,2.43-13.04-.61-21.33-1.17,1.73-3.22-1.17-3.48-3.24-.46-3.56-2.05-6.96-4.49-9.6-2.08-2.25-4.81-4.04-6.07-6.85-1.71-3.82,1.12-5.95,3.44-8.27,3.26-3.27,5.67-8.01,8.28-11.81Z"/>
    </clipPath>
  </defs>
  <circle class="cls-5" cx="150.67" cy="149.63" r="145.02"/>
  <path class="cls-3" d="M150.14,294.91c-30.07,0-59.31-9.35-84.23-27.23-31.47-22.58-52.26-56.07-58.55-94.29-6.29-38.22,2.69-76.6,25.27-108.07C55.22,33.86,88.7,13.07,126.92,6.79c38.22-6.29,76.6,2.69,108.07,25.27,31.47,22.58,52.26,56.07,58.55,94.29,12.97,78.9-40.66,153.64-119.56,166.62-7.96,1.31-15.93,1.96-23.84,1.96Zm.61-286.53c-7.72,0-15.49,.63-23.25,1.91-37.28,6.13-69.95,26.41-91.97,57.11C13.5,98.1,4.74,135.54,10.87,172.83c6.13,37.28,26.41,69.95,57.11,91.97,30.7,22.03,68.14,30.78,105.42,24.65,76.96-12.66,129.28-85.57,116.62-162.53-6.13-37.28-26.41-69.95-57.11-91.97-24.3-17.44-52.83-26.56-82.16-26.56Zm-.31,229.04c-48.04,0-87.26-38.93-87.55-87.04-.28-48.28,38.76-87.79,87.04-88.07,.17,0,.35,0,.53,0,48.04,0,87.26,38.93,87.55,87.04,.28,48.28-38.76,87.79-87.04,88.07-.17,0-.35,0-.53,0Zm-.49-172.31l.02,2.8c-45.19,.27-81.74,37.25-81.47,82.44,.27,45.03,36.98,81.47,81.95,81.47,.16,0,.33,0,.49,0,45.19-.27,81.74-37.25,81.47-82.44-.27-45.03-36.98-81.47-81.95-81.47-.16,0-.33,0-.49,0l-.02-2.8Z"/>
  <g>
    <path class="cls-1" d="M114.76,272.58l-1.09,2.7-20.29-7.99,1.09-2.7,8.69,3.42,9.02-22.41c-3.64,1.67-7.14,2.72-10.5,3.13l1.47-3.66c4.61-.5,8.51-1.71,11.71-3.64l2.61,1.03-10.84,26.92,8.12,3.2Z"/>
    <path class="cls-1" d="M122.56,271.57l3.27-.73c.88,3.02,2.84,4.72,5.87,5.11,2.95,.38,5.34-.57,7.18-2.86,1.84-2.28,3.08-5.54,3.73-9.78-2.55,3.45-5.86,4.92-9.92,4.39-2.87-.37-5.14-1.66-6.81-3.87-1.67-2.21-2.3-4.76-1.89-7.64,.42-2.93,1.79-5.31,4.14-7.13,2.34-1.82,5.1-2.53,8.27-2.12,3.88,.5,6.66,2.25,8.35,5.24,1.68,2.99,2.18,6.88,1.51,11.65-.71,5.02-2.38,8.93-5.01,11.76-2.63,2.82-5.97,3.97-10.02,3.45-4.73-.61-7.61-3.1-8.65-7.48Zm11.42-6.85c2.13,.27,4.02-.24,5.68-1.54,1.65-1.3,2.62-2.95,2.91-4.95,.28-1.94-.17-3.69-1.34-5.25-1.17-1.57-2.87-2.49-5.11-2.78-2.27-.29-4.16,.19-5.67,1.45-1.52,1.26-2.42,2.92-2.71,4.97-.31,2.21,.17,4.05,1.44,5.52,1.27,1.47,2.88,2.33,4.81,2.58Z"/>
    <path class="cls-1" d="M175.56,274.17l.34,3.22-22.05,2.68-.34-3.22c8.02-7.55,12.76-12.46,14.22-14.73s2.08-4.41,1.86-6.43c-.2-1.89-1.07-3.33-2.6-4.32-1.53-.99-3.22-1.38-5.06-1.15-1.9,.23-3.51,1.07-4.83,2.53-1.32,1.45-1.96,3.29-1.91,5.5l-3.73-.65c.87-6.24,4.27-9.72,10.19-10.44,3.2-.39,5.9,.2,8.1,1.77s3.43,3.66,3.71,6.28c.19,1.8-.1,3.58-.87,5.36-.77,1.78-2.35,3.98-4.75,6.61-2.39,2.63-5.53,5.66-9.41,9.08l17.14-2.08Z"/>
    <path class="cls-1" d="M198.74,243.67l-2.98,2.16c-2.22-2.52-4.82-3.21-7.82-2.06-5.5,2.11-6.66,7.7-3.47,16.77,.14-2.34,.83-4.3,2.08-5.88,1.25-1.58,2.77-2.71,4.56-3.4,2.72-1.04,5.35-.97,7.88,.21,2.53,1.18,4.28,3.08,5.25,5.72,1,2.73,.89,5.46-.34,8.2-1.23,2.73-3.37,4.68-6.42,5.85-3.47,1.33-6.71,1.09-9.71-.72-3.01-1.81-5.33-4.94-6.97-9.41-1.6-4.36-2-8.46-1.19-12.29,.81-3.83,3.25-6.52,7.31-8.08,4.68-1.79,8.62-.81,11.82,2.94Zm-2.39,24.67c2.08-.8,3.53-2.13,4.35-3.99,.83-1.87,.89-3.75,.19-5.66-.69-1.88-1.93-3.24-3.72-4.09-1.79-.85-3.65-.91-5.57-.17-1.98,.76-3.44,2.12-4.4,4.1-.96,1.97-1.09,3.91-.39,5.8,.64,1.75,1.87,3.06,3.69,3.92,1.82,.86,3.77,.89,5.85,.1Z"/>
  </g>
  <g>
    <path class="cls-1" d="M54.04,167.48l.51,3.87-30.8,4.06-2.5-18.89,3.38-.45,1.99,15.03,9.73-1.28-1.65-12.45,3.11-.41,1.65,12.45,14.58-1.92Z"/>
    <path class="cls-1" d="M43.82,129.92l1.17-3.45c6.63,2.44,9.63,6.63,8.98,12.59-.42,3.91-2.33,6.81-5.73,8.69-3.4,1.88-7.4,2.57-12,2.07-4.75-.52-8.45-2.1-11.08-4.75-2.63-2.64-3.73-5.92-3.31-9.83,.63-5.8,4.34-9.16,11.14-10.08l.33,3.73c-5.06,.79-7.79,3.04-8.19,6.74-.3,2.73,.62,4.98,2.74,6.73,2.12,1.75,5.25,2.86,9.38,3.31,3.79,.42,6.91-.02,9.36-1.31,2.45-1.29,3.82-3.2,4.09-5.74,.43-3.94-1.87-6.84-6.89-8.69Z"/>
    <path class="cls-1" d="M50.24,113.74l.89-3.49c4.41,.67,7.69-1.09,9.83-5.28,1.12-2.19,1.5-4.08,1.13-5.66-.36-1.58-1.32-2.78-2.88-3.58-1.18-.6-2.34-.67-3.49-.19-1.15,.48-2.14,1.2-2.98,2.17l-4.19,4.84c-1.1,1.25-2.14,2.19-3.13,2.84s-2.18,1.01-3.59,1.09c-1.41,.08-2.81-.24-4.2-.95-2.31-1.19-3.71-3-4.19-5.45-.48-2.45-.03-5.04,1.37-7.77,2.57-5.03,6.53-7.17,11.9-6.42l-.67,3.62c-1.81-.47-3.47-.24-4.99,.69-1.52,.93-2.67,2.15-3.45,3.68-.77,1.51-1.06,3.07-.86,4.66,.2,1.59,1.03,2.77,2.49,3.52,2.05,1.05,4.2,.26,6.45-2.37l3.86-4.56c3.55-4.15,7.31-5.21,11.27-3.18,2.39,1.23,3.93,3.13,4.61,5.73,.68,2.59,.19,5.51-1.45,8.74-2.93,5.74-7.49,8.18-13.68,7.32Z"/>
    <path class="cls-1" d="M80.44,76.61l2.6,2.22-11.88,13.99-23.68-20.16,2.58-3.04,21.07,17.95,9.3-10.95Z"/>
    <path class="cls-1" d="M93.3,71.91c-3.23,2.35-6.66,2.92-10.29,1.71-3.63-1.21-6.77-3.64-9.42-7.29-2.77-3.82-4.1-7.65-4.01-11.51,.09-3.86,1.69-6.92,4.81-9.19,3.11-2.26,6.48-2.85,10.14-1.77,3.65,1.08,6.82,3.48,9.52,7.2,2.59,3.57,3.93,7.34,4.03,11.32s-1.49,7.16-4.77,9.54Zm-1.79-2.62c2.2-1.6,3.19-3.85,2.98-6.76-.21-2.91-1.47-5.94-3.76-9.11-2.35-3.25-4.83-5.31-7.43-6.19-2.59-.88-4.95-.55-7.08,1-2.15,1.56-3.15,3.78-2.99,6.66,.15,2.88,1.38,5.9,3.67,9.06,2.24,3.09,4.7,5.14,7.38,6.15,2.68,1.01,5.09,.74,7.23-.81Z"/>
    <path class="cls-1" d="M114.15,26.17l1.81,32.78-3.49,1.39-21.25-25.02,3.79-1.51,17.55,20.63-1.55-27.02,3.14-1.26Z"/>
    <path class="cls-1" d="M147.15,51.93l-3.92,.63-4.54-8.48-11.38,1.84-1.29,9.42-3.21,.52,4.98-32.33,4.35-.7,15.01,29.09Zm-9.75-10.59l-7.15-13.99-2.35,15.53,9.5-1.54Z"/>
    <path class="cls-1" d="M173.72,54.73l-3.75-.45-12.72-28.86-.2,2.04c-.05,.77-.1,1.43-.16,1.95l-2.76,22.94-3.12-.38,3.71-30.88,4.84,.59,11.89,26.98,.21-2.15c.07-.85,.15-1.6,.22-2.24l2.5-20.78,3.05,.37-3.71,30.88Z"/>
    <path class="cls-1" d="M214.87,75.24l-3.22-1.99,14.24-23.11-22.83,17.8-2.25-1.39,5.56-28.48-14.24,23.11-2.81-1.74,16.31-26.46,4.9,3.03-5.06,26.11,20.84-16.34,4.84,3-16.31,26.46Z"/>
    <path class="cls-1" d="M225,87.95c-2.57-3.06-3.39-6.45-2.45-10.16,.94-3.71,3.13-7.02,6.58-9.92,3.6-3.03,7.33-4.64,11.18-4.82,3.85-.18,7.02,1.2,9.5,4.16,2.47,2.94,3.3,6.28,2.49,10s-2.97,7.06-6.48,10.01c-3.37,2.84-7.03,4.44-10.99,4.82-3.95,.38-7.24-.98-9.84-4.09Zm2.48-1.97c1.75,2.08,4.06,2.92,6.94,2.5s5.81-1.89,8.8-4.4c3.07-2.58,4.94-5.2,5.63-7.85,.69-2.65,.18-4.99-1.51-7-1.71-2.04-3.99-2.88-6.85-2.52-2.85,.36-5.77,1.79-8.76,4.31-2.92,2.46-4.78,5.06-5.6,7.81-.81,2.75-.37,5.14,1.33,7.16Z"/>
    <path class="cls-1" d="M235.56,100.72l28.4-12.59,4.23,9.55c1.78,4.02,1.8,7.75,.06,11.2-1.74,3.45-4.59,6.05-8.54,7.8-4.01,1.78-7.87,2.18-11.59,1.22-3.72-.96-6.32-3.12-7.8-6.47l-4.75-10.71Zm4.6,2.23l2.56,5.77c1.35,3.06,3.43,4.91,6.24,5.56,2.81,.65,5.94,.21,9.4-1.32,2.8-1.24,4.99-3.11,6.55-5.61,1.57-2.5,1.64-5.35,.22-8.56l-2.56-5.77-22.41,9.93Z"/>
    <path class="cls-1" d="M249.26,148.95l-.57-4.04,12.51-7.56-1.25-8.83-13.32,1.88-.51-3.61,30.76-4.35,1.72,12.14c.47,3.3-.08,5.86-1.65,7.7-1.57,1.84-3.42,2.91-5.56,3.21-1.64,.23-3.27,0-4.9-.67-1.63-.68-2.91-1.99-3.85-3.95l-13.38,8.06Zm13.82-20.88l1.14,8.06c.3,2.12,1.08,3.62,2.35,4.51,1.27,.89,2.71,1.22,4.33,.99,1.62-.23,2.81-.96,3.55-2.19s1-2.69,.76-4.38l-1.21-8.53-10.93,1.55Z"/>
    <path class="cls-1" d="M245.96,176.46l.54-3.94,9.42-1.85,1.58-11.44-8.62-4.01,.44-3.23,29.4,14.29-.6,4.37-32.17,5.8Zm12.97-6.21l15.45-2.72-14.13-6.82-1.31,9.54Z"/>
  </g>
  <path class="cls-1" d="M60.09,222.02s2.45,3.45,1.55,7.69c0,0,4.26-3.48,7.66-1.72,0,0-3.44-3.98-1.82-7.93,0,0-4.76,3.23-7.38,1.96Z"/>
  <path class="cls-1" d="M232.82,221.28s2.45,3.45,1.55,7.69c0,0,4.26-3.48,7.66-1.72,0,0-3.44-3.98-1.82-7.93,0,0-4.76,3.23-7.38,1.96Z"/>
  <g class="cls-7">
    <g class="cls-6">
      <g>
        <path class="cls-4" d="M52.02,64.83l199-1.18,.99,136.35c.05,53.39-43.61,96.76-98.33,98.49-55.44,.33-100.54-43.3-100.86-97.33l-.81-136.34h0Z"/>
        <path class="cls-2" d="M146.94,225.08c-2.07-7.52-8.8-14.21-15.91-14.17-.81,0-1.6,.07-2.37,.2,.57-1.51,.88-3.14,.87-4.84-.05-7.72-6.62-13.95-14.67-13.9-4.31,.03-8.17,1.84-10.83,4.71-2.49-4.37-7.38-6.63-12.89-7.28-5.49-.65-14.15,3.44-15.89,7.85-10.53,26.87,42.2,38.66,69.94,38.8l4.4-2.77-2.65-8.6Z"/>
        <g>
          <path class="cls-2" d="M151.37,66.62l99.65-.59,.77,98.53c-.04,38.58-43.83,69.99-98.63,71.33-.26,0-.52,0-.78,0l-1-169.27h0Zm0,.05l.14,24.16,99.69-.59-.14-24.16-99.69,.59h0Zm.28,48.1l.14,24.21,99.69-.59-.14-24.21-99.69,.59h0Zm.34,48.67l.14,24.21,94.25-.56c2.61-4.6,3.15-7.64,4.34-12.29,1.1-5.32,.98-7.57,1-11.95-33.24,.2-66.49,.39-99.73,.59h0Zm.24,48.37l.14,24.21c43.25-.86,68.18-19.59,74.1-24.65l-74.24,.44h0Z"/>
          <path class="cls-1" d="M152.3,236.11v-.22s-1-169.35-1-169.35h.08s99.73-.59,99.73-.59v.05h.05v.08s.14,24.24,.14,24.24h0l.58,74.23c0,1.21-.05,2.41-.13,3.61-.09,1.67-.3,3.43-.76,5.8-.36,1.89-.82,3.76-1.39,5.61-.46,1.63-.97,3.18-1.76,4.88-4.59,11.09-13.01,21.29-24.78,29.78-2.56,1.84-5.23,3.58-8.02,5.21-3.24,1.9-7.1,3.93-11.57,5.89-15.46,6.77-32.64,10.39-51.08,10.76h-.08Zm.16-.3h.2c.17,0,.33,0,.5,0,25.08-.61,48.6-7.53,66.72-19.55,2.87-1.94,5-3.62,6.38-4.8l-73.94,.44,.14,23.91Zm-.29-48.07l.14,24,74.16-.44,.05,.12c9-7.19,15.75-15.46,19.99-24.35-.01,.03-.03,.05-.04,.08l-.02,.04h-.05l-94.22,.56Zm-.09-24.21l.14,24.05,94.12-.56c.53-.93,.97-1.79,1.34-2.61,.66-1.6,1.25-3.23,1.75-4.86,.27-.96,.52-1.96,.79-3.04,.14-.55,.28-1.12,.43-1.71,.06-.28,.11-.55,.16-.82,.36-1.92,.62-3.85,.76-5.8,.07-1.32,.07-2.59,.07-4.06,0-.37,0-.76,0-1.17l-99.57,.59Zm-.2-24.46l.14,24.3,99.66-.59-.2-24.3-99.61,.59Zm-.14-24.21l.14,24.05,99.53-.59-.14-24.05-99.53,.59Zm-.14-23.94l.14,23.78,99.57-.59-.19-23.78-99.53,.59Zm-.01-1.67v1.51s99.54-.59,99.54-.59l-.19-24-99.48,.59,.13,22.49Z"/>
        </g>
        <rect class="cls-1" x="150.44" y="63.66" width="1.87" height="172.23"/>
      </g>
    </g>
  </g>
  <path class="cls-9" d="M127.3,213.74l-.28-.27c.78-.79,1.37-1.68,1.74-2.62l.36,.14c-.39,1-1.01,1.92-1.82,2.75Zm-21.87-12.67h-.31c-.12-1.39-.51-2.78-1.17-4.13l.25-.25c.7,1.43,1.11,2.91,1.24,4.38Z"/>
  <g>
    <path class="cls-1" d="M97.48,147.31c5.07-.35,6.43-2.48,6.25-4.86-.13-1.72-1.06-3.59-1.97-5-.9-1.4-1.76-2.39-1.81-2.35h0s.05,.03,.11,.12c.19,.27,.27,.46,.26,.57,0,.12-.09,.17-.22,.15-.11,0-.26-.06-.44-.15-.67-.32-1.72-1.12-2.24-1.77,.03,.11,.1,.35,.2,.67,.3,.99,.79,2.63,.5,3.27-.13,.28-.4,.38-.88,.18-.18-.08-.26-.1-.27-.08-.02,.04,.08,.2,.2,.39,.16,.25,.35,.55,.38,.81,.03,.25-.07,.44-.47,.49h0c-.41,.05-.58-.3-.66-.84-.04-.32-.05-.71-.07-1.12-.03-.93-.06-2-.46-2.7-.42-.74-1.46-1.61-1.46-1.61h0s0-.02,0-.02c-.09-.26-.2-.33-.3-.3-.15,.05-.3,.29-.41,.52-.07,.15-.13,.3-.15,.38,.04,.06,.04,.1,.01,.13-.04,.03-.07,.03-.09,0h0s-.02-.05,0-.1c-.01-.01-.03-.03-.05-.05-.22-.23-.82-.69-1.55-1.19-.73-.5-1.6-1.04-2.34-1.42-.85-.43-1.53-.67-1.67-.42-.95,1.7-.54,3.25-.28,4.21,.11,.43,.2,.75,.11,.93-.14,.28-.69,.16-2.19-.51,0,0-.01,.04-.02,.09,0,.08,0,.19,0,.34,.06,.59,.33,1.64,.94,2.8h0c1.02,1.94,2.62,4.16,3.2,4.98,.09,.13,.17,.23,.2,.29h0s0,0,0,0c0,0,0,0,0,0,.02,.03,.02,.05,0,.07h0s0,0,0,0h0s-.05,.01-.08-.02c-.93-1.02-2.43-1.96-3.21-2.41-.15-.09-.28-.15-.37-.2h-.02s.05,.11,.08,.18h0c.14,.34,.31,.75,.57,.75v.09h0c-.37,0-1.24,.12-2.03,.29-.77,.16-1.44,.36-1.44,.52h0c0,.72,1.49,1.99,2.21,2.61,.15,.13,.27,.23,.34,.29l.04,.04-.04,.03-1.81,1.38c.76,1.43,2.14,2.58,3.71,3.28,1.17,.52,2.45,.8,3.66,.76,1.2-.04,2.33-.39,3.2-1.12,.74-.62,1.29-1.51,1.56-2.72,.69-1.05,.73-.6,1.29-.64h0Z"/>
    <path class="cls-9" d="M91.21,151.91c-1.13,0-2.33-.27-3.47-.77-1.69-.76-3.03-1.94-3.76-3.33l-.04-.08,1.82-1.39c-.05-.04-.12-.1-.2-.17l-.08-.07c-.78-.67-2.24-1.91-2.24-2.68,0-.1,0-.29,1.53-.62,.64-.14,1.35-.25,1.8-.28-.18-.15-.3-.45-.41-.71-.03-.06-.05-.13-.08-.18l-.12-.28,.27,.15c.11,.06,.23,.12,.38,.21,.55,.31,1.8,1.06,2.77,1.96-.69-.96-2.11-2.97-3.04-4.75-.61-1.16-.89-2.23-.96-2.85-.01-.15-.02-.28,0-.36,0-.08,.02-.12,.05-.15l.05-.05,.07,.03c.94,.42,1.93,.82,2.06,.56,.07-.14-.02-.46-.12-.84-.26-.97-.69-2.56,.29-4.3,.1-.18,.4-.35,1.81,.38,.67,.34,1.53,.87,2.35,1.43,.73,.5,1.32,.96,1.56,1.2,.03-.08,.08-.2,.14-.33,.11-.22,.28-.51,.47-.57,.12-.04,.29-.01,.42,.34,.16,.14,1.08,.94,1.48,1.63,.42,.72,.45,1.79,.48,2.74v.04c.01,.4,.03,.77,.07,1.08,.1,.71,.32,.78,.54,.75,.17-.02,.28-.07,.34-.14,.04-.06,.06-.13,.04-.23-.03-.23-.22-.54-.36-.76-.19-.31-.25-.41-.2-.49,.05-.12,.22-.05,.4,.03,.51,.22,.67,.03,.74-.12,.28-.6-.21-2.22-.5-3.18l-.03-.1c-.08-.28-.15-.49-.17-.59l-.13-.49,.31,.39c.52,.66,1.56,1.43,2.21,1.74,.21,.1,.34,.13,.4,.14,.06,0,.09,0,.1-.01,0,0,.01-.03,.01-.04,0-.04-.02-.18-.24-.5-.03-.04-.05-.06-.07-.08l-.04-.03v-.07s-.01-.05-.01-.05l.05-.03s.07,0,.12,.03h0s.05,.03,.08,.06c.53,.45,1.73,2.27,1.74,2.29,.83,1.29,1.85,3.22,1.99,5.05,.09,1.18-.21,2.18-.88,2.95-1,1.16-2.84,1.83-5.47,2.02-.17,.01-.29-.02-.39-.04-.23-.05-.35-.08-.8,.61-.26,1.16-.79,2.09-1.59,2.76-.85,.71-1.97,1.11-3.26,1.15-.08,0-.16,0-.24,0Zm-7-4.12c.72,1.31,2,2.43,3.62,3.15,1.19,.53,2.43,.79,3.61,.75,1.24-.04,2.32-.42,3.13-1.1,.76-.64,1.28-1.54,1.52-2.67v-.04c.53-.79,.72-.79,1.05-.72,.1,.02,.2,.04,.33,.03h0c2.57-.18,4.36-.83,5.33-1.95,.63-.73,.91-1.68,.83-2.8-.13-1.79-1.14-3.68-1.96-4.95-.47-.72-.92-1.33-1.25-1.74,0,0,0,.01,0,.02,0,.1-.05,.16-.08,.19-.06,.05-.14,.08-.25,.06-.12-.01-.28-.06-.48-.16-.55-.27-1.39-.87-1.96-1.45,.01,.04,.03,.09,.04,.14l.03,.09c.32,1.07,.8,2.67,.49,3.34-.12,.25-.39,.5-1.01,.23-.02,0-.04-.02-.05-.02,.03,.06,.07,.12,.11,.18,.16,.26,.36,.58,.4,.86,.02,.15,0,.28-.09,.39-.09,.12-.25,.2-.48,.22-.57,.07-.71-.5-.77-.93-.04-.31-.05-.69-.07-1.1v-.04c-.03-.93-.06-1.98-.45-2.65-.41-.71-1.4-1.55-1.44-1.58l-.04-.04c-.06-.18-.13-.27-.18-.25-.09,.03-.23,.21-.35,.47-.06,.13-.11,.25-.14,.33,.05,.1,.02,.18-.03,.22-.09,.08-.18,.05-.23,0-.03-.03-.04-.08-.04-.13,0,0-.01-.01-.02-.02-.21-.22-.81-.69-1.53-1.18-.82-.56-1.67-1.08-2.33-1.42-1.35-.7-1.52-.48-1.53-.46-.93,1.66-.53,3.15-.27,4.13,.12,.47,.21,.79,.11,1-.17,.36-.69,.26-2.2-.41,0,.06,0,.14,.01,.27,.06,.6,.34,1.64,.93,2.76,1.02,1.93,2.6,4.13,3.2,4.96l.03,.04c.07,.09,.12,.17,.16,.22h0l.05-.04v.12h.15l-.36,.36v-.15h-.12l.05-.06c-1-1.1-2.68-2.09-3.17-2.37-.04-.02-.08-.05-.12-.07,.11,.26,.27,.59,.43,.59h.1v.3h-.1c-.37,0-1.25,.13-2.01,.29-.99,.21-1.33,.37-1.36,.43,0,.65,1.53,1.95,2.18,2.51l.08,.07c.11,.1,.2,.18,.26,.23l.13,.12-1.87,1.43Zm9.35-13.64h0Z"/>
  </g>
  <g>
    <path class="cls-1" d="M120.84,196.26c-.36-.09-3.33-.89,.41,.37-.97-.52,.34,1.23,.87,1.23,.42,0,1.61,.23,1.61-.41,0-3.37,.63-7.19,2.45-10.17,1.54-2.53,3.95-4.32,6.84-5.25-4.09-.54-8.42,1.98-9.88,6.01-.88,2.44-1.06,5.15-1.88,7.37-.33,.89-.29,.6-.4,.86h0Z"/>
    <path class="cls-9" d="M122.89,198.01c-.18,0-.35-.01-.51-.03-.11,0-.21-.02-.28-.02-.42,0-1.15-.84-1.29-1.22-.02-.06-.03-.11-.03-.16-1.56-.53-1.55-.57-1.51-.69,.04-.12,.04-.14,1.41,.21l.09,.02s.03-.06,.05-.08c.04-.05,.09-.12,.3-.69,.41-1.09,.65-2.29,.91-3.55,.26-1.27,.53-2.58,.98-3.81,1.46-4.02,5.75-6.63,10-6.08l.46,.06-.44,.14c-2.94,.94-5.28,2.74-6.78,5.2-1.57,2.58-2.43,6.17-2.43,10.12,0,.15-.05,.27-.15,.36-.17,.16-.47,.2-.78,.2Zm-1.89-1.34c.03,.1,.14,.29,.36,.54,.28,.33,.59,.56,.74,.56,.08,0,.18,0,.29,.02,.37,.03,.92,.07,1.13-.12,.06-.05,.08-.12,.08-.2,0-3.99,.87-7.62,2.46-10.23,1.45-2.38,3.67-4.15,6.44-5.14-3.98-.3-7.93,2.21-9.3,5.99-.44,1.22-.71,2.52-.97,3.79-.26,1.27-.51,2.48-.92,3.58-.22,.6-.28,.68-.33,.75-.02,.02-.03,.04-.06,.12l-.03,.08-.23-.06c.09,.03,.19,.07,.3,.1,.1,0,.22,.06,.32,.11l-.08,.19c-.07-.02-.13-.05-.2-.07Z"/>
  </g>
  <g>
    <path class="cls-1" d="M129.24,143.65c0,.87,.23,1.64,.63,2.3,.62,1.03,1.66,1.81,2.89,2.33,1.23,.52,2.66,.78,4.07,.78h0c1.59,0,3.15-.33,4.37-1,.63-.35,1.11-.77,1.4-1.12,.08-.1,.14-.19,.19-.26,.05-.08,.08-.15,.1-.21,.03-.11,0-.18-.11-.18-.3,0-.75-.29-1.17-.57-.21-.14-.41-.27-.58-.35-.12-.06-.22-.1-.29-.1l-.16,.06c-.26,.12-.21,.1-.04,.02-.47,.18-.74,.26,.11-.15h0c.05-.02,.13-.02,.21,0,.31-.15,.67-.32,.72-.35,.47-.4,.86-.68,1.14-.89,.33-.24,.51-.38,.53-.45,.01-.07-.24-.09-.85-.14-.13-.01-.27-.02-.42-.04-.14-.01-1.06-.43-1.64-.79h0c-.15-.09-.28-.18-.37-.26-.1-.09-.15-.17-.12-.23,0-.02,.02-.04,.05-.05,.62-.35,.81-.56,.73-.69-.13-.21-.91-.23-1.61-.25-.59-.02-1.12-.03-1.18-.18-.06-.15,.37-.4,1.69-.86,1.12-.39,2.75-1.31,3.58-2.03,.22-.19,.38-.37,.46-.51h0c.07-.13,.07-.24-.01-.3-.08-.06-.23-.1-.47-.1-.92-.02-1.25-.13-1.24-.36,0-.18,.21-.41,.49-.71,.51-.56,1.25-1.39,1.27-2.51h0c-.5-.15-6.39-1.86-7.94-.54-.34,.29-.69,.43-.98,.44-.16,0-.3-.02-.42-.09h0c-.12-.07-.21-.17-.25-.31h0c-.07-.2-.06-.47,.08-.81,.18-.46,.2-.78,.08-.96-.09-.14-.25-.19-.48-.17-.24,.02-.53,.13-.87,.33-1.27,.73-3.05,2.66-4.06,5.66h0s-.09-.03-.09-.03c0-.01,1.65-5.15-2.35-6.9-.11-.05-.3,.28-.5,.61-.14,.24-.28,.48-.42,.61h0s0,0,0,0c-.26,.25-.33,.47-.34,.61,.01,.04,.02,.07,.02,.09,.02,.15-.04,.15-.09,.08-.01-.02-.03-.06-.03-.12,0-.01,0-.03,0-.04-.03-.1-.09-.24-.2-.45-.14-.27-.37-.39-.66-.54-.45-.23-1.05-.54-1.76-1.6-.04-.06-.07-.09-.1-.1-.18-.04-.18,1.1-.12,2.46,.07,1.62,.23,3.55,.23,4.27h0v.03h-.03c-.15,.07-.5-.18-.86-.43-.31-.21-.62-.43-.76-.44h0s-.04,.01-.04,.05c0,.21-.01,.42-.01,.62,0,2,.49,3.67,1.55,4.86,1.06,1.19,2.71,1.9,5.02,2,.17,0,.35,.01,.54,.01,1.16-.16,1.48-.13,1.49,.97h0Z"/>
    <path class="cls-9" d="M136.84,149.16h-.1c-1.43-.01-2.82-.29-4.01-.79-1.32-.56-2.34-1.38-2.94-2.37-.43-.71-.64-1.5-.64-2.35,0-.46-.06-.71-.2-.82-.17-.15-.5-.13-1.17-.04-.21,0-.38,0-.55-.01-2.26-.1-3.97-.78-5.1-2.04-1.05-1.17-1.58-2.83-1.58-4.93,0-.21,0-.42,.02-.63,0-.11,.09-.15,.15-.15,.15,0,.4,.17,.79,.44l.02,.02c.19,.14,.58,.41,.72,.43,0-.4-.05-1.1-.1-1.92-.05-.72-.1-1.54-.13-2.29-.09-2.17,.02-2.45,.12-2.53,.04-.03,.08-.04,.13-.03,.05,0,.1,.05,.16,.14,.7,1.04,1.29,1.35,1.73,1.57,.29,.15,.54,.28,.7,.58,.06,.11,.1,.21,.14,.29,.05-.14,.15-.31,.33-.49,.13-.12,.26-.35,.4-.57,.29-.48,.45-.74,.64-.66,3.05,1.33,2.89,4.6,2.61,6.16,1.06-2.59,2.66-4.24,3.8-4.89,.34-.2,.65-.31,.91-.34,.34-.04,.5,.1,.58,.22,.14,.22,.12,.57-.07,1.05-.12,.29-.15,.54-.08,.73,.04,.11,.11,.2,.21,.26,.1,.06,.22,.09,.36,.08,.29-.01,.61-.16,.92-.42,1.58-1.34,7.38,.32,8.04,.52l.07,.02v.08c-.02,1.17-.79,2.02-1.3,2.59-.25,.27-.46,.5-.46,.64,0,.03,0,.05,.03,.07,.16,.17,.88,.18,1.11,.18,.26,0,.43,.04,.53,.12,.07,.06,.17,.19,.04,.43-.08,.15-.24,.33-.48,.54-.84,.73-2.46,1.65-3.62,2.05-1.45,.5-1.61,.69-1.63,.74,.07,.07,.7,.09,1.08,.1,.93,.03,1.55,.06,1.69,.3,.03,.05,.04,.11,.02,.17-.03,.12-.15,.29-.79,.66,0,0,0,.04,.09,.12,.08,.07,.2,.16,.35,.25,.59,.37,1.48,.76,1.59,.78l.42,.04c.73,.06,.86,.08,.92,.16l.03,.04v.07c-.03,.11-.16,.21-.58,.52-.26,.19-.66,.49-1.14,.89-.07,.04-.36,.18-.64,.32,.03,.01,.05,.02,.08,.04,.17,.09,.36,.21,.59,.36,.4,.26,.85,.55,1.11,.55h0c.1,0,.15,.04,.18,.08,.04,.06,.05,.14,.03,.23-.02,.07-.05,.14-.11,.24-.05,.09-.12,.18-.2,.28-.34,.41-.86,.83-1.43,1.14-1.19,.66-2.76,1.02-4.42,1.02Zm-8.33-6.66c.25,0,.43,.04,.57,.16,.19,.16,.27,.45,.27,.98h0c0,.82,.21,1.57,.61,2.25,.58,.96,1.56,1.75,2.84,2.29,1.2,.51,2.59,.77,4.03,.77h.1c1.59-.01,3.08-.37,4.21-.99,.55-.3,1.05-.7,1.37-1.09,.07-.09,.13-.17,.18-.25,.04-.08,.07-.14,.09-.18,.01-.04,0-.05,0-.05,0,0,0,0-.01,0-.34,0-.79-.29-1.22-.57-.2-.13-.41-.27-.58-.35-.1-.05-.18-.08-.23-.09l-.14,.05c-.06,.03-.11,.06-.15,.07,0,0-.01,0-.02,0h0s-.07,.02-.09,.02c-.26,.09-.33,.1-.36,0-.05-.11-.01-.13,.6-.43,.07-.03,.15-.04,.24-.02,.3-.15,.63-.31,.69-.34,.46-.39,.86-.69,1.13-.88,.18-.13,.35-.26,.43-.34-.13-.02-.38-.04-.68-.07l-.45-.04c-.17-.02-1.12-.46-1.68-.81-.16-.1-.29-.19-.38-.27-.05-.05-.22-.19-.15-.35,.02-.04,.05-.08,.1-.1,.7-.4,.69-.54,.69-.54-.1-.16-.99-.18-1.52-.2-.76-.02-1.2-.04-1.28-.25-.01-.03-.02-.09,0-.15,.07-.14,.33-.35,1.75-.85,1.12-.39,2.74-1.31,3.55-2.01,.22-.19,.37-.36,.44-.48,.07-.13,.03-.16,.02-.17-.04-.03-.14-.08-.41-.08-.73-.01-1.1-.09-1.26-.25-.06-.06-.09-.14-.09-.22,0-.22,.22-.45,.51-.78,.51-.56,1.19-1.32,1.24-2.37-2.36-.69-6.57-1.55-7.77-.53-.34,.29-.71,.45-1.04,.47-.19,0-.34-.03-.47-.11-.14-.08-.25-.21-.3-.37-.08-.24-.05-.54,.08-.88,.16-.4,.19-.7,.09-.86-.08-.12-.25-.13-.38-.12-.23,.02-.51,.13-.82,.31-1.22,.7-3,2.59-4.01,5.6l-.03,.04-.04,.04-.26-.07,.03-.1c.02-.05,1.6-5.05-2.28-6.76-.09,.05-.27,.37-.39,.56-.15,.25-.29,.49-.44,.63-.24,.23-.3,.42-.31,.53,0,.03,.02,.06,.02,.09,.02,.12,0,.2-.08,.23-.03,.01-.11,.03-.2-.08-.04-.05-.05-.13-.05-.18,0-.01,0-.02,0-.03-.02-.08-.08-.21-.18-.41-.13-.25-.33-.35-.61-.49-.45-.23-1.07-.55-1.8-1.64,0,0,0,0,0,0-.05,.17-.09,.71-.03,2.31,.03,.75,.08,1.56,.13,2.29,.05,.86,.1,1.59,.1,1.98v.11l-.1,.04c-.18,.07-.48-.12-.95-.45l-.02-.02c-.21-.14-.48-.33-.62-.39,0,.18-.01,.37-.01,.55,0,2.05,.51,3.66,1.52,4.79,1.08,1.21,2.75,1.87,4.95,1.97,.17,0,.35,.01,.53,.01,.3-.04,.54-.07,.75-.07Zm-3.52-10.42h0Z"/>
  </g>
  <g>
    <path class="cls-1" d="M88.33,108.55h0c-5.52,0-6.85,6.39-6.85,10.5h0c0,.16,1.78-2.57,1.46-.45-.09,.59-.22,1.48,1.3,3.38h0c.33,.41,.91-2.24,1.64-2.42,.18-.04,.33,.1,.45,.55,.21,.78,.41,1.97,.58,.48,.07-.65,.16-1.48,.46-1.75,.48-.43,.34,1.19,.34,1.25-.03,2.13,.09,3.36,1.23,5.21h0c.08,.13,.46,.85,.54,.85,.21,0-.11-1.24,.36-1.22,.28,.01,.79,.53,1.51,1.27,.84,.86,1.98,2.02,3.36,3.01,1.59,1.15,1.6-4.61,1.6-5.33s1.25,.32,1.35,.5c.35-2.11-.6-3.66-1.19-4.64-.12-.2-.86-1.27-.11-1.27,.34-.07,2.09,2.28,2.55,2.91-.3-2.88,2.55-1.66,3.1,.16,.31,1.02,.18-.22,.17-.63-.01-.64-.26-5.05,1.42-3.07-.07-2.5-1.59-8.4-5.17-8.4h0c-3.26-.27-3.4,.71-4.3,.82-3.22,.39-.86-1.05-5.78-1.72h0Z"/>
    <path class="cls-9" d="M95.1,129.47c-.14,0-.3-.06-.45-.17-1.38-1-2.53-2.17-3.37-3.02-.65-.66-1.2-1.23-1.44-1.24-.05,0-.05,.01-.07,.02-.1,.09-.1,.42-.1,.66,0,.28,0,.42-.08,.5-.03,.03-.08,.04-.11,.04-.1,0-.18-.1-.53-.73-.04-.08-.08-.14-.09-.17-1.11-1.81-1.28-3.03-1.25-5.27v-.04c.07-1.07-.09-1.17-.09-1.17,0,0-.03,0-.07,.05-.27,.24-.36,1.08-.43,1.68-.07,.67-.15,.8-.28,.81-.17,.02-.24-.22-.41-.92-.03-.12-.06-.24-.09-.35-.06-.24-.17-.52-.32-.48-.34,.08-.69,.89-.95,1.49-.27,.62-.42,.95-.61,.97-.04,0-.11,0-.18-.08-1.55-1.93-1.41-2.85-1.32-3.46,.09-.63-.02-.69-.03-.69-.12-.06-.46,.27-1.01,.95-.24,.3-.27,.33-.36,.3l-.07-.02v-.08c0-5.13,1.82-10.61,6.95-10.61h.01c2.59,.35,3.19,.91,3.63,1.32,.38,.36,.62,.58,2.12,.39,.25-.03,.44-.13,.68-.27,.56-.31,1.33-.74,3.64-.55,3.8,0,5.21,6.32,5.27,8.5v.3s-.18-.23-.18-.23c-.31-.36-.56-.52-.74-.46-.27,.1-.58,.76-.5,3.31v.15c0,.08,.01,.19,.02,.31,.04,.66,.04,.79-.1,.81-.12,.03-.18-.1-.29-.46-.34-1.12-1.54-1.94-2.25-1.79-.51,.1-.74,.67-.64,1.59l.04,.38-.23-.31c-1.23-1.68-2.24-2.86-2.45-2.87-.13,0-.2,.03-.22,.08-.08,.14,.05,.46,.37,.97l.04,.06c.59,.96,1.57,2.57,1.21,4.71l-.05,.32-.14-.29c-.07-.13-.82-.76-1.09-.69-.02,0-.06,.02-.06,.14,0,1.5-.1,5.03-1.06,5.52-.08,.04-.16,.06-.25,.06Zm-5.27-4.64s0,0,.01,0c.31,.01,.75,.46,1.58,1.3,.83,.85,1.97,2.01,3.34,3,.19,.13,.35,.16,.49,.09,.7-.36,.95-2.99,.95-5.34,0-.26,.14-.33,.22-.35,.31-.08,.87,.34,1.16,.61,.25-1.95-.63-3.39-1.21-4.35l-.04-.06c-.27-.43-.53-.9-.38-1.18,.07-.12,.2-.18,.39-.18,0,0,.01,0,.02,0,.28,0,1.09,.9,2.4,2.67-.02-1.11,.5-1.39,.83-1.45,.88-.18,2.13,.78,2.49,1.91,0-.09,0-.18-.01-.25,0-.12-.01-.24-.02-.32v-.15c-.05-1.39-.03-3.26,.63-3.51,.22-.08,.48,.01,.77,.3-.16-2.34-1.55-8.02-5.05-8.02-2.25-.19-2.99,.23-3.53,.53-.25,.14-.46,.26-.75,.29-1.6,.19-1.87-.06-2.29-.45-.42-.39-1-.93-3.51-1.27-6.14,0-6.7,7.94-6.74,10.14,.02-.02,.04-.05,.06-.07,.51-.63,.96-1.14,1.25-1.01,.18,.08,.23,.36,.15,.91-.09,.57-.21,1.44,1.28,3.3,.08-.03,.29-.5,.44-.85,.31-.7,.66-1.5,1.09-1.61,.26-.06,.45,.15,.58,.63,.03,.11,.06,.23,.09,.35,.06,.22,.13,.53,.19,.69,.02-.08,.06-.24,.09-.55,.07-.68,.17-1.52,.5-1.82,.14-.12,.24-.11,.31-.08,.12,.06,.28,.27,.21,1.37v.03c-.03,2.11,.08,3.31,1.21,5.16,.02,.03,.06,.1,.1,.18,.07,.12,.23,.41,.33,.55,0-.08,0-.18,0-.26,0-.3,0-.65,.16-.81,.06-.05,.13-.08,.21-.08Z"/>
  </g>
  <g>
    <path class="cls-1" d="M129.92,99.47h0v.02c.63,.25,.81,.18,.67,.88,0,.73,.17,1.4,.47,2,.48,.96,1.29,1.73,2.28,2.27,.99,.53,2.16,.83,3.35,.83,.98,0,1.98-.2,2.9-.62,.24-.11,1.53-.77,2.22-1.2,.15-.1,.28-.18,.36-.25,.05-.04,.09-.06,.09-.06,0,0-.02,0-.03,0-.28,0-.64-.13-.82-.26-.06-.04-.1-.09-.12-.13-.02-.05-.01-.11,.04-.15,.07-.06,.23-.09,.52-.09,.78,0,1.3-.52,1.78-1,.08-.08,.16-.16,.24-.24h0c.17-.16,.25-.29,.26-.38,.02-.19-.26-.27-.63-.3-.58-.04-1.37,.04-1.65,.04h0c-.33,0-.45-.06-.45-.16,0-.1,.16-.22,.32-.35h0c.17-.13,.36-.28,.36-.38,0-.11-.23-.19-.98-.19-.1,0-.26,0-.46,0-.84,.02-2.33,.05-2.39-.12h0c-.02-.05,.04-.11,.22-.16,1.9-.58,2.96-1.1,3.76-1.91,.8-.82,1.34-1.96,2.19-3.79,.54-1.17,.61-1.56,.46-1.62-.1-.04-.33,.07-.58,.19-.27,.13-.55,.27-.77,.25h0s0,0,0,0c-.07,0-.09-.05-.09-.12,.01-.1,.11-.29,.24-.53,.23-.43,.54-1.02,.55-1.52v-.03s0,0,0,0c0-.29,.02-.6,.03-.92,.03-.66,.07-1.34-.03-1.93h0c-.05-.31-.34-.44-.75-.45-.39,0-.89,.09-1.45,.25-.55,.16-1.16,.39-1.74,.65-1.36,.6-2.61,1.34-2.89,1.72,0,.16-.02,.27-.05,.28h0s-.07-.02-.09-.1c-.02-.05,0-.11,.05-.18v-.13c-.02-.21-.05-.5-.09-.8-.1-.69-.29-1.44-.54-1.4-1.24,.17-2.97,1.02-3.94,2.86-.19,.36-.35,.76-.47,1.2-.09,.34-.17,.7-.21,1.08,.02,.11,.03,.2,.02,.27-.01,.06-.03,.1-.07,.13l-.08,.06v-.1s0-.01,0-.01h0c0-.12,.02-.24,.03-.35-.06-.29-.24-.72-.5-1.22-.36-.7-.88-1.52-1.47-2.28-.9-1.15-1.96-2.14-2.88-2.28-.05,0-.08,.07-.1,.2-.04,.22-.03,.56-.03,.92,0,.56,.01,1.15-.14,1.36-.08,.11-.18,.13-.33,.03-1.55-1.03-2.23-1.17-2.45-.87-.25,.35,.06,1.28,.36,2.16,.12,.35,.24,.7,.31,1,.01,.03,.02,.07,.02,.1v.43l-.09-.42h0s-.02-.09-.02-.09c-.11-.22-.62-.4-1.12-.49-.15-.03-.31-.05-.45-.06-.14,0-.26,0-.36,0-.12,.01-.19,.04-.19,.09h0c0,1.92,.76,4.01,2.06,5.62,1.31,1.61,3.16,2.74,5.35,2.74h0Z"/>
    <path class="cls-9" d="M136.69,105.57c-1.21,0-2.38-.29-3.4-.84-1.05-.56-1.85-1.36-2.32-2.31-.32-.63-.48-1.32-.48-2.05,.1-.53,.06-.54-.34-.69-.08-.03-.17-.06-.27-.1h-.02c-2.02-.03-3.93-1.01-5.37-2.79-1.31-1.61-2.09-3.74-2.09-5.68,0-.16,.21-.18,.28-.19,.1-.01,.23-.02,.38,0,.14,0,.29,.03,.46,.06,.19,.04,.74,.15,1.04,.37-.07-.24-.15-.49-.24-.75-.33-.97-.63-1.87-.35-2.26,.3-.41,1.09-.15,2.59,.84,.13,.09,.17,.03,.19,0,.13-.18,.12-.79,.12-1.28v-.05c0-.36,0-.69,.03-.91,.01-.08,.06-.31,.22-.28,1.13,.17,2.33,1.53,2.95,2.32,.56,.71,1.08,1.53,1.48,2.3,.2,.38,.35,.72,.44,.99,.04-.29,.1-.57,.18-.83,.12-.43,.28-.84,.48-1.22,.99-1.88,2.73-2.74,4.02-2.92,.11-.01,.43-.05,.66,1.49,.04,.26,.07,.55,.09,.78,.4-.41,1.54-1.08,2.85-1.66,.62-.27,1.22-.5,1.75-.65,.6-.18,1.11-.27,1.48-.26,.63,.01,.82,.29,.86,.53,.1,.6,.07,1.29,.03,1.95v.05c-.02,.31-.03,.6-.03,.87v.03c0,.51-.33,1.12-.56,1.56-.11,.22-.22,.41-.23,.5h.06c.18,0,.42-.12,.64-.23,.34-.16,.54-.26,.68-.2,.05,.02,.09,.06,.11,.12,.06,.15,.04,.45-.52,1.65-.83,1.78-1.38,2.96-2.21,3.81-.78,.8-1.81,1.33-3.8,1.94-.04,.01-.06,.02-.08,.03,.37,.08,1.69,.05,2.22,.04h.17c.12,0,.22,0,.29,0,.79,0,1.09,.08,1.09,.29,0,.14-.15,.27-.4,.46l-.08,.06c-.1,.08-.2,.17-.2,.21h0s.05,.05,.34,.05c.09,0,.23,0,.4-.02,.36-.02,.86-.06,1.27-.03,.35,.03,.56,.1,.66,.22,.05,.06,.07,.13,.06,.2-.02,.13-.11,.27-.29,.45l-.03,.03c-.07,.07-.14,.13-.2,.2-.48,.48-1.03,1.03-1.86,1.03-.34,0-.43,.05-.45,.07v.03s0,.04,.07,.08c.16,.12,.5,.24,.76,.24,.04,0,.07,0,.09,.02l.05,.03v.11s-.06,.04-.06,.04c-.01,0-.04,.02-.06,.05-.08,.07-.2,.15-.37,.26-.72,.45-2,1.1-2.23,1.21-.9,.41-1.92,.63-2.95,.63Zm-6.67-6.15c.07,.03,.14,.05,.2,.07,.47,.17,.61,.25,.48,.9,0,.67,.16,1.33,.46,1.93,.45,.91,1.23,1.68,2.24,2.22,.99,.53,2.13,.81,3.3,.81,1,0,1.99-.21,2.86-.61,.22-.1,1.51-.76,2.21-1.2,.09-.06,.16-.11,.23-.15-.25-.05-.5-.15-.64-.25-.08-.05-.13-.11-.15-.18-.04-.1-.01-.2,.08-.27,.1-.08,.29-.11,.58-.11,.74,0,1.23-.49,1.71-.97,.08-.08,.16-.16,.24-.24l.03-.03c.16-.16,.19-.25,.2-.29,0-.02,0-.03-.01-.04-.03-.03-.13-.11-.52-.14-.39-.03-.88,0-1.24,.03-.17,.01-.32,.02-.41,.02-.15,0-.55,0-.55-.26,0-.15,.16-.28,.36-.43l.15-.12c.09-.07,.17-.15,.17-.18,0,0-.12-.08-.88-.08-.07,0-.17,0-.28,0h-.17c-2.05,.05-2.43-.01-2.49-.18-.01-.04-.01-.09,.01-.13,.04-.07,.12-.12,.28-.17,1.95-.6,2.96-1.11,3.71-1.89,.8-.83,1.35-1.99,2.17-3.76,.57-1.24,.54-1.45,.51-1.49-.06-.02-.33,.11-.49,.19-.29,.14-.59,.27-.82,.26h-.06s-.07-.05-.09-.07c-.04-.04-.05-.1-.04-.17,.01-.12,.11-.31,.25-.57,.23-.43,.53-1.01,.54-1.47,0-.3,.02-.6,.03-.91v-.04c.04-.65,.07-1.33-.03-1.9-.02-.09-.06-.35-.65-.36-.36,0-.83,.08-1.41,.25-.52,.15-1.12,.38-1.73,.65-1.33,.59-2.53,1.29-2.83,1.66,0,.22-.04,.32-.13,.35h-.03s-.13,.03-.19-.16c-.02-.07,0-.15,.05-.24v-.1c-.02-.24-.05-.52-.09-.79-.15-1-.34-1.32-.42-1.32h0c-1.19,.17-2.91,1-3.87,2.81-.19,.37-.35,.76-.46,1.17-.09,.33-.16,.69-.21,1.05,.02,.12,.03,.21,.02,.29-.02,.09-.05,.16-.11,.2l-.26,.19,.02-.32c0-.13,.02-.24,.03-.35-.06-.27-.24-.69-.49-1.18-.4-.76-.92-1.57-1.46-2.27-1.02-1.3-2-2.09-2.77-2.23,0,.02-.02,.05-.02,.1-.03,.2-.03,.53-.03,.88v.03c0,.62,.01,1.19-.16,1.42-.05,.08-.21,.23-.48,.05-1.65-1.09-2.16-1.09-2.3-.89-.22,.3,.11,1.27,.37,2.06,.13,.38,.24,.71,.32,1.01,.02,.03,.02,.08,.02,.13v1.36l-.32-1.41c-.07-.13-.5-.31-1.04-.41-.16-.03-.3-.05-.43-.06-.14-.01-.25,0-.34,0-.05,0-.08,.01-.1,.02,.01,1.89,.77,3.95,2.04,5.52,1.41,1.74,3.29,2.7,5.27,2.7h.1v.05Z"/>
  </g>
  <g>
    <path class="cls-2" d="M113.07,109.54l-.85,1.2c-1.35-1.49-6.24-5.31-8.06-6.19-1.64-.78-4.87-2.32-6.91-2.96-12.53-3.96-2.19-14.09,3.76-9.32-.47-.18-4.76-1.41-7.16,.99-2.87,2.87-2.22,6.69,7.4,8.33,2.08,.36,4.08,1.73,6.09,3.05,2.65,1.74,5.08,4.12,5.72,4.9h0Z"/>
    <path class="cls-9" d="M112.23,110.91l-.09-.1c-1.35-1.48-6.21-5.29-8.02-6.16-1.31-.63-4.77-2.29-6.9-2.96-3.65-1.15-5.77-2.99-5.98-5.18-.17-1.81,1.02-3.68,3.03-4.77,1.8-.97,4.54-1.37,6.81,.45l.52,.42-.62-.24s-4.56-1.53-7.05,.96c-1.24,1.24-1.71,2.57-1.34,3.74,.45,1.42,2.32,3.33,8.68,4.42,2,.34,3.94,1.62,5.82,2.86l.31,.2c2.57,1.69,5.05,4.07,5.74,4.92l.05,.06-.97,1.37Zm-14.76-19.78c-1.14,0-2.23,.33-3.09,.8-1.94,1.05-3.09,2.84-2.93,4.57,.2,2.1,2.27,3.88,5.84,5,2.14,.68,5.62,2.34,6.92,2.97,1.79,.86,6.53,4.56,8,6.11l.73-1.03c-.75-.88-3.15-3.17-5.65-4.81l-.31-.2c-1.86-1.23-3.79-2.5-5.74-2.83-6.46-1.11-8.38-3.09-8.85-4.56-.4-1.25,.1-2.65,1.39-3.95,2.04-2.04,5.37-1.5,6.7-1.17-.97-.63-2.02-.88-3.01-.88Z"/>
  </g>
  <g>
    <path class="cls-2" d="M100.22,158.32l1.05,.43c-.45-.29-.9-.43-1.05-.72h-2.24c-.3,0-.6-.14-.89-.14l-.15-.14h-2.09l-.3,.14c0,.29-.15,0-.15,.29h-1.34l-.3,.14h-.6q-.15,.28-.45,.28c0,.14-.3,.29-.3,.29-.15,0-.45,.14-.6,.14l-.3,.14-.15,.14c-.15,.14-.3,.43-.45,.57-.15,.14-.45,.29-.6,.43,0,.14-.15,.29-.3,.43l-.15,.43c-.15,.14-.75,.57-.75,.57,0,.14-.3,.57-.3,.57,0,1.29,1.39,1.76,1.39,2.18-1.29,.08-1.84,2.38-1.84,3.4l.3,.14v.57l.15,.14v.29l.3,.57v.43l.15,.14v.43l.45,.43v.43c.15,0,.15,.14,.15,.29l.15,.14v.43l.3,.14v.57l.15,.29c.15,.14,.45,.43,.45,.57s.15,.29,.15,.43v.43c0,.14,.15,.29,.15,.57,.15,0,.15,.14,.15,.29,.15,.14,.3,.43,.3,.57l.15,.29c.15,0,.45,.14,.45,.29l.3,.14,.15,.57,.3,.29,.45,.14c0,.14,.15,.29,.15,.57l.3,.28c0,.14,.3,.43,.3,.57,.6,0,.15,.14,.45,.14l.15,.57c.15,.14,.45,.43,.45,.57,.15,0,.3,.29,.3,.43,.15,0,.6,.29,.6,.43h.3l.15,.14,.3,.43h.45l.15,.14h1.34c0-.14,.15-.43,.15-.57l.15-.14,.3-.28c0-.14,.15-.29,.15-.57,.15,0,.6-.14,.6-.43,.15,0,.3-.29,.3-.29l.15-.43c.15-.14,.45-.29,.6-.43,0-.14,.15-.29,.3-.43,0-.14,.15-.43,.15-.57l.45-.29,.15-.29v-.57l.3-.43,.15-.43v-.43c0-.14,.3-.43,.3-.72,.15-.14,.45-.43,.45-.57l.15-.29,.15-.29,.15-.57c0-.29,.15-.43,.45-.57l.15-.43v-.57l.3-.29v-.57l.3-.43v-.57c.15,0,.3-.29,.3-.29v-.43l.45-.43c0-.29,0-.72,.15-1v-4.15c0-.14-.15-.43-.15-.72l-.15-.43q-.3-.14-.3-.43l-.3-.29c0-.14-.3-.43-.3-.72l-.15-.29c-.45-.14-.45-.29-.6-.29l-.15-.29-.15-.43c-.3,0,0-.14-.3-.14,0-.29-.3-.29-.45-.29,0-.29-.15,0-.15-.29-.3,0-.6-.29-.6-.43-.6-.14-.45-.14-1.05-.14h0Z"/>
    <path class="cls-9" d="M97.94,182.31h-1.49l-.15-.14h-.46l-.33-.47-.1-.1h-.36v-.1c-.02-.08-.38-.32-.49-.32h-.1v-.1c0-.12-.13-.32-.19-.32h-.1v-.1s-.07-.17-.41-.5l-.02-.02v-.03s-.14-.5-.14-.5c-.05,0-.08-.02-.11-.05-.02-.02-.03-.05-.03-.07-.03,0-.1-.01-.23-.01h-.1v-.1s-.08-.16-.13-.23c-.07-.1-.14-.2-.16-.3l-.3-.29v-.04c0-.15-.05-.25-.09-.34-.02-.05-.04-.1-.05-.15l-.42-.15-.32-.31-.14-.55-.31-.15v-.07c0-.05-.21-.18-.34-.18h-.06l-.19-.39c0-.1-.13-.36-.27-.5l-.03-.03v-.04c0-.18-.02-.18-.04-.18h-.1v-.1c0-.15-.05-.25-.09-.34-.03-.08-.06-.15-.06-.23v-.43s-.03-.1-.06-.17c-.04-.08-.09-.16-.09-.26,0-.04-.06-.15-.42-.5l-.02-.03-.16-.33v-.51l-.3-.14v-.45l-.15-.14v-.04c0-.18-.02-.18-.04-.18h-.1v-.49l-.45-.43v-.43l-.15-.14v-.45l-.3-.6v-.24l-.15-.14v-.55l-.3-.14v-.07c0-.96,.52-3.26,1.81-3.49-.06-.1-.2-.22-.35-.34-.43-.37-1.01-.88-1.01-1.75v-.03l.02-.03c.15-.21,.28-.45,.28-.51v-.05s.04-.03,.04-.03c0,0,.55-.4,.72-.55l.17-.45c.12-.11,.27-.25,.27-.35v-.04l.03-.03c.08-.08,.2-.15,.31-.23,.11-.07,.22-.14,.28-.2,.07-.06,.14-.17,.21-.27,.08-.11,.15-.22,.23-.3l.18-.16,.34-.15c.06,0,.17-.04,.27-.07,.11-.04,.22-.07,.3-.08,.12-.06,.22-.15,.22-.18v-.1h.1q.24,0,.35-.23l.03-.06h.64l.32-.14h1.25c.01-.06,.05-.13,.14-.14,0-.01,0-.02,0-.04v-.07l.4-.18h2.13l.15,.14c.15,0,.29,.04,.43,.07,.15,.04,.29,.07,.42,.07h2.3l.03,.06c.04,.09,.13,.16,.23,.23,.19,0,.25,.02,.46,.07,.07,.02,.16,.04,.28,.07l.08,.02v.08c0,.07,.24,.32,.49,.32h.1v.1s0,.03,0,.04c.09,.01,.13,.08,.14,.14,.16,0,.39,.06,.44,.29,.07,.01,.14,.04,.16,.13,.01,0,.03,0,.05,0h.07l.17,.5,.12,.22c.06,.01,.11,.05,.15,.08,.07,.05,.17,.13,.41,.2h.04s.18,.39,.18,.39c0,.14,.09,.29,.17,.42,.06,.09,.11,.17,.12,.25l.3,.29v.04q0,.22,.24,.34l.04,.02,.17,.5c0,.15,.05,.31,.09,.44,.03,.11,.06,.2,.06,.27v4.2c-.15,.26-.15,.68-.15,.95v.04l-.45,.43v.43s-.15,.25-.3,.32v.52l-.3,.43v.58l-.3,.29v.56s-.17,.47-.17,.47l-.04,.02c-.29,.14-.39,.26-.39,.48v.03s-.15,.57-.15,.57l-.3,.57c-.02,.15-.18,.33-.45,.59-.02,.18-.12,.35-.2,.48-.04,.06-.1,.16-.1,.19v.46s-.17,.46-.17,.46l-.28,.4v.59s-.18,.31-.18,.31l-.43,.27c-.01,.08-.04,.17-.07,.26-.03,.09-.07,.2-.07,.25v.04l-.03,.03c-.12,.11-.27,.25-.27,.35v.04l-.03,.03c-.08,.08-.2,.16-.32,.23-.1,.06-.19,.12-.26,.18l-.14,.4c-.03,.06-.15,.27-.3,.33-.06,.26-.39,.4-.59,.44-.02,.14-.06,.25-.1,.33-.03,.06-.05,.11-.05,.15v.04l-.45,.43c-.01,.08-.04,.17-.08,.27-.03,.09-.07,.2-.07,.25v.1Zm-1.4-.21h1.21c.02-.07,.04-.14,.07-.22,.03-.09,.07-.2,.07-.25v-.04l.45-.43c0-.06,.03-.12,.06-.18,.04-.09,.09-.2,.09-.34v-.1h.1c.13,0,.49-.13,.49-.33v-.1h.1s.14-.11,.2-.23l.17-.46c.08-.08,.2-.15,.31-.23,.09-.06,.19-.12,.26-.18,.02-.16,.16-.29,.3-.43,.01-.08,.04-.17,.08-.27,.03-.09,.07-.2,.07-.25v-.06l.47-.3,.13-.24v-.58l.31-.44,.14-.4v-.41c0-.09,.06-.18,.13-.3,.08-.13,.17-.28,.17-.42v-.04l.03-.03c.34-.33,.41-.45,.41-.5v-.05s.31-.57,.31-.57l.14-.54c0-.33,.19-.49,.47-.63l.13-.37v-.6l.3-.29v-.56l.3-.43v-.64h.1s.13-.1,.19-.21v-.45l.45-.43c0-.29,0-.69,.15-.98v-4.12s-.03-.12-.05-.21c-.04-.14-.09-.31-.1-.49l-.13-.37c-.28-.14-.32-.18-.32-.46l-.3-.29v-.04s-.06-.12-.1-.19c-.09-.14-.19-.31-.2-.5l-.12-.23c-.24-.08-.35-.16-.43-.22-.06-.04-.07-.05-.1-.05h-.06l-.18-.34-.13-.38c-.07,0-.16-.04-.18-.14-.01,0-.03,0-.05,0h-.1v-.1c0-.14-.09-.18-.34-.18h-.1v-.1s0-.03,0-.04c-.09-.02-.13-.08-.14-.15-.18-.03-.36-.14-.48-.26l-.06,.12-1.54-.63h.53s-.04-.05-.06-.08h-2.18c-.16,0-.32-.04-.47-.07-.15-.04-.29-.07-.42-.07h-.04l-.15-.14h-2.02l-.22,.11c0,.07-.04,.16-.14,.18,0,.01,0,.02,0,.04v.1h-1.42l-.32,.14h-.53c-.13,.24-.18,.28-.43,.28-.07,.14-.26,.24-.33,.28h-.05c-.06,.01-.17,.05-.27,.08-.11,.04-.22,.07-.3,.08l-.26,.13-.14,.13c-.07,.06-.14,.17-.21,.27-.08,.11-.16,.22-.24,.3-.08,.08-.2,.15-.31,.23-.09,.06-.19,.12-.25,.18-.03,.16-.17,.3-.31,.44l-.17,.45c-.13,.13-.59,.46-.72,.56-.04,.16-.21,.43-.29,.54,.01,.76,.55,1.22,.94,1.56,.25,.22,.45,.39,.45,.59v.1h-.1c-1.2,.08-1.72,2.29-1.74,3.23l.3,.14v.59l.15,.14v.31l.3,.6v.38l.15,.14v.43l.45,.43v.39c.13,.05,.15,.21,.15,.33l.15,.14v.41l.3,.14v.61l.13,.25c.29,.28,.47,.48,.47,.64,0,.05,.03,.1,.06,.17,.04,.08,.09,.17,.09,.26v.43s.02,.09,.05,.15c.04,.08,.08,.19,.1,.34,.14,.05,.15,.21,.15,.33,.14,.15,.28,.41,.3,.59l.11,.22c.17,.03,.42,.15,.47,.31l.3,.14,.15,.59,.26,.25,.5,.16v.08s.02,.09,.05,.15c.04,.09,.09,.21,.1,.38l.3,.29v.04s.08,.16,.13,.23c.06,.08,.11,.17,.14,.24,.22,0,.29,.04,.33,.08,.02,.02,.03,.04,.03,.06h.09l.16,.62c.23,.23,.39,.4,.44,.54,.15,.06,.27,.27,.3,.43,.18,.06,.48,.24,.58,.41h.27l.18,.17,.28,.4h.44l.15,.14Zm4.57-23.57s.06,.03,.09,.05c0-.01,0-.02-.01-.03-.03,0-.05-.01-.07-.02Zm-6.66-.57h0Z"/>
  </g>
  <g>
    <path class="cls-2" d="M94.93,158.85c1.35,0,2.45,1.05,2.45,2.35s-1.1,2.35-2.45,2.35-2.45-1.05-2.45-2.35,1.1-2.35,2.45-2.35h0Z"/>
    <path class="cls-9" d="M94.93,163.65c-1.41,0-2.55-1.1-2.55-2.45s1.15-2.45,2.55-2.45,2.55,1.1,2.55,2.45-1.14,2.45-2.55,2.45Zm0-4.69c-1.29,0-2.35,1.01-2.35,2.24s1.05,2.24,2.35,2.24,2.34-1.01,2.34-2.24-1.05-2.24-2.34-2.24Z"/>
  </g>
  <g>
    <path class="cls-2" d="M99.18,162.53c1.35,0,2.45,1.05,2.45,2.35s-1.1,2.35-2.45,2.35-2.45-1.05-2.45-2.35,1.1-2.35,2.45-2.35h0Z"/>
    <path class="cls-9" d="M99.18,167.33c-1.41,0-2.55-1.1-2.55-2.45s1.14-2.45,2.55-2.45,2.55,1.1,2.55,2.45-1.15,2.45-2.55,2.45Zm0-4.69c-1.29,0-2.34,1.01-2.34,2.24s1.05,2.24,2.34,2.24,2.34-1.01,2.34-2.24-1.05-2.24-2.34-2.24Z"/>
  </g>
  <g>
    <path class="cls-2" d="M101.63,162.53c1.35,0,2.45,1.05,2.45,2.35s-1.1,2.35-2.45,2.35-2.45-1.05-2.45-2.35,1.1-2.35,2.45-2.35h0Z"/>
    <path class="cls-9" d="M101.63,167.33c-1.41,0-2.55-1.1-2.55-2.45s1.15-2.45,2.55-2.45,2.55,1.1,2.55,2.45-1.15,2.45-2.55,2.45Zm0-4.69c-1.29,0-2.34,1.01-2.34,2.24s1.05,2.24,2.34,2.24,2.34-1.01,2.34-2.24-1.05-2.24-2.34-2.24Z"/>
  </g>
  <g>
    <path class="cls-2" d="M99.19,157.15c1.35,0,2.45,1.05,2.45,2.35s-1.1,2.35-2.45,2.35-2.45-1.05-2.45-2.35,1.1-2.35,2.45-2.35h0Z"/>
    <path class="cls-9" d="M99.19,161.95c-1.41,0-2.55-1.1-2.55-2.45s1.14-2.45,2.55-2.45,2.55,1.1,2.55,2.45-1.15,2.45-2.55,2.45Zm0-4.7c-1.29,0-2.34,1.01-2.34,2.24s1.05,2.24,2.34,2.24,2.34-1.01,2.34-2.24-1.05-2.24-2.34-2.24Z"/>
  </g>
  <g>
    <path class="cls-2" d="M103.94,158.36c1.35,0,2.45,1.05,2.45,2.35s-1.1,2.35-2.45,2.35-2.45-1.05-2.45-2.35,1.1-2.35,2.45-2.35h0Z"/>
    <path class="cls-9" d="M103.94,163.15c-1.41,0-2.55-1.1-2.55-2.45s1.15-2.45,2.55-2.45,2.55,1.1,2.55,2.45-1.15,2.45-2.55,2.45Zm0-4.69c-1.29,0-2.34,1.01-2.34,2.24s1.05,2.24,2.34,2.24,2.34-1.01,2.34-2.24-1.05-2.24-2.34-2.24Z"/>
  </g>
  <g>
    <path class="cls-2" d="M107.15,159.92c1.35,0,2.45,1.05,2.45,2.35s-1.1,2.35-2.45,2.35-2.45-1.05-2.45-2.35,1.1-2.35,2.45-2.35h0Z"/>
    <path class="cls-9" d="M107.15,164.72c-1.41,0-2.55-1.1-2.55-2.45s1.15-2.45,2.55-2.45,2.55,1.1,2.55,2.45-1.15,2.45-2.55,2.45Zm0-4.69c-1.29,0-2.34,1.01-2.34,2.24s1.05,2.24,2.34,2.24,2.34-1.01,2.34-2.24-1.05-2.24-2.34-2.24Z"/>
  </g>
  <g>
    <path class="cls-2" d="M89.54,158.95c1.35,0,2.45,1.05,2.45,2.35s-1.1,2.35-2.45,2.35-2.45-1.05-2.45-2.35,1.1-2.35,2.45-2.35h0Z"/>
    <path class="cls-9" d="M89.54,163.75c-1.41,0-2.55-1.1-2.55-2.45s1.14-2.45,2.55-2.45,2.55,1.1,2.55,2.45-1.14,2.45-2.55,2.45Zm0-4.69c-1.29,0-2.34,1.01-2.34,2.24s1.05,2.24,2.34,2.24,2.34-1.01,2.34-2.24-1.05-2.24-2.34-2.24Z"/>
  </g>
  <g>
    <path class="cls-2" d="M93.79,164.31c1.35,0,2.45,1.05,2.45,2.35s-1.1,2.35-2.45,2.35-2.45-1.05-2.45-2.35,1.1-2.35,2.45-2.35h0Z"/>
    <path class="cls-9" d="M93.79,169.11c-1.41,0-2.55-1.1-2.55-2.45s1.14-2.45,2.55-2.45,2.55,1.1,2.55,2.45-1.15,2.45-2.55,2.45Zm0-4.7c-1.29,0-2.34,1.01-2.34,2.24s1.05,2.24,2.34,2.24,2.34-1.01,2.34-2.24-1.05-2.24-2.34-2.24Z"/>
  </g>
  <g>
    <path class="cls-2" d="M90.37,168.88c1.35,0,2.45,1.05,2.45,2.35s-1.1,2.35-2.45,2.35-2.45-1.05-2.45-2.35,1.1-2.35,2.45-2.35h0Z"/>
    <path class="cls-9" d="M90.37,173.68c-1.41,0-2.55-1.1-2.55-2.45s1.14-2.45,2.55-2.45,2.55,1.1,2.55,2.45-1.15,2.45-2.55,2.45Zm0-4.69c-1.29,0-2.34,1.01-2.34,2.24s1.05,2.24,2.34,2.24,2.34-1.01,2.34-2.24-1.05-2.24-2.34-2.24Z"/>
  </g>
  <g>
    <path class="cls-2" d="M93.79,166.66c1.35,0,2.45,1.05,2.45,2.35s-1.1,2.35-2.45,2.35-2.45-1.05-2.45-2.35,1.1-2.35,2.45-2.35h0Z"/>
    <path class="cls-9" d="M93.79,171.46c-1.41,0-2.55-1.1-2.55-2.45s1.14-2.45,2.55-2.45,2.55,1.1,2.55,2.45-1.15,2.45-2.55,2.45Zm0-4.69c-1.29,0-2.34,1.01-2.34,2.24s1.05,2.24,2.34,2.24,2.34-1.01,2.34-2.24-1.05-2.24-2.34-2.24Z"/>
  </g>
  <g>
    <path class="cls-2" d="M99.59,166.5c1.35,0,2.45,1.05,2.45,2.35s-1.1,2.35-2.45,2.35-2.45-1.05-2.45-2.35,1.1-2.35,2.45-2.35h0Z"/>
    <path class="cls-9" d="M99.59,171.3c-1.41,0-2.55-1.1-2.55-2.45s1.15-2.45,2.55-2.45,2.55,1.1,2.55,2.45-1.14,2.45-2.55,2.45Zm0-4.69c-1.29,0-2.35,1.01-2.35,2.24s1.05,2.24,2.35,2.24,2.34-1.01,2.34-2.24-1.05-2.24-2.34-2.24Z"/>
  </g>
  <g>
    <path class="cls-2" d="M103.22,167.42c1.35,0,2.45,1.05,2.45,2.35s-1.1,2.35-2.45,2.35-2.45-1.05-2.45-2.35,1.1-2.35,2.45-2.35h0Z"/>
    <path class="cls-9" d="M103.22,172.22c-1.41,0-2.55-1.1-2.55-2.45s1.14-2.45,2.55-2.45,2.55,1.1,2.55,2.45-1.15,2.45-2.55,2.45Zm0-4.69c-1.29,0-2.34,1.01-2.34,2.24s1.05,2.24,2.34,2.24,2.35-1.01,2.35-2.24-1.05-2.24-2.35-2.24Z"/>
  </g>
  <g>
    <path class="cls-2" d="M104.58,162.85c1.35,0,2.45,1.05,2.45,2.35s-1.1,2.35-2.45,2.35-2.45-1.05-2.45-2.35,1.1-2.35,2.45-2.35h0Z"/>
    <path class="cls-9" d="M104.58,167.65c-1.41,0-2.55-1.1-2.55-2.45s1.14-2.45,2.55-2.45,2.55,1.1,2.55,2.45-1.15,2.45-2.55,2.45Zm0-4.7c-1.29,0-2.34,1.01-2.34,2.24s1.05,2.24,2.34,2.24,2.34-1.01,2.34-2.24-1.05-2.24-2.34-2.24Z"/>
  </g>
  <g>
    <path class="cls-2" d="M102.7,172.26c1.35,0,2.45,1.05,2.45,2.35s-1.1,2.35-2.45,2.35-2.45-1.05-2.45-2.35,1.1-2.35,2.45-2.35h0Z"/>
    <path class="cls-9" d="M102.7,177.06c-1.41,0-2.55-1.1-2.55-2.45s1.14-2.45,2.55-2.45,2.55,1.1,2.55,2.45-1.15,2.45-2.55,2.45Zm0-4.69c-1.29,0-2.34,1.01-2.34,2.24s1.05,2.24,2.34,2.24,2.34-1.01,2.34-2.24-1.05-2.24-2.34-2.24Z"/>
  </g>
  <g>
    <path class="cls-2" d="M98.87,171.27c1.35,0,2.45,1.05,2.45,2.35s-1.1,2.35-2.45,2.35-2.45-1.05-2.45-2.35,1.1-2.35,2.45-2.35h0Z"/>
    <path class="cls-9" d="M98.87,176.07c-1.41,0-2.55-1.1-2.55-2.45s1.14-2.45,2.55-2.45,2.55,1.1,2.55,2.45-1.15,2.45-2.55,2.45Zm0-4.69c-1.29,0-2.34,1.01-2.34,2.24s1.05,2.24,2.34,2.24,2.34-1.01,2.34-2.24-1.05-2.24-2.34-2.24Z"/>
  </g>
  <g>
    <path class="cls-2" d="M97.52,175.04c1.35,0,2.45,1.05,2.45,2.35s-1.1,2.35-2.45,2.35-2.45-1.05-2.45-2.35,1.09-2.35,2.45-2.35h0Z"/>
    <path class="cls-9" d="M97.52,179.84c-1.41,0-2.55-1.1-2.55-2.45s1.14-2.45,2.55-2.45,2.55,1.1,2.55,2.45-1.15,2.45-2.55,2.45Zm0-4.69c-1.29,0-2.34,1.01-2.34,2.24s1.05,2.24,2.34,2.24,2.34-1.01,2.34-2.24-1.05-2.24-2.34-2.24Z"/>
  </g>
  <g>
    <path class="cls-2" d="M93.06,173.85c1.35,0,2.45,1.05,2.45,2.35s-1.1,2.35-2.45,2.35-2.45-1.05-2.45-2.35,1.1-2.35,2.45-2.35h0Z"/>
    <path class="cls-9" d="M93.06,178.65c-1.41,0-2.55-1.1-2.55-2.45s1.15-2.45,2.55-2.45,2.55,1.1,2.55,2.45-1.15,2.45-2.55,2.45Zm0-4.69c-1.29,0-2.34,1.01-2.34,2.24s1.05,2.24,2.34,2.24,2.34-1.01,2.34-2.24-1.05-2.24-2.34-2.24Z"/>
  </g>
  <g>
    <path class="cls-2" d="M98.28,179c1.35,0,2.45,1.05,2.45,2.35s-1.1,2.35-2.45,2.35-2.45-1.05-2.45-2.35,1.1-2.35,2.45-2.35h0Z"/>
    <path class="cls-9" d="M98.28,183.8c-1.41,0-2.55-1.1-2.55-2.45s1.15-2.45,2.55-2.45,2.55,1.1,2.55,2.45-1.15,2.45-2.55,2.45Zm0-4.69c-1.29,0-2.34,1.01-2.34,2.24s1.05,2.24,2.34,2.24,2.34-1.01,2.34-2.24-1.05-2.24-2.34-2.24Z"/>
  </g>
  <g>
    <path class="cls-2" d="M101.25,175.74c1.35,0,2.45,1.05,2.45,2.35s-1.1,2.35-2.45,2.35-2.45-1.05-2.45-2.35,1.1-2.35,2.45-2.35h0Z"/>
    <path class="cls-9" d="M101.25,180.54c-1.41,0-2.55-1.1-2.55-2.45s1.15-2.45,2.55-2.45,2.55,1.1,2.55,2.45-1.15,2.45-2.55,2.45Zm0-4.69c-1.29,0-2.34,1.01-2.34,2.24s1.05,2.24,2.34,2.24,2.34-1.01,2.34-2.24-1.05-2.24-2.34-2.24Z"/>
  </g>
  <g>
    <path class="cls-2" d="M95.85,170.76c1.35,0,2.45,1.05,2.45,2.35s-1.1,2.35-2.45,2.35-2.45-1.05-2.45-2.35,1.1-2.35,2.45-2.35h0Z"/>
    <path class="cls-9" d="M95.85,175.56c-1.41,0-2.55-1.1-2.55-2.45s1.15-2.45,2.55-2.45,2.55,1.1,2.55,2.45-1.15,2.45-2.55,2.45Zm0-4.69c-1.29,0-2.34,1.01-2.34,2.24s1.05,2.24,2.34,2.24,2.34-1.01,2.34-2.24-1.05-2.24-2.34-2.24Z"/>
  </g>
  <g>
    <path class="cls-2" d="M94.93,168.41c1.35,0,2.45,1.05,2.45,2.35s-1.1,2.35-2.45,2.35-2.45-1.05-2.45-2.35,1.1-2.35,2.45-2.35h0Z"/>
    <path class="cls-9" d="M94.93,173.21c-1.41,0-2.55-1.1-2.55-2.45s1.15-2.45,2.55-2.45,2.55,1.1,2.55,2.45-1.14,2.45-2.55,2.45Zm0-4.69c-1.29,0-2.34,1.01-2.34,2.24s1.05,2.24,2.34,2.24,2.34-1.01,2.34-2.24-1.05-2.24-2.34-2.24Z"/>
  </g>
  <g>
    <path class="cls-2" d="M96.73,162.53c1.35,0,2.45,1.05,2.45,2.35s-1.1,2.35-2.45,2.35-2.45-1.05-2.45-2.35,1.1-2.35,2.45-2.35h0Z"/>
    <path class="cls-9" d="M96.73,167.33c-1.41,0-2.55-1.1-2.55-2.45s1.14-2.45,2.55-2.45,2.55,1.1,2.55,2.45-1.14,2.45-2.55,2.45Zm0-4.69c-1.29,0-2.34,1.01-2.34,2.24s1.05,2.24,2.34,2.24,2.34-1.01,2.34-2.24-1.05-2.24-2.34-2.24Z"/>
  </g>
  <g>
    <path class="cls-2" d="M89.54,161.3c1.35,0,2.45,1.05,2.45,2.35s-1.1,2.35-2.45,2.35-2.45-1.05-2.45-2.35,1.1-2.35,2.45-2.35h0Z"/>
    <path class="cls-9" d="M89.54,166.1c-1.41,0-2.55-1.1-2.55-2.45s1.14-2.45,2.55-2.45,2.55,1.1,2.55,2.45-1.14,2.45-2.55,2.45Zm0-4.69c-1.29,0-2.34,1.01-2.34,2.24s1.05,2.24,2.34,2.24,2.34-1.01,2.34-2.24-1.05-2.24-2.34-2.24Z"/>
  </g>
  <g>
    <path class="cls-2" d="M99.99,160.44c1.35,0,2.45,1.05,2.45,2.35s-1.1,2.35-2.45,2.35-2.45-1.05-2.45-2.35,1.1-2.35,2.45-2.35h0Z"/>
    <path class="cls-9" d="M99.99,165.24c-1.41,0-2.55-1.1-2.55-2.45s1.15-2.45,2.55-2.45,2.55,1.1,2.55,2.45-1.15,2.45-2.55,2.45Zm0-4.7c-1.29,0-2.34,1.01-2.34,2.24s1.05,2.24,2.34,2.24,2.34-1.01,2.34-2.24-1.05-2.24-2.34-2.24Z"/>
  </g>
  <g>
    <path class="cls-2" d="M88.95,167.25c1.35,0,2.45,1.05,2.45,2.35s-1.1,2.35-2.45,2.35-2.45-1.05-2.45-2.35,1.1-2.35,2.45-2.35h0Z"/>
    <path class="cls-9" d="M88.95,172.04c-1.41,0-2.55-1.1-2.55-2.45s1.15-2.45,2.55-2.45,2.55,1.1,2.55,2.45-1.15,2.45-2.55,2.45Zm0-4.7c-1.29,0-2.35,1.01-2.35,2.24s1.05,2.24,2.35,2.24,2.34-1.01,2.34-2.24-1.05-2.24-2.34-2.24Z"/>
  </g>
  <g>
    <path class="cls-2" d="M91.09,171.07c1.35,0,2.45,1.05,2.45,2.35s-1.1,2.35-2.45,2.35-2.45-1.05-2.45-2.35,1.1-2.35,2.45-2.35h0Z"/>
    <path class="cls-9" d="M91.09,175.87c-1.41,0-2.55-1.1-2.55-2.45s1.15-2.45,2.55-2.45,2.55,1.1,2.55,2.45-1.15,2.45-2.55,2.45Zm0-4.69c-1.29,0-2.34,1.01-2.34,2.24s1.05,2.24,2.34,2.24,2.34-1.01,2.34-2.24-1.05-2.24-2.34-2.24Z"/>
  </g>
  <g>
    <path class="cls-2" d="M94.03,175.81c1.35,0,2.45,1.05,2.45,2.35s-1.1,2.35-2.45,2.35-2.45-1.05-2.45-2.35,1.1-2.35,2.45-2.35h0Z"/>
    <path class="cls-9" d="M94.03,180.61c-1.41,0-2.55-1.1-2.55-2.45s1.15-2.45,2.55-2.45,2.55,1.1,2.55,2.45-1.15,2.45-2.55,2.45Zm0-4.69c-1.29,0-2.34,1.01-2.34,2.24s1.05,2.24,2.34,2.24,2.34-1.01,2.34-2.24-1.05-2.24-2.34-2.24Z"/>
  </g>
  <g>
    <path class="cls-2" d="M88.18,156.51c1.35,0,2.45,1.05,2.45,2.35s-1.1,2.35-2.45,2.35-2.45-1.05-2.45-2.35,1.1-2.35,2.45-2.35h0Z"/>
    <path class="cls-9" d="M88.18,161.3c-1.41,0-2.55-1.1-2.55-2.45s1.15-2.45,2.55-2.45,2.55,1.1,2.55,2.45-1.14,2.45-2.55,2.45Zm0-4.69c-1.29,0-2.34,1.01-2.34,2.24s1.05,2.24,2.34,2.24,2.34-1.01,2.34-2.24-1.05-2.24-2.34-2.24Z"/>
  </g>
  <g>
    <path class="cls-2" d="M85.44,156.85c1.35,0,2.45,1.05,2.45,2.35s-1.1,2.35-2.45,2.35-2.45-1.05-2.45-2.35,1.1-2.35,2.45-2.35h0Z"/>
    <path class="cls-9" d="M85.44,161.65c-1.41,0-2.55-1.1-2.55-2.45s1.15-2.45,2.55-2.45,2.55,1.1,2.55,2.45-1.14,2.45-2.55,2.45Zm0-4.69c-1.29,0-2.34,1.01-2.34,2.24s1.05,2.24,2.34,2.24,2.34-1.01,2.34-2.24-1.05-2.24-2.34-2.24Z"/>
  </g>
  <g>
    <path class="cls-2" d="M87.4,159.65c1.35,0,2.45,1.05,2.45,2.35s-1.1,2.35-2.45,2.35-2.45-1.05-2.45-2.35,1.1-2.35,2.45-2.35h0Z"/>
    <path class="cls-9" d="M87.4,164.45c-1.41,0-2.55-1.1-2.55-2.45s1.15-2.45,2.55-2.45,2.55,1.1,2.55,2.45-1.14,2.45-2.55,2.45Zm0-4.69c-1.29,0-2.34,1.01-2.34,2.24s1.05,2.24,2.34,2.24,2.34-1.01,2.34-2.24-1.05-2.24-2.34-2.24Z"/>
  </g>
  <g>
    <path class="cls-2" d="M96.15,176.99c1.35,0,2.45,1.05,2.45,2.35s-1.1,2.35-2.45,2.35-2.45-1.05-2.45-2.35,1.1-2.35,2.45-2.35h0Z"/>
    <path class="cls-9" d="M96.15,181.79c-1.41,0-2.55-1.1-2.55-2.45s1.15-2.45,2.55-2.45,2.55,1.1,2.55,2.45-1.15,2.45-2.55,2.45Zm0-4.7c-1.29,0-2.34,1.01-2.34,2.24s1.05,2.24,2.34,2.24,2.34-1.01,2.34-2.24-1.05-2.24-2.34-2.24Z"/>
  </g>
  <g>
    <path class="cls-2" d="M132.91,109.97c-.15,0-.6-.29-.75-.43-.3,0-.6,0-.75-.29h-3.88l-.45,.43-.6,.14-.15,.14v.43c-.15,.14-.3,.29-.3,.43l-.3,.14q0,.29-.3,.43v.43c0,.14-.15,.29-.15,.43s-.15,.29-.15,.43l-.15,.29v.29c0,.29-.15,.43-.15,.57v.71c0,.29-.15,.43-.15,.57v1.57l.15,.43,.3,.29v.14c0,.29,.45,.57,.6,.72l.15,.57,.3,.29c0,.14,.15,.29,.3,.43l.15,.29v.57q.3,0,.3,.29c0,.14,.15,.29,.15,.43,0,.29,.15,.43,.15,.72l.3,.29v.43l.15,.29,.15,.28c0,.14,.3,.29,.45,.43l.15,.57c.15,.29,.3,.57,.45,1l.45,.43c0,.14,.15,.43,.3,.57,0,.14,.15,.43,.3,.57v.29l.15,.14c0,.14,.45,.86,.45,.86h.45l.15,.14h.6c.15-.14,.3-.29,.45-.29l.15-.14,.15-.14c0-.29,.15,.14,.15-.43l.3-.14c.3,0,.3-.29,.45-.29v-.29l.45-.29v-.57c.15-.14,.45-.29,.45-.43,.15,0,.3-.29,.3-.43l.15-.29c.3,0,0-.14,.3-.14l.15-.29c0-.43,.15-.43,.45-.43v-.29l.15-.14c.15,0,.3-.14,.3-.28,.3,0,0-.14,.3-.14v-.43l.15-.14,.15-.29c.6,0,.15-.14,.45-.14,0-.14,0-.29,.15-.29v-.57c.15,0,.15-.14,.15-.29l.15-.14v-.28c0-.14,.15-.43,.3-.43v-.43c.15,0,.15-.14,.15-.29,.6,0,.15-.14,.45-.14l.15-.29c0-.14,.15-.28,.15-.43,.15,0,.3-.29,.3-.29,0-.14,.15-.29,.15-.57l.3-.29v-.29c.15,0,.3-.29,.3-.29,0-.43,.3-.57,.3-.71v-1c0-.14-.15-.29-.15-.57,0,0-.15-.29-.3-.29l-.15-.29c0-.14-.15-.29-.15-.43-.15,0-.6-.43-.6-.43,0-.29-.3-.57-.3-.72h-.15c-.3-.14-.6-.72-.75-.86-.3,0-.9-.57-1.04-.71-.9,0-.75-.14-1.19-.29-.15,0-.3-.14-.45-.14h-1.19l-.6-.29-.15,.29h0Z"/>
    <path class="cls-9" d="M131.71,128.24h-.64l-.15-.14h-.46l-.03-.05c-.13-.2-.41-.66-.46-.86l-.16-.15v-.29c-.14-.14-.27-.39-.3-.57-.13-.14-.27-.39-.3-.57l-.45-.44c-.15-.43-.3-.71-.44-.99l-.15-.56s-.1-.08-.15-.12c-.15-.11-.29-.21-.31-.34l-.3-.6v-.38l-.3-.29v-.04c0-.13-.03-.22-.07-.32-.04-.11-.08-.23-.08-.39,0-.05-.03-.1-.06-.16-.04-.08-.09-.17-.09-.26,0-.08,0-.16,0-.18-.01,0-.1,0-.18,0h-.1v-.65l-.13-.25c-.14-.14-.29-.28-.31-.45l-.29-.28-.15-.57s-.06-.05-.1-.08c-.21-.17-.51-.41-.51-.69v-.1l-.29-.3-.15-.46v-1.57c0-.08,.03-.15,.06-.23,.04-.09,.09-.2,.09-.34v-.71c0-.08,.03-.15,.06-.23,.04-.09,.09-.2,.09-.34v-.33s.15-.27,.15-.27c0-.09,.05-.16,.08-.24,.03-.06,.06-.12,.06-.17,0-.1,.05-.18,.09-.26,.03-.06,.06-.12,.06-.17v-.49l.06-.03q.24-.11,.24-.34v-.07l.31-.15c.03-.15,.16-.28,.29-.4v-.43l.2-.19,.6-.14,.46-.44h3.98l.03,.06c.11,.21,.32,.23,.65,.23h.04l.03,.03c.14,.13,.47,.33,.62,.39l.16-.31,.67,.32h1.17c.1,0,.19,.04,.27,.08,.07,.03,.13,.06,.18,.06h.03c.15,.05,.24,.1,.31,.14,.15,.08,.26,.14,.85,.14h.04l.03,.03c.66,.64,.91,.69,.97,.69h.04l.03,.03c.06,.05,.12,.15,.21,.27,.14,.2,.32,.47,.49,.56h.23v.1s.06,.12,.1,.19c.08,.14,.18,.3,.2,.48,.21,.19,.43,.36,.5,.37h.1v.1s.03,.11,.06,.17c.04,.07,.08,.15,.08,.23l.11,.22c.17,.05,.3,.28,.32,.33v.05c.01,.15,.06,.25,.1,.34,.03,.08,.06,.15,.06,.23v1c0,.09-.05,.16-.11,.23-.08,.11-.19,.24-.19,.48v.05s-.15,.25-.3,.32v.25l-.3,.29c0,.17-.06,.29-.1,.38-.03,.06-.05,.11-.05,.15v.05s-.15,.26-.31,.32c-.02,.06-.05,.12-.08,.18-.03,.06-.06,.12-.06,.16v.05s-.19,.34-.19,.34h-.07s-.01,.04-.03,.06c-.04,.05-.1,.08-.31,.08,0,.1-.04,.22-.15,.27v.45h-.1c-.06,0-.19,.2-.19,.33v.33l-.15,.14c0,.12-.02,.28-.15,.33v.59h-.1s-.05,0-.05,.18v.1h-.1s0,0-.01,0c0,.02-.01,.04-.03,.06-.04,.05-.11,.08-.34,.08l-.14,.26-.12,.11v.49h-.1s-.04,0-.05,0c-.02,.1-.09,.13-.16,.14-.05,.15-.19,.27-.34,.29l-.09,.09v.35h-.1c-.3,0-.34,0-.34,.32v.05s-.19,.34-.19,.34h-.06s-.04,0-.05,0c-.02,.11-.11,.13-.19,.14l-.11,.21c-.01,.16-.14,.42-.31,.49-.04,.11-.16,.19-.29,.28-.05,.04-.1,.07-.14,.11v.58l-.45,.29v.33h-.1s-.04,.04-.06,.06c-.06,.09-.16,.21-.37,.22l-.22,.11c0,.19-.03,.28-.08,.33-.02,.02-.04,.03-.06,.03h0v.05l-.36,.35h-.04c-.11,0-.24,.13-.37,.25l-.03,.03h-.04Zm-.56-.21h.51c.14-.13,.28-.26,.44-.28l.24-.23c0-.06,.02-.11,.06-.14,.03-.02,.06-.03,.08-.03,0-.03,.01-.1,.01-.21v-.07l.4-.18c.12,0,.17-.06,.22-.14,.03-.04,.07-.09,.12-.12v-.27l.45-.29v-.56l.03-.03c.06-.05,.13-.11,.2-.16,.07-.05,.22-.16,.22-.2v-.1s.1,0,.1,0c.06,0,.19-.2,.19-.32v-.05s.19-.34,.19-.34h.06s.04,0,.05,0c.02-.11,.11-.13,.19-.14l.11-.21c0-.45,.2-.5,.45-.51v-.23l.21-.2h.04c.09,0,.19-.09,.19-.18v-.1h.1s.04,0,.05,0c.02-.09,.08-.12,.15-.14v-.38l.17-.16,.17-.33h.06c.13,0,.19,0,.23-.01,0-.02,0-.05,.03-.07,.02-.03,.05-.04,.09-.05,0-.11,.03-.23,.15-.28v-.59h.1s.05,0,.05-.18v-.04l.15-.14v-.24c0-.15,.12-.43,.3-.51v-.45h.1s.04,0,.04-.18v-.1h.1c.13,0,.19,0,.23-.01,0-.02,0-.05,.03-.07,.03-.04,.07-.05,.13-.06l.11-.21c0-.09,.05-.16,.08-.23,.03-.06,.06-.12,.06-.17v-.1h.1s.13-.1,.19-.21c0-.07,.03-.13,.06-.2,.04-.09,.09-.2,.09-.34v-.04l.3-.29v-.35h.1s.13-.1,.19-.21c0-.29,.14-.46,.23-.58,.03-.04,.07-.09,.07-.11v-1s-.02-.09-.05-.15c-.04-.1-.1-.22-.1-.4-.06-.11-.15-.21-.2-.21h-.06l-.19-.39s-.03-.1-.06-.17c-.03-.06-.06-.12-.08-.18-.18-.07-.45-.32-.57-.43l-.03-.03v-.04c0-.14-.09-.29-.17-.42-.04-.07-.08-.13-.1-.19h-.11c-.22-.12-.43-.41-.59-.65-.06-.08-.11-.16-.16-.21-.23-.03-.58-.27-1.04-.71-.58,0-.72-.07-.91-.17-.07-.04-.14-.08-.26-.12-.09,0-.18-.05-.25-.08-.07-.03-.13-.06-.18-.06h-1.24s-.51-.25-.51-.25l-.13,.25h-.06c-.18,0-.61-.28-.79-.43-.28,0-.59-.01-.77-.29h-3.78l-.44,.42-.6,.14-.1,.09v.43l-.03,.03c-.12,.11-.27,.25-.27,.35v.07l-.3,.14c0,.25-.04,.3-.3,.43v.36c0,.1-.05,.19-.09,.26-.03,.06-.06,.12-.06,.17,0,.1-.05,.18-.09,.26-.03,.06-.06,.12-.06,.17v.05s-.15,.26-.15,.26v.26c0,.19-.06,.33-.1,.43-.03,.06-.05,.11-.05,.15v.71c0,.19-.06,.33-.1,.43-.03,.06-.05,.11-.05,.15v1.56l.13,.39,.31,.3v.19c0,.18,.27,.4,.43,.53,.05,.04,.1,.08,.13,.11l.02,.02,.15,.57,.31,.3v.04c0,.1,.15,.24,.27,.35l.02,.03,.16,.33v.47c.26,.01,.3,.08,.3,.39,0,.05,.03,.11,.06,.17,.04,.08,.09,.17,.09,.26,0,.13,.03,.22,.07,.32,.04,.1,.07,.21,.08,.35l.3,.29v.45l.3,.6s.15,.15,.22,.2c.07,.05,.14,.1,.19,.15l.02,.02,.16,.6c.14,.26,.29,.54,.44,.97l.46,.44v.04c0,.11,.13,.37,.27,.5l.03,.03v.04c0,.11,.13,.37,.27,.5l.03,.03v.29l.15,.14v.04c0,.08,.21,.44,.4,.75h.43l.15,.14Zm1.41-.52h0Zm5.8-8.56h0Z"/>
  </g>
  <g>
    <path class="cls-2" d="M137.9,109.55c1.35,0,2.45,1.05,2.45,2.35s-1.1,2.35-2.45,2.35-2.45-1.05-2.45-2.35,1.1-2.35,2.45-2.35h0Z"/>
    <path class="cls-9" d="M137.9,114.35c-1.41,0-2.55-1.1-2.55-2.45s1.15-2.45,2.55-2.45,2.55,1.1,2.55,2.45-1.15,2.45-2.55,2.45Zm0-4.69c-1.29,0-2.34,1.01-2.34,2.24s1.05,2.24,2.34,2.24,2.34-1.01,2.34-2.24-1.05-2.24-2.34-2.24Z"/>
  </g>
  <g>
    <path class="cls-2" d="M124.82,109.56c1.35,0,2.45,1.05,2.45,2.35s-1.1,2.35-2.45,2.35-2.45-1.05-2.45-2.35,1.1-2.35,2.45-2.35h0Z"/>
    <path class="cls-9" d="M124.82,114.36c-1.41,0-2.55-1.1-2.55-2.45s1.15-2.45,2.55-2.45,2.55,1.1,2.55,2.45-1.15,2.45-2.55,2.45Zm0-4.69c-1.29,0-2.34,1.01-2.34,2.24s1.05,2.24,2.34,2.24,2.34-1.01,2.34-2.24-1.05-2.24-2.34-2.24Z"/>
  </g>
  <g>
    <path class="cls-2" d="M127.98,119.88c1.35,0,2.45,1.05,2.45,2.35s-1.1,2.35-2.45,2.35-2.45-1.05-2.45-2.35,1.1-2.35,2.45-2.35h0Z"/>
    <path class="cls-9" d="M127.98,124.67c-1.41,0-2.55-1.1-2.55-2.45s1.15-2.45,2.55-2.45,2.55,1.1,2.55,2.45-1.14,2.45-2.55,2.45Zm0-4.69c-1.29,0-2.34,1.01-2.34,2.24s1.05,2.24,2.34,2.24,2.34-1.01,2.34-2.24-1.05-2.24-2.34-2.24Z"/>
  </g>
  <g>
    <path class="cls-2" d="M139.02,114.93c1.35,0,2.45,1.05,2.45,2.35s-1.1,2.35-2.45,2.35-2.45-1.05-2.45-2.35,1.1-2.35,2.45-2.35h0Z"/>
    <path class="cls-9" d="M139.02,119.73c-1.41,0-2.55-1.1-2.55-2.45s1.14-2.45,2.55-2.45,2.55,1.1,2.55,2.45-1.15,2.45-2.55,2.45Zm0-4.69c-1.29,0-2.34,1.01-2.34,2.24s1.05,2.24,2.34,2.24,2.34-1.01,2.34-2.24-1.05-2.24-2.34-2.24Z"/>
  </g>
  <g>
    <path class="cls-2" d="M127.44,117.61c1.35,0,2.45,1.05,2.45,2.35s-1.1,2.35-2.45,2.35-2.45-1.05-2.45-2.35,1.1-2.35,2.45-2.35h0Z"/>
    <path class="cls-9" d="M127.44,122.41c-1.41,0-2.55-1.1-2.55-2.45s1.14-2.45,2.55-2.45,2.55,1.1,2.55,2.45-1.14,2.45-2.55,2.45Zm0-4.69c-1.29,0-2.34,1.01-2.34,2.24s1.05,2.24,2.34,2.24,2.34-1.01,2.34-2.24-1.05-2.24-2.34-2.24Z"/>
  </g>
  <g>
    <path class="cls-2" d="M126.09,114.51c1.35,0,2.45,1.05,2.45,2.35s-1.1,2.35-2.45,2.35-2.45-1.05-2.45-2.35,1.1-2.35,2.45-2.35h0Z"/>
    <path class="cls-9" d="M126.09,119.31c-1.41,0-2.55-1.1-2.55-2.45s1.15-2.45,2.55-2.45,2.55,1.1,2.55,2.45-1.15,2.45-2.55,2.45Zm0-4.7c-1.29,0-2.34,1.01-2.34,2.24s1.05,2.24,2.34,2.24,2.34-1.01,2.34-2.24-1.05-2.24-2.34-2.24Z"/>
  </g>
  <g>
    <path class="cls-2" d="M136.44,118.87c1.35,0,2.45,1.05,2.45,2.35s-1.1,2.35-2.45,2.35-2.45-1.05-2.45-2.35,1.1-2.35,2.45-2.35h0Z"/>
    <path class="cls-9" d="M136.44,123.66c-1.41,0-2.55-1.1-2.55-2.45s1.14-2.45,2.55-2.45,2.55,1.1,2.55,2.45-1.15,2.45-2.55,2.45Zm0-4.69c-1.29,0-2.34,1.01-2.34,2.24s1.05,2.24,2.34,2.24,2.35-1.01,2.35-2.24-1.05-2.24-2.35-2.24Z"/>
  </g>
  <g>
    <path class="cls-2" d="M133.99,122.22c1.35,0,2.45,1.05,2.45,2.35s-1.1,2.35-2.45,2.35-2.45-1.05-2.45-2.35,1.1-2.35,2.45-2.35h0Z"/>
    <path class="cls-9" d="M133.99,127.02c-1.41,0-2.55-1.1-2.55-2.45s1.15-2.45,2.55-2.45,2.55,1.1,2.55,2.45-1.14,2.45-2.55,2.45Zm0-4.69c-1.29,0-2.34,1.01-2.34,2.24s1.05,2.24,2.34,2.24,2.34-1.01,2.34-2.24-1.05-2.24-2.34-2.24Z"/>
  </g>
  <g>
    <path class="cls-2" d="M131.79,125.39c1.35,0,2.45,1.05,2.45,2.35s-1.1,2.35-2.45,2.35-2.45-1.05-2.45-2.35,1.1-2.35,2.45-2.35h0Z"/>
    <path class="cls-9" d="M131.79,130.19c-1.41,0-2.55-1.1-2.55-2.45s1.15-2.45,2.55-2.45,2.55,1.1,2.55,2.45-1.15,2.45-2.55,2.45Zm0-4.69c-1.29,0-2.34,1.01-2.34,2.24s1.05,2.24,2.34,2.24,2.34-1.01,2.34-2.24-1.05-2.24-2.34-2.24Z"/>
  </g>
  <g>
    <path class="cls-2" d="M135.73,115.39c1.35,0,2.45,1.05,2.45,2.35s-1.1,2.35-2.45,2.35-2.45-1.05-2.45-2.35,1.1-2.35,2.45-2.35h0Z"/>
    <path class="cls-9" d="M135.73,120.19c-1.41,0-2.55-1.1-2.55-2.45s1.15-2.45,2.55-2.45,2.55,1.1,2.55,2.45-1.14,2.45-2.55,2.45Zm0-4.69c-1.29,0-2.34,1.01-2.34,2.24s1.05,2.24,2.34,2.24,2.34-1.01,2.34-2.24-1.05-2.24-2.34-2.24Z"/>
  </g>
  <g>
    <path class="cls-2" d="M126.89,111.9c1.35,0,2.45,1.05,2.45,2.35s-1.1,2.35-2.45,2.35-2.45-1.05-2.45-2.35,1.1-2.35,2.45-2.35h0Z"/>
    <path class="cls-9" d="M126.89,116.69c-1.41,0-2.55-1.1-2.55-2.45s1.15-2.45,2.55-2.45,2.55,1.1,2.55,2.45-1.15,2.45-2.55,2.45Zm0-4.69c-1.29,0-2.34,1.01-2.34,2.24s1.05,2.24,2.34,2.24,2.34-1.01,2.34-2.24-1.05-2.24-2.34-2.24Z"/>
  </g>
  <g>
    <path class="cls-2" d="M139.02,112.58c1.35,0,2.45,1.05,2.45,2.35s-1.1,2.35-2.45,2.35-2.45-1.05-2.45-2.35,1.1-2.35,2.45-2.35h0Z"/>
    <path class="cls-9" d="M139.02,117.38c-1.41,0-2.55-1.1-2.55-2.45s1.14-2.45,2.55-2.45,2.55,1.1,2.55,2.45-1.15,2.45-2.55,2.45Zm0-4.69c-1.29,0-2.34,1.01-2.34,2.24s1.05,2.24,2.34,2.24,2.34-1.01,2.34-2.24-1.05-2.24-2.34-2.24Z"/>
  </g>
  <g>
    <path class="cls-2" d="M132.43,153.81l.99-.43c0,.29-.28,.57-.42,.86l-.71,.14-.28,.14-.14,.14c0,.29-.14,.43-.14,.57-.14,0-.42,.43-.56,.43,0,.14,0,.29-.14,.29v.43l-.14,.29c-.14,0-.71,.43-.71,.43h-.57c0,.29-.28,.43-.56,.43l-.14,.14-.14,.14c0,.29-.14,0-.14,.29-.14,0-.28,.14-.42,.14l-.14,.14c-.14,.14-.42,.29-.42,.43-.14,0-.42,.29-.56,.29l-.14,.29-.14,.14-.42,.14-.14,.43c-.14,0-.28,.29-.28,.29v.29l-.14,.14c0,1,2.32,2,2.32,3l-1.89,1.43c.14,0,.28,.14,.28,.29,.56,0,.14,.14,.42,.14,0,.14,.14,.29,.14,.57l.14,.14c.14,.14,.28,.29,.28,.43l.14,.14,.42,.29c0,.14,.14,.43,.28,.43v.29c.28,0,0,.14,.28,.14,0,.14,.14,.29,.28,.43,0,.29,.14,.43,.14,.57l.42,.29c0,.14,0,.29,.14,.29v.43l.14,.29,.14,.29,.28,.14c.14,.29,.56,.72,.71,.86,0,.14,.42,.57,.42,.57l.14,.29,.28,.29v.29c.28,0,.28,.29,.42,.29l.14,.43v.43c.14,0,.14,.14,.14,.29,0,.29,.14,.43,.14,.57,0,0,.14,.29,.28,.29,0,.29,0,.43,.28,.43,0,.29,.14,.43,.14,.57l.28,.14c0,.14,.14,.29,.14,.43,.28,0,0,.14,.28,.14,0,.29,.14,.43,.14,.57,.14,0,.42,.14,.42,.29h2.68l.42-.29v-.29l.14-.29,.28-.29,.28-.14s.57-.86,.57-1l.71-.57c0-.29,.14-.43,.14-.57l.28-.29,.14-.28v-.43c.14-.14,.42-.29,.42-.43v-1.15c0-.14,.28-.71,.28-1l.42-.72c0-.29,.14-.43,.14-.57v-2l.28-.43v-.43s.14-.29,.28-.29c0-.29,.14-.57,.14-.71,0-.29-.14-.71,.28-.71v-.86c.28-1,.14-2.86,.14-3.86l-.14-.29c0-.14-.42-.57-.42-.71-.14-.14-.42-.43-.42-.57l-.14-.14s-.56-.43-.56-.72l-.42-.14c-.14-.14-.28-.43-.56-.43l-.14-.29-.28-.14-.14-.29c-.14,0-.28-.14-.28-.43l-.56-.14c0-.29-.14,0-.14-.29-.28,0-.42-.29-.71-.29l-.42-.43c-.28,0-.85-.29-1.13-.29l-.56-.43-.28-.14-.57-.14h-2.26c-.28,0-.14,0,0-.29h0Z"/>
    <path class="cls-9" d="M137.27,178.09h-2.82v-.1c0-.06-.2-.18-.32-.18h-.1v-.1s-.02-.09-.05-.15c-.03-.08-.08-.19-.09-.33-.06-.01-.13-.05-.14-.13-.01,0-.02,0-.04,0h-.1v-.1s-.03-.1-.06-.17c-.03-.06-.06-.12-.08-.19l-.29-.15v-.06s-.02-.09-.05-.15c-.03-.08-.08-.19-.09-.33-.26-.04-.28-.23-.29-.45-.14-.07-.24-.25-.27-.32v-.05s-.03-.09-.06-.15c-.04-.1-.1-.24-.1-.42,0-.05,0-.16-.02-.18h-.1l-.02-.11v-.41l-.12-.36c-.06-.03-.1-.09-.14-.13-.06-.08-.1-.13-.2-.13h-.1v-.35l-.27-.28-.13-.27c-.15-.16-.39-.42-.44-.58-.35-.35-.58-.63-.69-.83l-.28-.14-.31-.65v-.35c-.12-.05-.14-.2-.14-.31l-.42-.29v-.06s-.02-.09-.05-.15c-.04-.1-.09-.22-.1-.38-.12-.12-.23-.24-.27-.37-.07-.01-.14-.04-.15-.14,0,0-.02,0-.04,0h-.1v-.31c-.15-.08-.25-.3-.28-.45l-.38-.26-.19-.19v-.04c0-.1-.13-.24-.25-.36l-.17-.17v-.04c0-.15-.04-.25-.08-.34-.02-.04-.04-.09-.05-.13-.04,0-.07-.02-.09-.05-.02-.03-.03-.05-.03-.08-.03,0-.09-.01-.21-.01h-.1v-.1c0-.08-.1-.18-.18-.18h-.31l2.1-1.59c-.04-.44-.59-.91-1.12-1.37-.59-.51-1.19-1.03-1.19-1.58v-.04l.14-.14v-.29c.04-.07,.15-.27,.31-.33l.14-.42,.45-.15,.11-.11,.16-.33h.07s.16-.08,.22-.13c.09-.06,.17-.12,.25-.14,.04-.1,.16-.19,.27-.28,.06-.05,.12-.09,.16-.13l.17-.17h.04s.1-.03,.16-.06c.05-.03,.1-.05,.16-.07,.01-.07,.04-.14,.13-.15,0-.01,0-.02,0-.04v-.04l.34-.35h.04c.22,0,.46-.1,.46-.33v-.1h.63c.19-.15,.5-.36,.67-.42l.11-.22v-.51h.1s.04-.13,.04-.18v-.1h.1s.14-.12,.21-.18c.09-.09,.18-.18,.26-.22,.01-.05,.03-.1,.05-.15,.04-.09,.08-.2,.08-.35v-.04l.2-.19,.31-.15,.39-.08h-.23c-.15,0-.22,0-.25-.07-.04-.07,0-.13,.05-.18,.03-.04,.07-.1,.12-.19l.02-.03,1.17-.51v.16c0,.22-.13,.42-.26,.61h1.42l.59,.15,.3,.15,.55,.42c.15,.01,.35,.08,.56,.15,.2,.07,.41,.14,.53,.14h.04l.42,.43c.15,.01,.27,.09,.37,.16,.1,.07,.18,.12,.29,.12h.1v.1s0,.03,0,.04c.09,.02,.13,.09,.14,.16l.57,.14v.08c0,.21,.09,.32,.18,.32h.07l.15,.31,.28,.14,.13,.26c.23,.03,.37,.21,.48,.34,.03,.03,.05,.07,.08,.1l.47,.16v.08c0,.16,.31,.47,.52,.63l.18,.18v.04s.07,.17,.39,.5l.03,.03v.04s.12,.2,.19,.3c.13,.18,.21,.29,.23,.39l.14,.32c0,.23,0,.5,.02,.79,.03,1.02,.06,2.29-.16,3.08v.95h-.1c-.07,0-.13,.02-.15,.05-.06,.07-.05,.23-.03,.37,0,.07,.01,.13,.01,.19,0,.07-.03,.16-.06,.27-.04,.14-.08,.29-.08,.45v.1h-.1s-.12,.09-.18,.21v.43l-.28,.43v1.97c0,.08-.03,.15-.06,.23-.04,.09-.08,.2-.08,.34v.03l-.42,.72c0,.18-.1,.44-.18,.66-.04,.12-.1,.27-.1,.31v1.15c0,.15-.15,.26-.29,.37-.05,.04-.09,.07-.13,.1v.43s-.17,.31-.17,.31l-.26,.26c0,.06-.03,.12-.06,.18-.04,.09-.08,.2-.08,.34v.05l-.72,.58c-.06,.21-.38,.7-.57,1l-.02,.02-.29,.15-.26,.26-.12,.25v.32l-.49,.34Zm-2.64-.21h2.57l.35-.24v-.28s.17-.31,.17-.31l.31-.3,.26-.13c.25-.38,.52-.84,.53-.93v-.05l.04-.03,.67-.54c0-.16,.06-.28,.09-.37,.02-.06,.04-.11,.04-.15v-.04l.3-.31,.12-.25v-.45l.03-.03c.05-.05,.12-.1,.18-.15,.07-.06,.21-.16,.21-.2v-1.15c0-.07,.04-.19,.11-.38,.08-.21,.17-.47,.17-.62v-.03l.42-.72c0-.17,.05-.29,.1-.39,.03-.06,.05-.11,.05-.15v-2.03l.28-.43v-.44c.04-.07,.15-.25,.29-.32,.01-.15,.05-.3,.09-.42,.02-.09,.05-.17,.05-.21,0-.05,0-.11-.01-.17-.02-.19-.04-.4,.09-.53,.05-.06,.12-.09,.2-.11v-.79c.22-.76,.18-2.02,.16-3.03,0-.29-.01-.55-.02-.77l-.14-.31s-.12-.2-.19-.29c-.12-.16-.2-.28-.23-.37-.24-.24-.4-.43-.42-.57l-.12-.12c-.08-.06-.52-.4-.59-.71l-.4-.15s-.07-.08-.11-.13c-.11-.13-.22-.27-.38-.27h-.06l-.16-.31-.28-.14-.13-.27c-.15-.03-.29-.18-.31-.44l-.57-.14v-.08s0-.03,0-.04c-.09-.02-.12-.09-.13-.15-.12-.02-.22-.09-.31-.15-.1-.07-.19-.13-.3-.13h-.04l-.42-.43c-.15-.01-.35-.08-.55-.15-.2-.07-.41-.14-.53-.14h-.04l-.59-.45-.27-.13-.54-.13h-1.53s-.03,.06-.05,.09l-.02,.05-.74,.15-.25,.13-.1,.1c0,.17-.06,.29-.1,.38-.02,.06-.05,.11-.05,.15v.1h-.1s-.14,.12-.21,.18c-.09,.09-.17,.18-.25,.22,0,.11-.03,.24-.14,.29v.39s-.18,.34-.18,.34h-.06c-.07,0-.39,.22-.64,.41l-.03,.02h-.51c-.06,.27-.33,.42-.61,.43l-.22,.23c0,.07-.03,.18-.14,.2,0,.01,0,.02,0,.04v.1h-.1s-.1,.03-.16,.06c-.06,.03-.14,.07-.21,.08l-.11,.12c-.05,.05-.12,.1-.18,.15-.07,.06-.21,.16-.21,.2v.1h-.1s-.15,.08-.22,.12c-.1,.06-.19,.13-.27,.15l-.14,.27-.18,.17-.37,.13-.15,.45h-.08s-.12,.09-.18,.21v.3l-.14,.14c.03,.44,.59,.92,1.12,1.38,.59,.51,1.2,1.03,1.2,1.58v.05l-1.78,1.35c.07,.05,.13,.13,.16,.21,.17,0,.25,.03,.3,.08,.02,.02,.03,.04,.03,.06h.11v.1s.02,.09,.05,.15c.04,.1,.09,.21,.1,.38l.11,.11c.14,.14,.29,.29,.31,.46l.11,.12,.45,.3v.06c0,.13,.13,.33,.18,.33h.1v.29c.06,.01,.13,.05,.14,.13,0,0,.02,0,.04,0h.1v.1c0,.1,.13,.24,.25,.36l.03,.03v.04c0,.15,.04,.25,.08,.34,.02,.06,.05,.11,.06,.17l.43,.29v.06c0,.05,0,.16,.02,.18h.1l.02,.11v.41l.26,.52,.28,.14,.02,.03c.09,.18,.32,.46,.69,.83l.03,.03v.04c0,.06,.19,.3,.39,.5l.02,.03,.13,.27,.3,.3v.24c.15,.03,.22,.14,.27,.21,.02,.02,.04,.06,.05,.06h.08l.02,.07,.15,.46v.34c.14,.06,.14,.26,.14,.37,0,.15,.04,.25,.08,.34,.03,.07,.05,.13,.06,.2,.06,.11,.15,.21,.18,.21h.1v.1c0,.31,.01,.32,.18,.32h.1v.1c0,.15,.04,.25,.08,.34,.02,.05,.04,.11,.05,.16l.29,.15v.06s.03,.11,.06,.17c.02,.05,.05,.1,.07,.16,.07,.01,.14,.04,.15,.14,.01,0,.02,0,.04,0h.1v.1c0,.15,.04,.25,.08,.35,.02,.05,.04,.09,.05,.13,.15,.03,.34,.14,.41,.28Zm-6.22-9.8h0Zm-1.53-2.51h0Zm5.57-11.58h.57s.04-.07,.06-.1c.08-.12,.15-.23,.19-.34l-.77,.33s-.04,.07-.06,.1Z"/>
  </g>
  <g>
    <path class="cls-2" d="M135.86,156.8c1.35,0,2.45,1.05,2.45,2.35s-1.1,2.35-2.45,2.35-2.45-1.05-2.45-2.35,1.1-2.35,2.45-2.35h0Z"/>
    <path class="cls-9" d="M135.86,161.59c-1.41,0-2.55-1.1-2.55-2.45s1.15-2.45,2.55-2.45,2.55,1.1,2.55,2.45-1.15,2.45-2.55,2.45Zm0-4.69c-1.29,0-2.34,1.01-2.34,2.24s1.05,2.24,2.34,2.24,2.34-1.01,2.34-2.24-1.05-2.24-2.34-2.24Z"/>
  </g>
  <g>
    <path class="cls-2" d="M129.96,155.18c1.35,0,2.45,1.05,2.45,2.35s-1.1,2.35-2.45,2.35-2.45-1.05-2.45-2.35,1.1-2.35,2.45-2.35h0Z"/>
    <path class="cls-9" d="M129.96,159.98c-1.41,0-2.55-1.1-2.55-2.45s1.15-2.45,2.55-2.45,2.55,1.1,2.55,2.45-1.14,2.45-2.55,2.45Zm0-4.7c-1.29,0-2.34,1.01-2.34,2.24s1.05,2.24,2.34,2.24,2.34-1.01,2.34-2.24-1.05-2.24-2.34-2.24Z"/>
  </g>
  <g>
    <path class="cls-2" d="M139.86,156.25c1.35,0,2.45,1.05,2.45,2.35s-1.1,2.35-2.45,2.35-2.45-1.05-2.45-2.35,1.1-2.35,2.45-2.35h0Z"/>
    <path class="cls-9" d="M139.86,161.04c-1.41,0-2.55-1.1-2.55-2.45s1.14-2.45,2.55-2.45,2.55,1.1,2.55,2.45-1.15,2.45-2.55,2.45Zm0-4.69c-1.29,0-2.34,1.01-2.34,2.24s1.05,2.24,2.34,2.24,2.34-1.01,2.34-2.24-1.05-2.24-2.34-2.24Z"/>
  </g>
  <g>
    <path class="cls-2" d="M136.6,162.16c1.35,0,2.45,1.05,2.45,2.35s-1.1,2.35-2.45,2.35-2.45-1.05-2.45-2.35,1.1-2.35,2.45-2.35h0Z"/>
    <path class="cls-9" d="M136.6,166.96c-1.41,0-2.55-1.1-2.55-2.45s1.15-2.45,2.55-2.45,2.55,1.1,2.55,2.45-1.15,2.45-2.55,2.45Zm0-4.69c-1.29,0-2.34,1.01-2.34,2.24s1.05,2.24,2.34,2.24,2.34-1.01,2.34-2.24-1.05-2.24-2.34-2.24Z"/>
  </g>
  <g>
    <path class="cls-2" d="M131.12,161.23c1.35,0,2.45,1.05,2.45,2.35s-1.1,2.35-2.45,2.35-2.45-1.05-2.45-2.35,1.1-2.35,2.45-2.35h0Z"/>
    <path class="cls-9" d="M131.12,166.03c-1.41,0-2.55-1.1-2.55-2.45s1.15-2.45,2.55-2.45,2.55,1.1,2.55,2.45-1.14,2.45-2.55,2.45Zm0-4.69c-1.29,0-2.34,1.01-2.34,2.24s1.05,2.24,2.34,2.24,2.34-1.01,2.34-2.24-1.05-2.24-2.34-2.24Z"/>
  </g>
  <g>
    <path class="cls-2" d="M127.09,157.96c1.35,0,2.45,1.05,2.45,2.35s-1.1,2.35-2.45,2.35-2.45-1.05-2.45-2.35,1.1-2.35,2.45-2.35h0Z"/>
    <path class="cls-9" d="M127.09,162.76c-1.41,0-2.55-1.1-2.55-2.45s1.15-2.45,2.55-2.45,2.55,1.1,2.55,2.45-1.15,2.45-2.55,2.45Zm0-4.69c-1.29,0-2.34,1.01-2.34,2.24s1.05,2.24,2.34,2.24,2.34-1.01,2.34-2.24-1.05-2.24-2.34-2.24Z"/>
  </g>
  <g>
    <path class="cls-2" d="M127.61,163.8c1.35,0,2.45,1.05,2.45,2.35s-1.1,2.35-2.45,2.35-2.45-1.05-2.45-2.35,1.1-2.35,2.45-2.35h0Z"/>
    <path class="cls-9" d="M127.61,168.6c-1.41,0-2.55-1.1-2.55-2.45s1.14-2.45,2.55-2.45,2.55,1.1,2.55,2.45-1.15,2.45-2.55,2.45Zm0-4.69c-1.29,0-2.34,1.01-2.34,2.24s1.05,2.24,2.34,2.24,2.34-1.01,2.34-2.24-1.05-2.24-2.34-2.24Z"/>
  </g>
  <g>
    <path class="cls-2" d="M141.17,161.46c1.35,0,2.45,1.05,2.45,2.35s-1.1,2.35-2.45,2.35-2.45-1.05-2.45-2.35,1.1-2.35,2.45-2.35h0Z"/>
    <path class="cls-9" d="M141.17,166.25c-1.41,0-2.55-1.1-2.55-2.45s1.14-2.45,2.55-2.45,2.55,1.1,2.55,2.45-1.15,2.45-2.55,2.45Zm0-4.7c-1.29,0-2.34,1.01-2.34,2.24s1.05,2.24,2.34,2.24,2.35-1.01,2.35-2.24-1.05-2.24-2.35-2.24Z"/>
  </g>
  <g>
    <path class="cls-2" d="M138.6,167.22c1.35,0,2.45,1.05,2.45,2.35s-1.1,2.35-2.45,2.35-2.45-1.05-2.45-2.35,1.1-2.35,2.45-2.35h0Z"/>
    <path class="cls-9" d="M138.6,172.02c-1.41,0-2.55-1.1-2.55-2.45s1.14-2.45,2.55-2.45,2.55,1.1,2.55,2.45-1.15,2.45-2.55,2.45Zm0-4.7c-1.29,0-2.34,1.01-2.34,2.24s1.05,2.24,2.34,2.24,2.34-1.01,2.34-2.24-1.05-2.24-2.34-2.24Z"/>
  </g>
  <g>
    <path class="cls-2" d="M135.75,170.86c1.35,0,2.45,1.05,2.45,2.35s-1.1,2.35-2.45,2.35-2.45-1.05-2.45-2.35,1.1-2.35,2.45-2.35h0Z"/>
    <path class="cls-9" d="M135.75,175.66c-1.41,0-2.55-1.1-2.55-2.45s1.15-2.45,2.55-2.45,2.55,1.1,2.55,2.45-1.14,2.45-2.55,2.45Zm0-4.7c-1.29,0-2.34,1.01-2.34,2.24s1.05,2.24,2.34,2.24,2.34-1.01,2.34-2.24-1.05-2.24-2.34-2.24Z"/>
  </g>
  <g>
    <path class="cls-2" d="M138.02,173.41c1.35,0,2.45,1.05,2.45,2.35s-1.1,2.35-2.45,2.35-2.45-1.05-2.45-2.35,1.1-2.35,2.45-2.35h0Z"/>
    <path class="cls-9" d="M138.02,178.21c-1.41,0-2.55-1.1-2.55-2.45s1.15-2.45,2.55-2.45,2.55,1.1,2.55,2.45-1.15,2.45-2.55,2.45Zm0-4.69c-1.29,0-2.34,1.01-2.34,2.24s1.05,2.24,2.34,2.24,2.35-1.01,2.35-2.24-1.05-2.24-2.35-2.24Z"/>
  </g>
  <g>
    <path class="cls-2" d="M131.81,169.22c1.35,0,2.45,1.05,2.45,2.35s-1.1,2.35-2.45,2.35-2.45-1.05-2.45-2.35,1.1-2.35,2.45-2.35h0Z"/>
    <path class="cls-9" d="M131.81,174.02c-1.41,0-2.55-1.1-2.55-2.45s1.15-2.45,2.55-2.45,2.55,1.1,2.55,2.45-1.14,2.45-2.55,2.45Zm0-4.69c-1.29,0-2.34,1.01-2.34,2.24s1.05,2.24,2.34,2.24,2.34-1.01,2.34-2.24-1.05-2.24-2.34-2.24Z"/>
  </g>
  <g>
    <path class="cls-2" d="M135.15,175.55c1.35,0,2.45,1.05,2.45,2.35s-1.1,2.35-2.45,2.35-2.45-1.05-2.45-2.35,1.1-2.35,2.45-2.35h0Z"/>
    <path class="cls-9" d="M135.15,180.35c-1.41,0-2.55-1.1-2.55-2.45s1.14-2.45,2.55-2.45,2.55,1.1,2.55,2.45-1.15,2.45-2.55,2.45Zm0-4.69c-1.29,0-2.34,1.01-2.34,2.24s1.05,2.24,2.34,2.24,2.35-1.01,2.35-2.24-1.05-2.24-2.35-2.24Z"/>
  </g>
  <g>
    <path class="cls-2" d="M140.45,158.85c1.35,0,2.45,1.05,2.45,2.35s-1.1,2.35-2.45,2.35-2.45-1.05-2.45-2.35,1.1-2.35,2.45-2.35h0Z"/>
    <path class="cls-9" d="M140.45,163.65c-1.41,0-2.55-1.1-2.55-2.45s1.15-2.45,2.55-2.45,2.55,1.1,2.55,2.45-1.14,2.45-2.55,2.45Zm0-4.69c-1.29,0-2.34,1.01-2.34,2.24s1.05,2.24,2.34,2.24,2.34-1.01,2.34-2.24-1.05-2.24-2.34-2.24Z"/>
  </g>
  <g>
    <path class="cls-2" d="M133.1,158.99c1.35,0,2.45,1.05,2.45,2.35s-1.1,2.35-2.45,2.35-2.45-1.05-2.45-2.35,1.1-2.35,2.45-2.35h0Z"/>
    <path class="cls-9" d="M133.1,163.79c-1.41,0-2.55-1.1-2.55-2.45s1.14-2.45,2.55-2.45,2.55,1.1,2.55,2.45-1.14,2.45-2.55,2.45Zm0-4.69c-1.29,0-2.34,1.01-2.34,2.24s1.05,2.24,2.34,2.24,2.34-1.01,2.34-2.24-1.05-2.24-2.34-2.24Z"/>
  </g>
  <g>
    <path class="cls-2" d="M139.9,165.23c1.35,0,2.45,1.05,2.45,2.35s-1.1,2.35-2.45,2.35-2.45-1.05-2.45-2.35,1.1-2.35,2.45-2.35h0Z"/>
    <path class="cls-9" d="M139.9,170.03c-1.41,0-2.55-1.1-2.55-2.45s1.15-2.45,2.55-2.45,2.55,1.1,2.55,2.45-1.14,2.45-2.55,2.45Zm0-4.69c-1.29,0-2.34,1.01-2.34,2.24s1.05,2.24,2.34,2.24,2.34-1.01,2.34-2.24-1.05-2.24-2.34-2.24Z"/>
  </g>
  <g>
    <path class="cls-2" d="M130.36,167.32c1.35,0,2.45,1.05,2.45,2.35s-1.1,2.35-2.45,2.35-2.45-1.05-2.45-2.35,1.1-2.35,2.45-2.35h0Z"/>
    <path class="cls-9" d="M130.36,172.12c-1.41,0-2.55-1.1-2.55-2.45s1.14-2.45,2.55-2.45,2.55,1.1,2.55,2.45-1.15,2.45-2.55,2.45Zm0-4.7c-1.29,0-2.34,1.01-2.34,2.24s1.05,2.24,2.34,2.24,2.35-1.01,2.35-2.24-1.05-2.24-2.35-2.24Z"/>
  </g>
  <g>
    <path class="cls-2" d="M133.31,171.07c1.35,0,2.45,1.05,2.45,2.35s-1.1,2.35-2.45,2.35-2.45-1.05-2.45-2.35,1.1-2.35,2.45-2.35h0Z"/>
    <path class="cls-9" d="M133.31,175.87c-1.41,0-2.55-1.1-2.55-2.45s1.15-2.45,2.55-2.45,2.55,1.1,2.55,2.45-1.15,2.45-2.55,2.45Zm0-4.69c-1.29,0-2.34,1.01-2.34,2.24s1.05,2.24,2.34,2.24,2.34-1.01,2.34-2.24-1.05-2.24-2.34-2.24Z"/>
  </g>
  <g>
    <path class="cls-2" d="M140.78,168.6c1.35,0,2.45,1.05,2.45,2.35s-1.1,2.35-2.45,2.35-2.45-1.05-2.45-2.35,1.1-2.35,2.45-2.35h0Z"/>
    <path class="cls-9" d="M140.78,173.4c-1.41,0-2.55-1.1-2.55-2.45s1.15-2.45,2.55-2.45,2.55,1.1,2.55,2.45-1.15,2.45-2.55,2.45Zm0-4.69c-1.29,0-2.34,1.01-2.34,2.24s1.05,2.24,2.34,2.24,2.34-1.01,2.34-2.24-1.05-2.24-2.34-2.24Z"/>
  </g>
  <g>
    <path class="cls-2" d="M127.46,161.18c1.35,0,2.45,1.05,2.45,2.35s-1.1,2.35-2.45,2.35-2.45-1.05-2.45-2.35,1.1-2.35,2.45-2.35h0Z"/>
    <path class="cls-9" d="M127.46,165.98c-1.41,0-2.55-1.1-2.55-2.45s1.15-2.45,2.55-2.45,2.55,1.1,2.55,2.45-1.15,2.45-2.55,2.45Zm0-4.69c-1.29,0-2.34,1.01-2.34,2.24s1.05,2.24,2.34,2.24,2.34-1.01,2.34-2.24-1.05-2.24-2.34-2.24Z"/>
  </g>
  <g>
    <path class="cls-1" d="M109.19,177.77c2.47,2.37,3.95,5.11,4.44,8.2,.5,3.17-.04,6.71-1.61,10.63,.1,.06,.12,.17,.2,.21,1.17,.48,1.59,1.09,2.97,.4l.12-.06c.13-.5,.25-1,.37-1.52,.09-.39,.17-.78,.25-1.18,.13-.66,.23-1.31,.31-1.94,.15-1.21,.21-2.35,.18-3.43-.14-5.44-2.55-9.21-7.22-11.31Z"/>
    <path class="cls-9" d="M114.09,197.62c-.45,0-.81-.18-1.23-.4-.21-.11-.43-.21-.68-.32-.07-.03-.11-.09-.14-.13-.02-.03-.04-.06-.07-.08l-.07-.05,.03-.08c1.56-3.89,2.1-7.45,1.61-10.58-.48-3.06-1.97-5.8-4.41-8.14l-.43-.42,.55,.25c4.69,2.11,7.14,5.94,7.28,11.4,.03,1.08-.03,2.23-.18,3.45-.08,.65-.19,1.3-.31,1.94-.08,.4-.16,.8-.25,1.19-.11,.48-.23,.98-.37,1.53v.05s-.18,.08-.18,.08c-.46,.23-.82,.32-1.14,.32Zm-1.95-1.05s.05,.06,.06,.08c.02,.03,.04,.05,.05,.06,.27,.11,.5,.22,.7,.33,.7,.35,1.16,.59,2.18,.08l.08-.04c.14-.52,.25-1.01,.36-1.47,.09-.39,.17-.78,.25-1.18,.12-.63,.22-1.28,.31-1.93,.15-1.2,.21-2.35,.18-3.41-.13-5.16-2.36-8.84-6.61-10.96,2.22,2.28,3.58,4.91,4.04,7.83,.5,3.15-.04,6.72-1.59,10.62Z"/>
  </g>
  <g>
    <path class="cls-2" d="M132.75,118.05c1.35,0,2.45,1.05,2.45,2.35s-1.1,2.35-2.45,2.35-2.45-1.05-2.45-2.35,1.1-2.35,2.45-2.35h0Z"/>
    <path class="cls-9" d="M132.75,122.85c-1.41,0-2.55-1.1-2.55-2.45s1.14-2.45,2.55-2.45,2.55,1.1,2.55,2.45-1.15,2.45-2.55,2.45Zm0-4.69c-1.29,0-2.34,1.01-2.34,2.24s1.05,2.24,2.34,2.24,2.34-1.01,2.34-2.24-1.05-2.24-2.34-2.24Z"/>
  </g>
  <g>
    <path class="cls-2" d="M130.99,121.73c1.35,0,2.45,1.05,2.45,2.35s-1.1,2.35-2.45,2.35-2.45-1.05-2.45-2.35,1.1-2.35,2.45-2.35h0Z"/>
    <path class="cls-9" d="M130.99,126.53c-1.41,0-2.55-1.1-2.55-2.45s1.15-2.45,2.55-2.45,2.55,1.1,2.55,2.45-1.15,2.45-2.55,2.45Zm0-4.69c-1.29,0-2.34,1.01-2.34,2.24s1.05,2.24,2.34,2.24,2.34-1.01,2.34-2.24-1.05-2.24-2.34-2.24Z"/>
  </g>
  <g>
    <path class="cls-2" d="M132.21,165.78c1.35,0,2.45,1.05,2.45,2.35s-1.1,2.35-2.45,2.35-2.45-1.05-2.45-2.35,1.1-2.35,2.45-2.35h0Z"/>
    <path class="cls-9" d="M132.21,170.58c-1.41,0-2.55-1.1-2.55-2.45s1.15-2.45,2.55-2.45,2.55,1.1,2.55,2.45-1.15,2.45-2.55,2.45Zm0-4.7c-1.29,0-2.34,1.01-2.34,2.24s1.05,2.24,2.34,2.24,2.34-1.01,2.34-2.24-1.05-2.24-2.34-2.24Z"/>
  </g>
  <g>
    <path class="cls-2" d="M136.77,165.65c1.35,0,2.45,1.05,2.45,2.35s-1.1,2.35-2.45,2.35-2.45-1.05-2.45-2.35,1.1-2.35,2.45-2.35h0Z"/>
    <path class="cls-9" d="M136.77,170.45c-1.41,0-2.55-1.1-2.55-2.45s1.15-2.45,2.55-2.45,2.55,1.1,2.55,2.45-1.14,2.45-2.55,2.45Zm0-4.69c-1.29,0-2.34,1.01-2.34,2.24s1.05,2.24,2.34,2.24,2.34-1.01,2.34-2.24-1.05-2.24-2.34-2.24Z"/>
  </g>
  <g>
    <path class="cls-2" d="M137.37,159.17c1.35,0,2.45,1.05,2.45,2.35s-1.1,2.35-2.45,2.35-2.45-1.05-2.45-2.35,1.1-2.35,2.45-2.35h0Z"/>
    <path class="cls-9" d="M137.37,163.97c-1.41,0-2.55-1.1-2.55-2.45s1.15-2.45,2.55-2.45,2.55,1.1,2.55,2.45-1.14,2.45-2.55,2.45Zm0-4.69c-1.29,0-2.34,1.01-2.34,2.24s1.05,2.24,2.34,2.24,2.34-1.01,2.34-2.24-1.05-2.24-2.34-2.24Z"/>
  </g>
  <g>
    <path class="cls-2" d="M133.76,162.16c1.35,0,2.45,1.05,2.45,2.35s-1.1,2.35-2.45,2.35-2.45-1.05-2.45-2.35,1.1-2.35,2.45-2.35h0Z"/>
    <path class="cls-9" d="M133.76,166.96c-1.41,0-2.55-1.1-2.55-2.45s1.15-2.45,2.55-2.45,2.55,1.1,2.55,2.45-1.14,2.45-2.55,2.45Zm0-4.69c-1.29,0-2.34,1.01-2.34,2.24s1.05,2.24,2.34,2.24,2.34-1.01,2.34-2.24-1.05-2.24-2.34-2.24Z"/>
  </g>
  <g>
    <path class="cls-2" d="M130.43,163.43c1.35,0,2.45,1.05,2.45,2.35s-1.1,2.35-2.45,2.35-2.45-1.05-2.45-2.35,1.1-2.35,2.45-2.35h0Z"/>
    <path class="cls-9" d="M130.43,168.23c-1.41,0-2.55-1.1-2.55-2.45s1.15-2.45,2.55-2.45,2.55,1.1,2.55,2.45-1.14,2.45-2.55,2.45Zm0-4.69c-1.29,0-2.34,1.01-2.34,2.24s1.05,2.24,2.34,2.24,2.34-1.01,2.34-2.24-1.05-2.24-2.34-2.24Z"/>
  </g>
  <g>
    <path class="cls-2" d="M135.3,168.41c1.35,0,2.45,1.05,2.45,2.35s-1.1,2.35-2.45,2.35-2.45-1.05-2.45-2.35,1.1-2.35,2.45-2.35h0Z"/>
    <path class="cls-9" d="M135.3,173.21c-1.41,0-2.55-1.1-2.55-2.45s1.15-2.45,2.55-2.45,2.55,1.1,2.55,2.45-1.14,2.45-2.55,2.45Zm0-4.69c-1.29,0-2.34,1.01-2.34,2.24s1.05,2.24,2.34,2.24,2.34-1.01,2.34-2.24-1.05-2.24-2.34-2.24Z"/>
  </g>
  <g>
    <path class="cls-2" d="M139.36,162.27c1.35,0,2.45,1.05,2.45,2.35s-1.1,2.35-2.45,2.35-2.45-1.05-2.45-2.35,1.1-2.35,2.45-2.35h0Z"/>
    <path class="cls-9" d="M139.36,167.07c-1.41,0-2.55-1.1-2.55-2.45s1.15-2.45,2.55-2.45,2.55,1.1,2.55,2.45-1.14,2.45-2.55,2.45Zm0-4.69c-1.29,0-2.34,1.01-2.34,2.24s1.05,2.24,2.34,2.24,2.34-1.01,2.34-2.24-1.05-2.24-2.34-2.24Z"/>
  </g>
  <g>
    <path class="cls-2" d="M94.03,164.98c1.35,0,2.45,1.05,2.45,2.35s-1.1,2.35-2.45,2.35-2.45-1.05-2.45-2.35,1.1-2.35,2.45-2.35h0Z"/>
    <path class="cls-9" d="M94.03,169.77c-1.41,0-2.55-1.1-2.55-2.45s1.15-2.45,2.55-2.45,2.55,1.1,2.55,2.45-1.14,2.45-2.55,2.45Zm0-4.69c-1.29,0-2.34,1.01-2.34,2.24s1.05,2.24,2.34,2.24,2.34-1.01,2.34-2.24-1.05-2.24-2.34-2.24Z"/>
  </g>
  <g>
    <path class="cls-2" d="M98.3,166.54c1.35,0,2.45,1.05,2.45,2.35s-1.1,2.35-2.45,2.35-2.45-1.05-2.45-2.35,1.1-2.35,2.45-2.35h0Z"/>
    <path class="cls-9" d="M98.3,171.34c-1.41,0-2.55-1.1-2.55-2.45s1.15-2.45,2.55-2.45,2.55,1.1,2.55,2.45-1.14,2.45-2.55,2.45Zm0-4.69c-1.29,0-2.34,1.01-2.34,2.24s1.05,2.24,2.34,2.24,2.34-1.01,2.34-2.24-1.05-2.24-2.34-2.24Z"/>
  </g>
  <g>
    <path class="cls-2" d="M100.77,169.67c1.35,0,2.45,1.05,2.45,2.35s-1.1,2.35-2.45,2.35-2.45-1.05-2.45-2.35,1.1-2.35,2.45-2.35h0Z"/>
    <path class="cls-9" d="M100.77,174.47c-1.41,0-2.55-1.1-2.55-2.45s1.15-2.45,2.55-2.45,2.55,1.1,2.55,2.45-1.14,2.45-2.55,2.45Zm0-4.69c-1.29,0-2.34,1.01-2.34,2.24s1.05,2.24,2.34,2.24,2.34-1.01,2.34-2.24-1.05-2.24-2.34-2.24Z"/>
  </g>
  <g>
    <path class="cls-2" d="M89.13,163.72c1.35,0,2.45,1.05,2.45,2.35s-1.1,2.35-2.45,2.35-2.45-1.05-2.45-2.35,1.1-2.35,2.45-2.35h0Z"/>
    <path class="cls-9" d="M89.13,168.52c-1.41,0-2.55-1.1-2.55-2.45s1.14-2.45,2.55-2.45,2.55,1.1,2.55,2.45-1.14,2.45-2.55,2.45Zm0-4.69c-1.29,0-2.34,1.01-2.34,2.24s1.05,2.24,2.34,2.24,2.34-1.01,2.34-2.24-1.05-2.24-2.34-2.24Z"/>
  </g>
  <g>
    <g>
      <path class="cls-1" d="M115.44,196.71s0-.03,.01-.04c0,0,0,0,0,0v.05Z"/>
      <polygon class="cls-9" points="115.45 196.77 115.4 196.76 115.42 196.71 115.33 196.69 115.36 196.56 115.58 196.56 115.54 196.74 115.45 196.72 115.45 196.77"/>
    </g>
    <g>
      <path class="cls-1" d="M92.86,121.01c.2,.64,.45,1.26,.75,1.85-.27-.62-.52-1.24-.75-1.85Z"/>
      <path class="cls-9" d="M93.51,122.91c-.31-.6-.56-1.23-.76-1.87l.2-.07c.21,.56,.45,1.16,.75,1.85l-.19,.09Z"/>
    </g>
    <g>
      <path class="cls-1" d="M116.16,156.29c0-4.59-.95-7.89,.83-12.42,3.46-8.81,3.05-24.31-2.69-33.09l-1,1.56c5.67,8.72,3.18,25.37-.35,33.32-1.66,.2-3.32-12.51-3.62-14.41-.92-5.96,1.54-14.39,4.03-19.16,1.24-2.38,4.7-4.75,7.36-5.36,1.54-.36,4.46-1.19,6.43-.38,1.52,.62,3.31,2.96,3.31,2.87-.01,0,.54,.33,.58,.33v.19h.1c0,.09,.05,0,.05,.09,.1,0,.15,.05,.2,.05,.24,.46,1.31,.38,1.79,.38-1.12-1.12,.6,.6-3.46-3.74-2.7-2.89-6.63-2.37-10.04-1.19,1.82-5.1,15.03-2.8,20.84-14.79-2,2.52-7.8,8.96-14.82,9.44-4.43,.3-7.79,3.7-10.78,7.22-.98-5.92-8.07-7.09-12.95-5.65l-1.36,.87c-.41-.12-3.37,1.76-3.18,1.66-6.85,4.62-7.01,10.38-4.56,16.95-2.13-6.94,1.87-16.24,9.84-17.6l2.44-.57c5.22-.64,7.64,2.35,8.53,5.89-11.48,14.8-7,31.28-2.17,47.25l.36,.45c.23,.2,.36,.35,.36,.45l-.36-.45c-2.06-1.77-12.4-7.22-14.35-9.09-3.01-2.89-6.84-8.71-6.84-13.21,0,7.06,3.76,13.29,9.74,17.28,4.83,3.23-4.71-1.3-4.07,6.34,.07,.05-.02,1.4,.35,.65,.28-.58,.7-.59,.7-1.23h.01c0-7.25,13.44,3.1,14.82,5.77,5.2,10.05,6.04,22.89,3.22,33.73,1.48,.47,5.04,2.46,5.62,.55,4.75-15.6-2.84-27.67-2.84-35.77,0-4.27,2.12-5.13,4.97-7.55,4.9-4.16,9.11-.46,9.9,.97,0,0,.01,0,.02,0h-.01s0,0-.01,0c-.02,.02-.02,.08-.02,.08,0,.99,.37-.5,.37-.99,0-2.63-8.71-2.97-6.73-5.72,1.96-2.73,1.37-4.87,8.29-11.03,.67-.6,4.64-1.79,3.83-1.79-10.61,0-14.46,16.92-22.69,20.86Z"/>
      <path class="cls-9" d="M119.8,198.14c-.97,0-2.24-.52-3.31-.96-.42-.17-.78-.32-1.07-.41l-.09-.03,.02-.1c2.97-11.44,1.77-24.02-3.21-33.65-1.09-2.1-9.79-8.99-13.22-8.17-.93,.23-1.4,1.02-1.4,2.36v.15h-.02c-.04,.32-.19,.48-.36,.65-.12,.12-.24,.25-.35,.47-.08,.16-.18,.3-.3,.28-.16-.03-.18-.28-.21-.69,0-.08,0-.18-.02-.22h-.01s0-.06,0-.06c-.13-1.57,.16-2.79,.86-3.61,1.02-1.2,2.71-1.33,3.72-1.41,.35-.03,.83-.06,.86-.15,.02-.07-.13-.29-1.32-1.09-6.22-4.16-9.79-10.49-9.79-17.37h.21c0,4.56,3.98,10.42,6.81,13.13,1.03,.99,4.44,3,7.73,4.93,2.46,1.45,4.81,2.83,6.05,3.72-2.57-8.52-4.72-16.22-5-24-.32-8.95,2.03-16.54,7.19-23.21-.77-3.02-2.85-6.45-8.4-5.76l-2.43,.57c-3.31,.56-6.18,2.58-8.09,5.68-2.18,3.54-2.82,8.05-1.67,11.79l-.2,.07c-2.88-7.72-1.46-12.98,4.6-17.07h0s0,0,0,0h0s0,0,0,0c.36-.24,2.63-1.68,3.2-1.68h0l1.36-.86c3.46-1.02,7.35-.64,9.9,.96,1.71,1.07,2.76,2.6,3.14,4.55,2.81-3.3,6.19-6.78,10.71-7.09,6.93-.47,12.62-6.73,14.74-9.4l.59-.74-.41,.85c-3.5,7.22-9.56,9.25-14.43,10.88-3.07,1.03-5.51,1.84-6.32,3.69,4.48-1.49,7.73-1.07,9.94,1.29,2.44,2.61,2.8,3.03,2.93,3.19q.08,.1,.46,.48l.24,.24h-.25c-.06,0-.12,0-.19,0-.56,.01-1.39,.02-1.67-.39-.01,0-.03,0-.04-.01-.03-.01-.06-.02-.1-.02h-.1v-.07s-.02-.01-.02-.02h-.13v-.23c-.14-.07-.37-.2-.49-.28-.05,0-.11-.07-.32-.31-.56-.63-1.86-2.1-3.01-2.57-1.76-.72-4.36-.09-5.92,.28-.16,.04-.31,.07-.45,.11-2.01,.47-4.7,2.04-6.33,3.93,2.67,4.1,4.37,9.98,4.79,16.55,.39,6.14-.38,12.19-2.11,16.6-1.29,3.29-1.14,5.89-.96,8.91,.06,1.05,.13,2.13,.13,3.3,3.35-1.68,5.94-5.48,8.68-9.5,3.78-5.56,7.69-11.3,13.91-11.3,.06,0,.19,0,.21,.11,.03,.15-.11,.22-1.45,.73-.97,.37-2.19,.83-2.52,1.13-4.9,4.36-5.99,6.65-6.96,8.66-.38,.8-.74,1.55-1.32,2.35-.25,.34-.32,.65-.24,.94,.24,.81,1.77,1.4,3.24,1.97,1.84,.72,3.75,1.46,3.75,2.75,0,.14-.15,1.43-.42,1.43-.15,0-.16-.19-.16-.44,0-.03,0-.05,0-.07-.44-.74-1.97-2.3-4.15-2.7-1.89-.34-3.77,.26-5.57,1.8-.46,.39-.9,.74-1.32,1.08-2.18,1.72-3.61,2.86-3.61,6.39,0,2.66,.81,5.72,1.76,9.26,1.9,7.15,4.27,16.05,1.08,26.54-.11,.35-.31,.6-.61,.74-.22,.1-.48,.15-.76,.15Zm-4.22-1.54c.28,.09,.61,.23,.99,.39,1.27,.52,3.02,1.23,3.9,.81,.25-.12,.41-.32,.5-.61,3.17-10.43,.82-19.29-1.08-26.42-.95-3.56-1.76-6.63-1.76-9.32,0-3.63,1.55-4.86,3.69-6.56,.42-.33,.86-.68,1.32-1.07,1.86-1.58,3.79-2.2,5.75-1.85,2.11,.38,3.68,1.82,4.24,2.73h0s.04,.07,.04,.07l.05,.04c.07-.28,.14-.64,.14-.85,0-1.15-1.84-1.86-3.62-2.55-1.59-.62-3.1-1.2-3.37-2.11-.1-.35-.01-.73,.27-1.12,.56-.78,.92-1.53,1.3-2.31,.93-1.93,2.08-4.34,7.01-8.73,.36-.32,1.54-.77,2.58-1.17,.4-.15,.83-.32,1.09-.43-5.98,.14-9.81,5.76-13.51,11.21-2.79,4.1-5.43,7.97-8.91,9.64l-.15,.07v-.17c0-1.23-.07-2.36-.13-3.45-.18-3.04-.34-5.67,.97-9,3.34-8.5,3.08-24.03-2.59-32.86l-.88,1.37c5.5,8.55,3.28,25.14-.38,33.36l-.02,.05h-.06c-1.1,.13-2.24-4.21-3.61-13.68-.05-.35-.09-.63-.12-.81-.89-5.75,1.42-14.2,4.04-19.23,1.31-2.51,4.9-4.83,7.43-5.42,.14-.03,.29-.07,.45-.11,1.58-.38,4.22-1.01,6.05-.27,1.19,.49,2.52,1.98,3.09,2.62,.11,.12,.21,.24,.23,.26l-.06,.08h0s.06-.07,.06-.07c.05,.04,.48,.29,.54,.31h.1l-.02,.1v.09h.1v.07s.02,.02,.03,.03c.04,0,.07,.02,.09,.03,.01,0,.02,0,.03,.01h.06l.03,.06c.18,.33,.98,.33,1.45,.33-.28-.28-.29-.29-.37-.38-.13-.16-.49-.58-2.93-3.18-2.18-2.33-5.43-2.71-9.93-1.16l-.21,.07,.07-.2c.75-2.09,3.3-2.95,6.53-4.03,4.63-1.55,10.35-3.46,13.86-9.9-2.5,2.96-7.85,8.28-14.27,8.71-4.51,.3-7.89,3.87-10.71,7.18l-.15,.17-.04-.22c-.33-2-1.37-3.55-3.08-4.63-2.5-1.57-6.32-1.94-9.72-.94l-1.39,.89h-.05c-.29-.1-2.83,1.43-3.09,1.63h0c-5.46,3.69-7.09,8.35-5.15,14.95-.47-3.34,.28-7.02,2.13-10.02,1.94-3.15,4.86-5.2,8.23-5.77l2.44-.57c6.05-.75,8.02,3.42,8.65,5.96v.05s-.02,.04-.02,.04c-11.8,15.21-6.68,32.17-2.16,47.14l.35,.43c.27,.23,.38,.38,.38,.51v.29l-.55-.68c-.94-.8-3.68-2.41-6.57-4.12-3.3-1.94-6.72-3.95-7.77-4.96-2.31-2.21-5.37-6.51-6.46-10.52,.82,5.72,4.18,10.87,9.5,14.43,1.26,.84,1.46,1.11,1.41,1.32-.06,.23-.43,.26-1.04,.3-1.04,.08-2.61,.2-3.58,1.34-.66,.78-.93,1.93-.81,3.44,.02,.05,.03,.14,.04,.31,0,.12,.02,.34,.05,.45,.02-.03,.04-.07,.07-.12,.12-.24,.26-.39,.39-.52,.18-.18,.31-.32,.31-.66v-.15h.02c.04-1.35,.56-2.16,1.56-2.41,3.7-.9,12.41,6.27,13.45,8.27,4.99,9.65,6.21,22.24,3.25,33.71Zm-2.3-84.11c-2.53,5.04-4.7,13.17-3.84,18.74,.03,.18,.07,.46,.12,.81,1.59,10.98,2.68,13.45,3.32,13.51,3.61-8.19,5.81-24.58,.39-33.06Z"/>
    </g>
    <g>
      <path class="cls-1" d="M94.08,123.69c.05,.08,.1,.17,.16,.26,0-.19-.05-.24-.16-.26Z"/>
      <path class="cls-9" d="M94.34,124.28l-.19-.28c-.04-.05-.07-.11-.1-.16l-.18-.29,.22,.03c.22,.03,.25,.2,.25,.36v.34Z"/>
    </g>
    <g>
      <path class="cls-1" d="M94.08,123.69c-.17-.27-.32-.54-.47-.82,.12,.27,.23,.54,.36,.82,.04,0,.08,0,.11,0Z"/>
      <path class="cls-9" d="M94.28,123.82l-.22-.03s-.06,0-.1,0h-.07l-.03-.06c-.09-.2-.18-.4-.26-.6l-.1-.22,.19-.09c.14,.28,.3,.55,.46,.82l.12,.19Z"/>
    </g>
  </g>
  <g>
    <path class="cls-2" d="M96.24,157.15c1.35,0,2.45,1.05,2.45,2.35s-1.1,2.35-2.45,2.35-2.45-1.05-2.45-2.35,1.1-2.35,2.45-2.35h0Z"/>
    <path class="cls-9" d="M96.24,161.95c-1.41,0-2.55-1.1-2.55-2.45s1.15-2.45,2.55-2.45,2.55,1.1,2.55,2.45-1.14,2.45-2.55,2.45Zm0-4.69c-1.29,0-2.34,1.01-2.34,2.24s1.05,2.24,2.34,2.24,2.34-1.01,2.34-2.24-1.05-2.24-2.34-2.24Z"/>
  </g>
  <g>
    <path class="cls-2" d="M96.74,159.92c1.35,0,2.45,1.05,2.45,2.35s-1.1,2.35-2.45,2.35-2.45-1.05-2.45-2.35,1.1-2.35,2.45-2.35h0Z"/>
    <path class="cls-9" d="M96.74,164.72c-1.41,0-2.55-1.1-2.55-2.45s1.15-2.45,2.55-2.45,2.55,1.1,2.55,2.45-1.14,2.45-2.55,2.45Zm0-4.69c-1.29,0-2.34,1.01-2.34,2.24s1.05,2.24,2.34,2.24,2.34-1.01,2.34-2.24-1.05-2.24-2.34-2.24Z"/>
  </g>
  <g>
    <path class="cls-2" d="M99.06,163.06c1.35,0,2.45,1.05,2.45,2.35s-1.1,2.35-2.45,2.35-2.45-1.05-2.45-2.35,1.1-2.35,2.45-2.35h0Z"/>
    <path class="cls-9" d="M99.06,167.86c-1.41,0-2.55-1.1-2.55-2.45s1.15-2.45,2.55-2.45,2.55,1.1,2.55,2.45-1.14,2.45-2.55,2.45Zm0-4.69c-1.29,0-2.34,1.01-2.34,2.24s1.05,2.24,2.34,2.24,2.34-1.01,2.34-2.24-1.05-2.24-2.34-2.24Z"/>
  </g>
  <g>
    <path class="cls-2" d="M92.48,161.18c1.35,0,2.45,1.05,2.45,2.35s-1.1,2.35-2.45,2.35-2.45-1.05-2.45-2.35,1.1-2.35,2.45-2.35h0Z"/>
    <path class="cls-9" d="M92.48,165.98c-1.41,0-2.55-1.1-2.55-2.45s1.15-2.45,2.55-2.45,2.55,1.1,2.55,2.45-1.14,2.45-2.55,2.45Zm0-4.69c-1.29,0-2.34,1.01-2.34,2.24s1.05,2.24,2.34,2.24,2.34-1.01,2.34-2.24-1.05-2.24-2.34-2.24Z"/>
  </g>
  <g>
    <path class="cls-2" d="M92.32,156.65c1.35,0,2.45,1.05,2.45,2.35s-1.1,2.35-2.45,2.35-2.45-1.05-2.45-2.35,1.1-2.35,2.45-2.35h0Z"/>
    <path class="cls-9" d="M92.32,161.45c-1.41,0-2.55-1.1-2.55-2.45s1.15-2.45,2.55-2.45,2.55,1.1,2.55,2.45-1.14,2.45-2.55,2.45Zm0-4.69c-1.29,0-2.34,1.01-2.34,2.24s1.05,2.24,2.34,2.24,2.34-1.01,2.34-2.24-1.05-2.24-2.34-2.24Z"/>
  </g>
  <g>
    <path class="cls-2" d="M133.73,152.7c1.35,0,2.45,1.05,2.45,2.35s-1.1,2.35-2.45,2.35-2.45-1.05-2.45-2.35,1.1-2.35,2.45-2.35h0Z"/>
    <path class="cls-9" d="M133.73,157.5c-1.41,0-2.55-1.1-2.55-2.45s1.15-2.45,2.55-2.45,2.55,1.1,2.55,2.45-1.15,2.45-2.55,2.45Zm0-4.69c-1.29,0-2.34,1.01-2.34,2.24s1.05,2.24,2.34,2.24,2.34-1.01,2.34-2.24-1.05-2.24-2.34-2.24Z"/>
  </g>
  <g>
    <path class="cls-2" d="M137.08,154.46c1.35,0,2.45,1.05,2.45,2.35s-1.1,2.35-2.45,2.35-2.45-1.05-2.45-2.35,1.1-2.35,2.45-2.35h0Z"/>
    <path class="cls-9" d="M137.08,159.26c-1.41,0-2.55-1.1-2.55-2.45s1.15-2.45,2.55-2.45,2.55,1.1,2.55,2.45-1.15,2.45-2.55,2.45Zm0-4.7c-1.29,0-2.34,1.01-2.34,2.24s1.05,2.24,2.34,2.24,2.34-1.01,2.34-2.24-1.05-2.24-2.34-2.24Z"/>
  </g>
  <g>
    <path class="cls-2" d="M133.44,156.01c1.35,0,2.45,1.05,2.45,2.35s-1.1,2.35-2.45,2.35-2.45-1.05-2.45-2.35,1.1-2.35,2.45-2.35h0Z"/>
    <path class="cls-9" d="M133.44,160.81c-1.41,0-2.55-1.1-2.55-2.45s1.15-2.45,2.55-2.45,2.55,1.1,2.55,2.45-1.14,2.45-2.55,2.45Zm0-4.69c-1.29,0-2.34,1.01-2.34,2.24s1.05,2.24,2.34,2.24,2.34-1.01,2.34-2.24-1.05-2.24-2.34-2.24Z"/>
  </g>
  <g>
    <path class="cls-2" d="M133.19,108.66c1.35,0,2.45,1.05,2.45,2.35s-1.1,2.35-2.45,2.35-2.45-1.05-2.45-2.35,1.1-2.35,2.45-2.35h0Z"/>
    <path class="cls-9" d="M133.19,113.46c-1.41,0-2.55-1.1-2.55-2.45s1.15-2.45,2.55-2.45,2.55,1.1,2.55,2.45-1.14,2.45-2.55,2.45Zm0-4.69c-1.29,0-2.34,1.01-2.34,2.24s1.05,2.24,2.34,2.24,2.34-1.01,2.34-2.24-1.05-2.24-2.34-2.24Z"/>
  </g>
  <g>
    <path class="cls-2" d="M128.54,108.46c1.35,0,2.45,1.05,2.45,2.35s-1.1,2.35-2.45,2.35-2.45-1.05-2.45-2.35,1.1-2.35,2.45-2.35h0Z"/>
    <path class="cls-9" d="M128.54,113.26c-1.41,0-2.55-1.1-2.55-2.45s1.15-2.45,2.55-2.45,2.55,1.1,2.55,2.45-1.15,2.45-2.55,2.45Zm0-4.69c-1.29,0-2.34,1.01-2.34,2.24s1.05,2.24,2.34,2.24,2.34-1.01,2.34-2.24-1.05-2.24-2.34-2.24Z"/>
  </g>
  <g>
    <path class="cls-2" d="M130.52,111.56c1.35,0,2.45,1.05,2.45,2.35s-1.1,2.35-2.45,2.35-2.45-1.05-2.45-2.35,1.1-2.35,2.45-2.35h0Z"/>
    <path class="cls-9" d="M130.52,116.36c-1.41,0-2.55-1.1-2.55-2.45s1.15-2.45,2.55-2.45,2.55,1.1,2.55,2.45-1.14,2.45-2.55,2.45Zm0-4.69c-1.29,0-2.35,1.01-2.35,2.24s1.05,2.24,2.35,2.24,2.34-1.01,2.34-2.24-1.05-2.24-2.34-2.24Z"/>
  </g>
  <g>
    <path class="cls-2" d="M134.76,112.42c1.35,0,2.45,1.05,2.45,2.35s-1.1,2.35-2.45,2.35-2.45-1.05-2.45-2.35,1.1-2.35,2.45-2.35h0Z"/>
    <path class="cls-9" d="M134.76,117.22c-1.41,0-2.55-1.1-2.55-2.45s1.15-2.45,2.55-2.45,2.55,1.1,2.55,2.45-1.14,2.45-2.55,2.45Zm0-4.7c-1.29,0-2.34,1.01-2.34,2.24s1.05,2.24,2.34,2.24,2.34-1.01,2.34-2.24-1.05-2.24-2.34-2.24Z"/>
  </g>
  <g>
    <path class="cls-2" d="M130.68,115.27c1.35,0,2.45,1.05,2.45,2.35s-1.1,2.35-2.45,2.35-2.45-1.05-2.45-2.35,1.1-2.35,2.45-2.35h0Z"/>
    <path class="cls-9" d="M130.68,120.06c-1.41,0-2.55-1.1-2.55-2.45s1.15-2.45,2.55-2.45,2.55,1.1,2.55,2.45-1.14,2.45-2.55,2.45Zm0-4.69c-1.29,0-2.34,1.01-2.34,2.24s1.05,2.24,2.34,2.24,2.34-1.01,2.34-2.24-1.05-2.24-2.34-2.24Z"/>
  </g>
</svg>