<?xml version="1.0" encoding="utf-8"?>
<!-- Generator: Adobe Illustrator 27.4.1, SVG Export Plug-In . SVG Version: 6.00 Build 0)  -->
<svg version="1.1" id="Layer_1" xmlns="http://www.w3.org/2000/svg" xmlns:xlink="http://www.w3.org/1999/xlink" x="0px" y="0px"
	 viewBox="0 0 3913.5 1111.2" style="enable-background:new 0 0 3913.5 1111.2;" xml:space="preserve">
<style type="text/css">
	.st0{opacity:0.23;fill:#231F20;enable-background:new    ;}
	.st1{opacity:0.23;fill:#2D2A2B;enable-background:new    ;}
</style>
<path class="st0" d="M845.4,369.3c-0.4-0.5-1.1-0.6-1.5-0.2c-0.2,0.1-0.3,0.3-0.4,0.5l-4.7,10.1c-0.5,0.8-0.3,1.8,0.4,2.5l24.9,21.5
	c5.2,4.5,11.8,10.1,16.6,13.5l-0.2,0.4c-5.5-1.6-14-3.2-20.7-4.3l-32.7-5.4c-0.9-0.2-1.8,0.3-2.1,1.1l-5.1,11
	c-0.3,0.5,0,1.2,0.5,1.4c0.2,0.1,0.3,0.1,0.5,0.1l67.8,10.1c1,0.2,1.9-0.4,2.2-1.4l6.2-13.3c0.4-0.8,0.2-1.7-0.5-2.3L845.4,369.3z"
	/>
<path class="st0" d="M854.9,354.1l43.9,5.5l21.5,16c0.5,0.5,1.3,0.5,1.8,0c0.1-0.1,0.1-0.1,0.1-0.2l7-9.5c0.5-0.5,0.5-1.4-0.1-1.9
	c-0.1,0-0.1-0.1-0.2-0.1l-21.6-16l-17.9-40.3c-0.4-1-1.5-1.3-2.2-0.4l-7.2,9.7c-0.7,0.6-0.8,1.7-0.3,2.5l12.9,26.2l-28.9-4.7
	c-0.9-0.2-1.8,0.2-2.3,1l-7.6,10.2C853.2,353,853.8,353.9,854.9,354.1"/>
<path class="st0" d="M931.5,282.1c4.7-4.2,8.8-3.7,12.3,0.2l1.2,1.4c3.5,3.9,3.6,8.1-1,12.3l-7.4,6.7l-12.5-13.9L931.5,282.1z
	 M949.5,338.8c0.5,0.6,1.3,0.6,1.9,0.2c0.1,0,0.1-0.1,0.2-0.2l8.7-7.9c0.6-0.4,0.7-1.2,0.3-1.8c-0.1-0.1-0.1-0.2-0.2-0.2l-15.3-17
	l6-5.4l24.1,9.1c0.8,0.4,1.9,0.3,2.5-0.4l9.5-8.6c0.5-0.3,0.6-1,0.3-1.5c-0.2-0.3-0.4-0.4-0.7-0.5l-26.8-9.3
	c3.2-7.4,1.7-15.1-3.9-21.3l-1.9-2.1c-8.2-9.1-19.7-10.2-30.6-0.3l-18,16.2c-0.6,0.4-0.7,1.3-0.3,1.9c0,0.1,0.1,0.1,0.1,0.1
	L949.5,338.8z"/>
<path class="st0" d="M991.9,237.5c8.2-4.7,13.9-1.5,17.6,5l8.8,15.3c3.8,6.5,3.7,13-4.5,17.8c-8.2,4.8-13.8,1.5-17.5-5l-8.8-15.3
	C983.8,248.8,983.7,242.3,991.9,237.5 M983.9,278.2c7.6,13.2,20.7,18.4,36.8,9.1c16.2-9.4,17.8-23.9,10.4-36.8l-9-15.6
	c-7.2-12.5-20.6-18.4-36.9-9c-16.1,9.3-18.1,23.2-10.3,36.7L983.9,278.2z"/>
<path class="st0" d="M1064.1,205.9c5.5-1.8,8.7,0.4,9.9,4l0.2,0.6c1.2,3.6-0.1,7.3-5.7,9.1l-10.1,3.2l-4.4-13.8L1064.1,205.9z
	 M1084.3,236l0.3,1.1c1.5,4.8-1.3,8.2-6.3,9.8l-11,3.6l-5-15.4l11-3.6C1078.5,229.9,1082.7,231.3,1084.3,236 M1056.8,265.7
	c0.2,0.7,0.9,1.1,1.7,0.9c0.1,0,0.1,0,0.2-0.1l25.1-8.1c14.3-4.6,18.5-14.2,15-25l-0.3-1c-2.5-7.9-8.8-12.2-15.9-11.2
	c4.9-4,6.7-10.1,4.6-16.5l-0.3-0.9c-3.3-10.3-11.9-14.7-24.7-10.6l-24.6,7.9c-0.7,0.2-1.2,0.9-1,1.6c0,0.1,0,0.1,0,0.2L1056.8,265.7
	z"/>
<path class="st0" d="M1120.1,249.1l39.1-4.7c0.7,0,1.3-0.6,1.4-1.3c0-0.1,0-0.2,0-0.3l-1.2-10.1c0-0.8-0.7-1.4-1.4-1.3
	c-0.1,0-0.2,0-0.2,0l-26.1,3.1l-1.8-15.4l23.3-2.8c0.7,0,1.3-0.6,1.3-1.4c0-0.1,0-0.2,0-0.3l-1.2-9.6c0-0.8-0.6-1.4-1.4-1.3
	c-0.1,0-0.1,0-0.2,0l-23.3,2.8l-1.7-14.2l26-3.1c0.7,0,1.3-0.6,1.3-1.4c0-0.1,0-0.2,0-0.3l-1.2-10.1c0-0.7-0.7-1.3-1.4-1.3
	c0,0-0.1,0-0.1,0l-39,4.7c-0.7,0-1.3,0.6-1.3,1.3c0,0.1,0,0.1,0,0.2l7.9,65.4c0.1,0.7,0.7,1.3,1.5,1.2
	C1120,249.2,1120,249.2,1120.1,249.1"/>
<path class="st0" d="M1176.6,243.6l11,0.9c0.7,0.2,1.4-0.3,1.6-1c0-0.1,0-0.2,0-0.3l2.8-32.9c0.6-6.6,0.8-12.9,0.7-18.9h0.3
	c1.4,7.1,3.3,14.1,5.6,20.9l11.3,32.1c0.2,1.2,1.2,2.1,2.5,2.2l14.8,1.3c0.9,0.2,1.9-0.4,2.1-1.3c0-0.2,0-0.3,0-0.5l5.6-65.1
	c0.1-0.7-0.3-1.4-1-1.5c-0.1,0-0.2,0-0.3,0l-11-0.9c-0.7-0.2-1.4,0.3-1.6,1c0,0.1,0,0.2,0,0.3l-2.8,32.8c-0.5,6.2-0.7,12.5-0.6,18.7
	h-0.3c-1.3-5.8-3.1-13.6-5.4-20.6l-10.7-32c-0.5-1.4-1-2.1-2.3-2.2l-15.9-1.4c-0.9-0.2-1.9,0.4-2.1,1.3c0,0.2-0.1,0.3,0,0.5
	l-5.6,65.1c-0.1,0.7,0.4,1.4,1.2,1.5C1176.5,243.6,1176.5,243.7,1176.6,243.6"/>
<path class="st0" d="M1246.6,252.3l37.8,11.3c0.6,0.3,1.4,0,1.7-0.6c0-0.1,0.1-0.2,0.1-0.3l3-9.8c0.3-0.7-0.1-1.5-0.8-1.8
	c-0.1,0-0.1-0.1-0.2-0.1l-25.2-7.6l4.4-14.8l22.5,6.7c0.7,0.3,1.4-0.1,1.7-0.7c0-0.1,0.1-0.2,0.1-0.3l2.8-9.3c0.3-0.7,0-1.5-0.7-1.8
	c-0.1,0-0.1,0-0.2-0.1l-22.5-6.8l4.1-13.7l25.1,7.5c0.7,0.3,1.4-0.1,1.7-0.7c0-0.1,0.1-0.2,0.1-0.3l3-9.8c0.2-0.7-0.1-1.5-0.8-1.7
	c-0.1,0-0.1,0-0.2-0.1l-37.7-11.4c-0.7-0.3-1.5,0-1.8,0.7c0,0.1-0.1,0.1-0.1,0.2l-18.9,63.1c-0.2,0.7,0.1,1.5,0.9,1.8
	C1246.5,252.3,1246.5,252.3,1246.6,252.3"/>
<path class="st0" d="M1282,184.7l6.9,2.1c0.7,0.3,1.5,0.1,2.1-0.4l12-7.9c0.8-0.5,0.6-1.5-0.3-1.8l-9.2-2.8c-0.7-0.2-1.4,0-1.8,0.5
	l-10,8.3C1280.9,183.5,1281,184.4,1282,184.7"/>
<path class="st0" d="M1324.5,281.6l9.2,6c0.5,0.5,1.4,0.4,1.8-0.1c0.1-0.1,0.1-0.1,0.2-0.2l18.1-27.6c3.6-5.5,6.8-11,9.6-16.3
	l0.2,0.2c-2.1,6.9-3.8,14-5,21.1l-5.3,33.6c-0.4,1.2,0.1,2.4,1.1,3.1l12.4,8.2c0.7,0.6,1.8,0.6,2.5-0.1c0.1-0.1,0.2-0.3,0.3-0.4
	l35.9-54.6c0.5-0.5,0.4-1.4-0.1-1.8c-0.1-0.1-0.2-0.1-0.3-0.2l-9.3-6.1c-0.6-0.5-1.4-0.4-1.9,0.1c-0.1,0.1-0.1,0.1-0.1,0.2
	l-18.1,27.6c-3.4,5.2-6.6,10.6-9.4,16.2l-0.2-0.1c1.6-5.7,3.7-13.4,5.1-20.7l5.8-33.3c0.2-1.4,0.1-2.3-1-3l-13.3-8.8
	c-0.7-0.6-1.8-0.6-2.5,0.2c-0.1,0.1-0.2,0.3-0.3,0.4l-35.9,54.6c-0.4,0.6-0.3,1.5,0.4,1.9C1324.3,281.6,1324.4,281.6,1324.5,281.6"
	/>
<path class="st0" d="M1417.3,311c6.2-3.2,13.8-7.4,18.6-10.6l0.3,0.3c-3.3,4.7-7.8,12.3-11,18.1l-2.3,4.2l-9.6-9.9L1417.3,311z
	 M1377.6,317.8l7.8,8c0.6,0.7,1.6,0.9,2.4,0.5l13.1-6.8l15.3,15.6l-7.1,12.9c-0.4,0.9-0.5,1.5,0.2,2.3l8.5,8.7
	c0.4,0.4,1.1,0.5,1.6,0c0.1-0.1,0.2-0.3,0.3-0.4l32.5-60.7c0.5-0.9,0.3-1.9-0.5-2.5l-10.2-10.5c-0.6-0.7-1.6-0.8-2.3-0.4l-61.1,31.5
	c-0.6,0.2-0.9,0.8-0.7,1.3C1377.4,317.5,1377.5,317.6,1377.6,317.8"/>
<path class="st0" d="M1505.4,741.5c0.4,0.5,1.1,0.6,1.6,0.2c0.2-0.1,0.3-0.3,0.4-0.5l4.7-10.1c0.5-0.8,0.3-1.8-0.4-2.5l-24.9-21.5
	c-5.2-4.5-11.8-10.1-16.6-13.5l0.2-0.3c6.8,1.8,13.7,3.2,20.7,4.3l32.7,5.4c0.9,0.2,1.8-0.3,2.1-1.1l5.1-11c0.2-0.5,0-1.2-0.5-1.4
	c-0.1-0.1-0.3-0.1-0.5-0.1l-67.8-10.1c-1-0.2-1.9,0.4-2.2,1.4l-6.2,13.2c-0.4,0.8-0.2,1.8,0.5,2.3L1505.4,741.5z"/>
<path class="st0" d="M1495.9,756.7l-43.9-5.5l-21.5-15.9c-0.5-0.5-1.3-0.5-1.8,0c-0.1,0.1-0.1,0.1-0.1,0.2l-7,9.5
	c-0.5,0.5-0.5,1.3,0,1.9c0.1,0.1,0.2,0.1,0.2,0.2l21.6,16l17.9,40.3c0.4,1,1.5,1.3,2.2,0.3l7.2-9.7c0.7-0.7,0.8-1.7,0.3-2.5
	l-12.9-26.2l28.9,4.7c0.9,0.2,1.8-0.2,2.3-1l7.6-10.3C1497.6,757.7,1497,756.9,1495.9,756.7"/>
<path class="st0" d="M1419.3,828.7c-4.7,4.2-8.8,3.7-12.3-0.2l-1.2-1.4c-3.5-3.9-3.6-8.1,1-12.3l7.4-6.7l12.5,13.9L1419.3,828.7z
	 M1401.3,772c-0.5-0.6-1.4-0.6-1.9-0.1c0,0-0.1,0.1-0.1,0.1l-8.7,7.8c-0.6,0.4-0.7,1.2-0.3,1.8c0.1,0.1,0.1,0.2,0.2,0.2l15.3,17
	l-6,5.4l-24.1-9.1c-0.8-0.5-1.9-0.3-2.5,0.4l-9.6,8.6c-0.5,0.3-0.6,1-0.3,1.5c0.2,0.3,0.4,0.4,0.7,0.5l26.8,9.3
	c-3.2,7.3-1.7,15.1,4,21.3l1.9,2.1c8.2,9.1,19.7,10.2,30.6,0.3l18-16.2c0.6-0.4,0.7-1.3,0.3-1.9c0,0-0.1-0.1-0.1-0.1L1401.3,772z"/>
<path class="st0" d="M1358.9,873.4c-8.2,4.7-13.9,1.5-17.6-5l-8.8-15.3c-3.8-6.5-3.7-13,4.5-17.8s13.8-1.5,17.5,5l8.8,15.3
	C1367,862.1,1367.1,868.6,1358.9,873.4 M1366.9,832.7c-7.6-13.2-20.7-18.4-36.8-9.1s-17.8,24-10.4,36.8l9,15.6
	c7.2,12.5,20.6,18.4,36.9,9c16.1-9.3,18.1-23.2,10.3-36.8L1366.9,832.7z"/>
<path class="st0" d="M1286.7,904.9c-5.5,1.8-8.7-0.4-9.9-4l-0.2-0.6c-1.2-3.6,0.1-7.3,5.6-9.1l10.1-3.2l4.4,13.8L1286.7,904.9z
	 M1266.5,874.8l-0.3-1.1c-1.6-4.8,1.3-8.2,6.3-9.8l11-3.5l5,15.4l-11,3.5C1272.3,880.9,1268.1,879.5,1266.5,874.8 M1294,845.1
	c-0.2-0.7-0.9-1.1-1.7-0.9c-0.1,0-0.1,0-0.2,0.1l-25.1,8.1c-14.3,4.6-18.5,14.2-15,25l0.3,1c2.5,7.9,8.8,12.2,15.9,11.3
	c-4.9,4-6.7,10-4.7,16.5l0.3,0.9c3.3,10.3,11.9,14.7,24.7,10.6l24.6-8c0.7-0.2,1.2-0.9,1.1-1.6c0-0.1,0-0.1-0.1-0.2L1294,845.1z"/>
<path class="st0" d="M1230.7,861.7l-39.1,4.7c-0.7,0-1.3,0.6-1.3,1.3c0,0.1,0,0.2,0,0.3l1.2,10.2c0,0.8,0.7,1.4,1.5,1.3
	c0.1,0,0.1,0,0.2,0l26.1-3.1l1.8,15.4l-23.3,2.8c-0.7,0-1.3,0.6-1.3,1.4c0,0.1,0,0.2,0,0.3l1.2,9.6c0,0.7,0.6,1.3,1.4,1.3
	c0.1,0,0.1,0,0.2,0l23.3-2.8l1.7,14.2l-26,3.1c-0.7,0-1.3,0.6-1.3,1.3c0,0.1,0,0.2,0.1,0.3l1.2,10.2c0,0.7,0.7,1.3,1.4,1.2
	c0,0,0.1,0,0.1,0l39-4.7c0.8,0,1.4-0.6,1.4-1.3c0-0.1,0-0.2,0-0.3l-7.9-65.4c-0.1-0.7-0.7-1.3-1.5-1.3
	C1230.9,861.7,1230.8,861.7,1230.7,861.7"/>
<path class="st0" d="M1174.3,867.2l-11-0.9c-0.7-0.2-1.4,0.3-1.6,1c0,0.1,0,0.2,0,0.3l-2.8,32.9c-0.6,6.5-0.7,12.9-0.7,18.9h-0.3
	c-1.4-7.1-3.3-14.1-5.6-20.9l-11.3-32.1c-0.2-1.2-1.2-2.1-2.4-2.2l-14.8-1.3c-0.9-0.2-1.9,0.4-2.1,1.3c0,0.2,0,0.3,0,0.5l-5.6,65.1
	c-0.1,0.7,0.3,1.4,1,1.5c0.1,0,0.2,0,0.3,0l11,0.9c0.7,0.2,1.4-0.3,1.6-1c0-0.1,0-0.2,0-0.3l2.8-32.8c0.5-6.2,0.7-12.5,0.6-18.7h0.3
	c1.3,5.8,3.1,13.5,5.4,20.6l10.7,32c0.4,1.4,0.9,2.1,2.3,2.2l15.9,1.4c0.9,0.2,1.9-0.4,2.1-1.3c0-0.2,0.1-0.3,0-0.5l5.6-65.1
	c0.1-0.7-0.4-1.4-1.2-1.5C1174.3,867.2,1174.3,867.2,1174.3,867.2"/>
<path class="st0" d="M1068.8,926.1l-6.9-2.1c-0.7-0.3-1.5-0.1-2.1,0.4l-12,7.9c-0.8,0.5-0.6,1.5,0.3,1.8l9.2,2.7
	c0.7,0.2,1.4,0,1.8-0.5l10-8.3c0.5-0.3,0.7-0.9,0.4-1.3C1069.4,926.3,1069.1,926.1,1068.8,926.1"/>
<path class="st0" d="M1104.2,858.5l-37.8-11.3c-0.7-0.3-1.4,0-1.8,0.6c0,0.1-0.1,0.2-0.1,0.3l-3,9.8c-0.3,0.7,0.1,1.5,0.8,1.8
	c0.1,0,0.1,0.1,0.2,0.1l25.2,7.5l-4.5,14.8l-22.5-6.8c-0.7-0.3-1.5,0.1-1.7,0.8c0,0.1,0,0.2-0.1,0.2l-2.8,9.3
	c-0.3,0.7,0.1,1.5,0.8,1.8c0.1,0,0.1,0,0.2,0.1l22.5,6.7l-4.1,13.7l-25.1-7.5c-0.7-0.3-1.4,0-1.7,0.7c0,0.1-0.1,0.2-0.1,0.3
	l-2.9,9.8c-0.3,0.7,0.1,1.5,0.8,1.7c0,0,0.1,0,0.1,0l37.7,11.3c0.7,0.3,1.5,0,1.8-0.7c0-0.1,0-0.1,0.1-0.2l18.9-63.1
	c0.2-0.7-0.1-1.5-0.8-1.7C1104.3,858.4,1104.3,858.4,1104.2,858.5"/>
<path class="st0" d="M1026.3,829.2l-9.2-6c-0.5-0.5-1.4-0.4-1.8,0.1c-0.1,0.1-0.1,0.1-0.2,0.2L997,851.2c-3.6,5.5-6.8,11-9.6,16.3
	l-0.2-0.2c2.1-6.9,3.8-14,5-21.1l5.3-33.6c0.4-1.2-0.1-2.4-1.1-3.1l-12.4-8.2c-0.7-0.6-1.8-0.6-2.5,0.2c-0.1,0.1-0.2,0.3-0.3,0.4
	l-35.9,54.6c-0.5,0.5-0.4,1.4,0.1,1.8c0.1,0.1,0.2,0.1,0.3,0.2l9.3,6.1c0.5,0.5,1.4,0.4,1.8-0.1c0.1-0.1,0.1-0.1,0.2-0.2l18.1-27.5
	c3.4-5.2,6.6-10.6,9.4-16.2l0.2,0.2c-1.6,5.7-3.7,13.4-5.1,20.7l-5.8,33.3c-0.2,1.4-0.1,2.3,1,3l13.4,8.7c0.7,0.6,1.8,0.6,2.5-0.2
	c0.1-0.1,0.2-0.3,0.3-0.4l35.9-54.6c0.4-0.6,0.3-1.4-0.3-1.9C1026.5,829.3,1026.4,829.2,1026.3,829.2"/>
<path class="st0" d="M933.5,799.8c-6.2,3.2-13.8,7.4-18.6,10.6l-0.3-0.3c3.3-4.7,7.8-12.3,11-18.1l2.3-4.2l9.7,9.8L933.5,799.8z
	 M973.3,793l-7.8-8c-0.6-0.7-1.6-0.9-2.5-0.5l-13.1,6.8l-15.3-15.6l7.1-12.8c0.4-0.9,0.5-1.5-0.2-2.3l-8.5-8.7
	c-0.4-0.5-1.1-0.5-1.6-0.1c-0.1,0.1-0.2,0.3-0.3,0.4L898.7,813c-0.5,0.8-0.3,1.9,0.5,2.5l10.2,10.5c0.6,0.7,1.6,0.8,2.3,0.3
	l61.1-31.5c0.6-0.2,0.9-0.8,0.7-1.4C973.5,793.3,973.4,793.2,973.3,793"/>
<path class="st0" d="M697.3,675.6c-12.4,2-20-1.4-23.8-11c-1-2.5-2.4-3-5-1.7l-20,10.3c-1.6,0.8-2.3,2.8-1.5,4.4
	c0,0.1,0.1,0.1,0.1,0.2c9.5,20.9,28,29.7,55.1,25.4c29.6-4.8,47.1-26.4,43.3-50.1c-3.2-19.8-15.5-30.2-40.7-34.5
	c-26.2-4.5-32.1-6.6-33.2-13.9c-1.1-7,4.8-12.8,15-14.4c9.6-1.6,16.1,1,20.9,8.4c1.5,2.2,3.1,2.5,5.1,1.3l18.5-10.2
	c2.6-1.4,3.2-2.8,2.1-4.9c-9.6-18.2-28-25.9-51.9-22.1c-28.4,4.6-44.7,26.2-41.2,47.7c3.5,21.7,16.3,31.6,47.2,37.1
	c20.5,3.5,25.6,5.8,26.7,12.6C715.2,667.6,708.6,673.8,697.3,675.6"/>
<path class="st0" d="M851.4,647.2l-50,8.1l-16.8-103.8c0-1.5-1.3-2.6-2.8-2.6c-0.2,0-0.5,0-0.7,0.1l-25.4,4.1
	c-1.5,0.1-2.7,1.4-2.6,2.9c0,0.2,0,0.3,0.1,0.5l20.9,129.7c0.1,1.5,1.4,2.7,3,2.6c0.2,0,0.3,0,0.5-0.1l78.6-12.7
	c1.4-0.4,2.4-1.7,2.1-3.2l-3.7-22.8C854.4,648.1,853.3,646.9,851.4,647.2"/>
<path class="st0" d="M907.9,556c18.3-3,25.5,7.3,27.7,20.8l5.3,33c2.2,13.5-1.4,25.5-19.8,28.5c-18.5,3-25.5-7.3-27.7-20.8l-5.3-33
	C885.9,570.9,889.3,558.9,907.9,556 M925.8,667.2c38.2-6.2,51.1-33.3,46.4-62.4l-5.4-33.7c-4.6-28.4-25.4-50.1-63.5-44
	c-38,6.1-51.4,31.7-46.4,62.4l5.5,33.8C867.1,653.2,887.8,673.3,925.8,667.2"/>
<path class="st0" d="M1035.1,647.3l31.5-5.1c1.9-0.2,3.3-1.7,3.4-3.6l16.8-135.4c0.3-1.8-0.7-3.3-2.8-3l-24.1,3.9
	c-2,0.1-3.6,1.7-3.8,3.6l-6.9,62.3c-1.6,14-3.3,31.5-3.3,43.1l-0.7,0.1c-3.3-10.9-10.5-27.2-16-39.4l-26.4-57.6
	c-1.1-1.9-2-2.7-4.2-2.4l-26.1,4.2c-1.2,0.2-2.1,1.3-2,2.5c0.1,0.4,0.2,0.8,0.5,1.1l59.2,123.2
	C1031.3,646.9,1032.5,647.7,1035.1,647.3"/>
<path class="st0" d="M1193.9,508.2l-3.5-22.1c-0.1-1.5-1.4-2.7-2.9-2.6c-0.2,0-0.3,0-0.5,0.1l-79.1,12.7c-1.5,0.1-2.7,1.4-2.6,2.9
	c0,0.2,0,0.3,0.1,0.5l20.9,129.7c0.1,1.5,1.4,2.7,2.9,2.6c0.2,0,0.4,0,0.5-0.1l79.5-12.8c1.5,0,2.6-1.3,2.6-2.8c0-0.2,0-0.5-0.1-0.7
	l-3.6-22.1c-0.1-1.5-1.4-2.7-2.9-2.6c-0.2,0-0.3,0-0.5,0.1l-51.2,8.2l-4.4-27.6l45.4-7.3c1.5,0,2.6-1.3,2.6-2.8c0-0.2,0-0.5-0.1-0.7
	l-3.4-20.9c-0.1-1.5-1.4-2.7-2.9-2.6c-0.2,0-0.3,0-0.5,0.1l-45.4,7.3l-4.1-25.2l50.8-8.2c1.5,0,2.6-1.3,2.6-2.7
	C1194,508.6,1194,508.4,1193.9,508.2"/>
<path class="st0" d="M1270.1,545.8l34.5,54c1.5,2.4,3.3,3.7,6,3.2l31.9-5.1c2.1-0.1,3.7-1.9,3.5-3.9c0-0.3-0.1-0.5-0.1-0.8
	l-20.7-128.7c-0.1-1.5-1.4-2.7-2.9-2.6c-0.2,0-0.4,0-0.5,0.1l-23.9,3.8c-1.5,0-2.7,1.3-2.6,2.8c0,0.2,0,0.5,0.1,0.7l10,62.1
	c2,12.5,4.7,24.8,8,36.9l-0.6,0.1c-4.9-10.6-12-25.3-20-38l-33.2-54.2c-1.5-2.4-3.1-3.7-5.8-3.2l-34.1,5.5c-2.1,0.1-3.7,1.9-3.5,3.9
	c0,0.3,0.1,0.5,0.1,0.8l20.7,128.6c0.1,1.5,1.4,2.7,2.9,2.6c0.2,0,0.3,0,0.5-0.1l23.9-3.8c1.5,0,2.6-1.3,2.6-2.7
	c0-0.2,0-0.5-0.1-0.7l-10-62.1c-2-12.6-4.7-25-8.1-37.3l0.6-0.1C1255.2,520.7,1262.2,533.5,1270.1,545.8"/>
<path class="st0" d="M1413.5,560.3c-12.4,2-20-1.3-23.8-11c-1-2.5-2.4-3-5-1.7l-20,10.3c-1.6,0.8-2.3,2.8-1.5,4.4
	c0,0.1,0.1,0.1,0.1,0.2c9.5,20.9,28,29.7,55.1,25.4c29.7-4.8,47.1-26.4,43.3-50.1c-3.2-19.8-15.5-30.2-40.8-34.5
	c-26.2-4.5-32.1-6.6-33.2-13.9c-1.1-7,4.8-12.8,15-14.4c9.6-1.5,16.1,1,20.9,8.4c1.5,2.2,3.1,2.5,5.2,1.3l18.4-10.2
	c2.7-1.4,3.2-2.8,2.1-4.9c-9.6-18.2-28-25.9-51.9-22.1c-28.3,4.6-44.7,26.2-41.2,47.7c3.5,21.7,16.3,31.6,47.2,37.1
	c20.5,3.5,25.7,5.8,26.8,12.6C1431.5,552.3,1424.8,558.5,1413.5,560.3"/>
<path class="st0" d="M1564.5,560c0.6,1.2,2,1.8,3.3,1.6l27.8-4.5c1.6-0.2,2.7-1.6,2.6-3.1c-0.1-0.6-0.3-1.1-0.7-1.5l-52.8-71.7
	l30.7-55.1c0.8-1.2,0.4-2.8-0.8-3.6c-0.6-0.4-1.3-0.5-2-0.4l-26.5,4.3c-1.9,0.2-3.5,1.4-4.2,3.1l-32.2,61.3l-8.7-54.1
	c-0.1-1.5-1.3-2.7-2.8-2.6c-0.2,0-0.4,0-0.6,0.1l-25.4,4.1c-1.5,0.1-2.7,1.4-2.6,3c0,0.2,0,0.3,0.1,0.5l20.9,129.8
	c0.1,1.5,1.4,2.7,2.9,2.6c0.2,0,0.3,0,0.5-0.1l25.4-4.1c1.5,0,2.6-1.3,2.6-2.8c0-0.2,0-0.5-0.1-0.7l-5.6-34.5l12.4-22.3L1564.5,560z
	"/>
<path class="st0" d="M1669.1,547.5c36.5-5.9,49-32.2,44.6-59.9l-13.4-83.6c0-1.5-1.3-2.6-2.8-2.6c-0.2,0-0.5,0-0.7,0.1l-25.4,4.1
	c-1.5,0.1-2.7,1.4-2.6,3c0,0.2,0,0.3,0.1,0.5l13.3,82.5c2.1,13-0.8,24.3-17.7,27c-16.9,2.7-23-7.1-25.1-20.1l-13.3-82.5
	c0-1.5-1.2-2.6-2.7-2.6c-0.2,0-0.5,0-0.7,0.1l-25.4,4.1c-1.5,0.1-2.7,1.4-2.6,3c0,0.2,0,0.3,0.1,0.5l13.4,83.6
	C1613,533.9,1632.8,553.3,1669.1,547.5"/>
<path class="st0" d="M1375.6,394.4l-443.9,71.5c49.4-133.7,197.9-202.1,331.6-152.6C1307.4,329.6,1346.2,357.7,1375.6,394.4
	 M837,312.2c134.5-186,394.3-227.8,580.4-93.3c53.5,38.7,97,89.6,127,148.4L1390.7,392c-58.7-77.7-157.2-121.2-260-104.6
	s-182.7,88.8-214.1,181l-153.7,24.7C772.9,427.8,798.3,365.7,837,312.2 M1730.3,337.3l-172,27.7C1477,201,1295.9,101.4,1105.7,132
	S774.7,314,749.1,495.3L577,523l2.1,13.2l1153.3-185.7L1730.3,337.3z"/>
<path class="st0" d="M1510.6,799c-134.5,186-394.3,227.8-580.3,93.4c-54.6-39.5-98.8-91.6-128.8-152l152.8-24.6
	c58.4,79.8,158.3,124.8,262.6,108s185.1-90.9,215.4-185l152.8-24.6C1575.8,680.9,1550.1,744.4,1510.6,799 M1417.4,641.2
	c-47.2,134.5-194.4,205.3-329,158.2c-47.2-16.5-88.5-46.4-119-86L1417.4,641.2z M1770.1,584.4l-2.1-13.2L614.6,756.9l2.1,13.2
	l170.9-27.5c80.4,166.2,262.8,267.3,454.4,236.5s333-184.2,357.2-367.2L1770.1,584.4z"/>
<path class="st1" d="M2444.2,351.3h17.4c-8.4,6.5-21.1,26.7-38.1,60.5c-25.2,50.8-37.8,87.3-37.8,109.5c0,10.3,3.2,15.4,9.8,15.4
	c3,0,6.6-1.2,10.9-3.7h0.3c0.6,0,0.8,0.5,0.8,1.4c0,3.5-4.7,6.9-14.1,10.1c-9.4,3.2-17.1,4.8-23.1,4.8c-12.5,0-18.8-6.8-18.8-20.5
	c0-23.7,19-71.6,57.1-143.7c-7.5,7.1-12.5,12.1-15.1,15.1c-17.9,20-44.6,53-80.1,99.1c-7.5,9.5-12.6,15.5-15.4,17.9
	c-2.8,2.4-6.5,3.6-11.1,3.6c-4.6,0-9.9-1.4-15.8-4.2c4.7-6,7-24.2,7-54.5c0-30.3-1.9-57.9-5.6-82.8c-6.7,12.5-18.9,40.3-36.4,83.5
	c-17.5,43.1-26.3,70.2-26.3,81.2c-0.1,0.8,0,1.7,0.3,2.5h-25.8c10.7-27.3,25.9-63.2,45.7-107.8c19.8-44.6,31.8-71.1,36.1-79.5
	c-17.1,0-34,3.4-49.7,10.1c-16.2,6.7-25.6,14.6-28.4,23.5c-0.1,0.5-0.6,0.9-1.1,0.9c-1.5,0-2.2-1.2-2.2-3.7c0-0.4,0.8-2.9,2.2-7.6
	c1.9-5.4,4.8-10.3,8.5-14.6c4-4.8,9-8.7,14.7-11.2c9.1-3.7,20.4-5.6,33.9-5.6h35.6c5.6,0,10,0.9,13.3,2.8c3.3,1.9,5.6,6.3,6.9,13.3
	c1.3,7,2.5,23.1,3.8,48.5c1.2,25.3,1.8,43.1,1.8,53.4c0,10.3-0.2,17.3-0.6,21c26.7-33.4,61.3-75.4,103.6-125.8
	C2415.8,355.7,2427.7,351.3,2444.2,351.3"/>
<path class="st1" d="M2533.5,434.7l14,0.3h2.8c-6.1,5-13.7,17.8-22.7,38.2s-13.5,35.4-13.5,44.7c0,4.9,1.7,7.3,5,7.3
	c10.8,0,24.6-16,41.4-47.9c0.8-1.3,1.4-1.9,2-1.9c1.1,0,1.7,1.7,1.7,5.2c0,3.5-1,7-2.8,10c-23,38.7-42.2,58-57.7,58
	c-10.1,0-15.1-7.7-15.1-23.2c0-11.6,2-23.2,5.9-34.2c-21.3,37.7-41,56.6-59.1,56.6c-12.5,0-18.8-8.6-18.8-25.8
	c0-13.1,2.9-26.3,8.6-39.8c5.5-13.1,13.9-24.9,24.5-34.3c10.7-9.4,22.3-14.1,35-14.1c5.9,0,11.6,1.4,16.8,4.1
	c5.2,2.6,8.9,7.4,10.4,13c2.2-4.5,5.5-8.3,9.5-11.2C2525.7,436.4,2529.8,434.8,2533.5,434.7 M2510.3,453.2c-1.9-6-6.3-9-13.2-9
	c-12.3,0-24.3,8.5-35.8,25.6s-17.4,32.4-17.4,45.8c0,5.8,2.2,8.7,6.7,8.7c4.9,0,10.5-3,17.1-9.1c6.8-6.4,12.7-13.6,17.6-21.4
	C2496.9,475.5,2505.2,462,2510.3,453.2 M2499.4,390.5c-3.7,0.9-7.6,3.5-11.6,7.7s-7.1,6.3-9.1,6.3c-3.9,0-5.9-1.6-5.9-4.8
	s2.3-8,6.9-14.6c4.6-6.6,8.8-9.8,12.8-9.8c2,0,4,1.4,5.9,4.2c1.9,2.8,2.8,5.3,2.8,7.4S2500.5,390.3,2499.4,390.5 M2551.7,390.5
	c-3.7,0.9-7.6,3.5-11.6,7.7c-4,4.2-7.1,6.3-9.1,6.3c-3.9,0-5.9-1.6-5.9-4.8s2.3-8,6.9-14.6c4.6-6.5,8.8-9.8,12.7-9.8
	c2,0,4,1.4,5.9,4.2c1.9,2.8,2.8,5.3,2.8,7.4S2552.8,390.3,2551.7,390.5"/>
<path class="st1" d="M2667.7,489.9c-14,23.3-26.7,39.6-38.1,48.7c-11.4,9.2-26.2,13.7-44.2,13.7c-10.5,0-19.2-2-26.3-6
	s-10.6-9.9-10.7-17.8c0-4.4,1.4-8.7,3.9-12.3c2.4-3.6,6.5-5.7,10.8-5.6c4.6,0,7.5,1.7,8.8,5c-3.4,3.2-5.3,7.6-5.3,12.3
	c0,9.3,5.2,14,15.7,14c6,0.1,11.8-2.3,16.1-6.4c4.6-4.3,6.8-9,6.9-14.1c0.1-4.7-1.1-9.4-3.4-13.6c-2.2-3.8-4.9-7.3-8.1-10.3
	c-3.2-3-6.4-6-9.5-9c-7.7-7.3-11.5-15.6-11.5-25.1c-0.1-9.1,3.8-17.9,10.8-23.8c7.2-6.4,17-9.7,29.5-9.6c7.9,0,14.5,1.4,19.9,4.2
	c5.4,2.8,8.1,7.1,8.1,13c0.1,5.6-1.8,11-5.3,15.3c-3.6,4.3-8.4,6.4-14.4,6.4s-9.1-2.8-9.1-8.4c0-1.3,2.1-3.3,6.4-5.9
	s6.4-5.3,6.4-8.1c0.1-2.6-1.2-5-3.5-6.3c-2.3-1.4-5.7-2.1-10-2.1c-4.5,0.1-8.9,1.7-12.5,4.5c-3.8,2.7-6.1,7.1-6,11.8
	c0,4.9,2.1,9.4,6.2,13.7c4,4.2,8.5,7.9,13.4,10.9c5.2,3.3,9.8,7.6,13.5,12.5c4.1,5.3,6.2,10.9,6.1,16.8c0.1,5.5-1.3,11-4.1,15.8
	c-2.4,4.4-5.7,8.2-9.6,11.2c10.4-4.5,21.6-15.7,33.3-33.6c1.1-1.5,3.1-4.6,5.9-9.2c6.5-11.8,10.2-17.6,10.9-17.6
	c1.1,0,1.7,1.7,1.7,5.2C2670.5,483.5,2669.5,487,2667.7,489.9"/>
<path class="st1" d="M2792,477.9c0.6-1.1,1.1-1.7,1.7-1.7c1.1,0,1.7,1.4,1.7,4.2c0,9-3.6,16.4-10.8,22.2c-7.2,5.9-13.9,8.8-20.2,8.9
	c-5.8,0.1-11.5-1.7-16.1-5.3c-6.7,13.3-14.7,23.7-24,31.4c-9.3,7.7-21.2,11.5-35.7,11.5c-9.3,0-16.9-2.9-22.8-8.5
	c-5.9-5.7-8.8-14.4-8.8-26.1c0-11.7,2.7-23.7,8-36.1c5.3-12.5,13.6-23.5,24.1-32.1c10.7-9,22.7-13.4,36-13.4
	c22.2,0,33.3,11.8,33.3,35.3c-0.1,9.7-2.1,19.3-5.9,28.3c2.8,3.9,6.8,5.9,12.1,5.9C2774.3,502.2,2783.4,494.1,2792,477.9
	 M2745.3,460.5c-0.7-9.9-5.2-14.8-13.4-14.8c-12.9,0-25.5,12.5-37.8,37.5c-6.7,13.8-10.1,26.3-10.1,37.5c0,11.2,4.9,17.1,14.6,17.7
	c8,0,15.4-4.2,22.3-12.8c6.9-8.6,12.7-18.1,17.2-28.1c-6.2-5-9.7-12.5-9.5-20.5c0-5,1.3-9,4-12s6.4-4.5,11.1-4.5L2745.3,460.5z"/>
<path class="st1" d="M2024.3,709.7c0.6-1.1,1.1-1.7,1.7-1.7c1.1,0,1.7,1.4,1.7,4.2c0,9-3.6,16.4-10.8,22.2
	c-7.2,5.9-13.9,8.8-20.2,8.8c-5.8,0.1-11.5-1.7-16.1-5.3c-6.7,13.3-14.7,23.7-23.9,31.4c-9.2,7.7-21.1,11.5-35.7,11.5
	c-9.3,0-16.9-2.8-22.8-8.5c-5.9-5.7-8.8-14.4-8.8-26.1c0-11.7,2.7-23.7,8-36.1c5.4-12.5,13.6-23.5,24.1-32.1
	c10.7-9,22.7-13.4,36-13.4c22.2,0,33.3,11.8,33.3,35.3c-0.1,9.7-2.1,19.3-5.9,28.3c2.8,3.9,6.8,5.9,12.1,5.9
	C2006.6,734,2015.8,725.9,2024.3,709.7 M1977.6,692.3c-0.8-9.9-5.3-14.8-13.5-14.8c-12.9,0-25.5,12.5-37.8,37.5
	c-6.7,13.8-10,26.3-10,37.5s4.9,17.1,14.6,17.6c8,0,15.4-4.3,22.3-12.8c6.9-8.6,12.7-18.1,17.2-28.1c-6.2-5-9.7-12.5-9.5-20.4
	c0-5.1,1.3-9.1,4-12c2.7-3,6.4-4.5,11.1-4.5L1977.6,692.3z"/>
<path class="st1" d="M2173.6,595.4c-6.2,4.5-14.2,17-24.2,37.7c-10.2,21.2-19,43-26.5,65.3c-7.7,22.9-11.5,39.4-11.5,49.7
	c0,6,1.6,9,4.8,9c3.2,0,7.1-2,11.9-6.1c3.8-3.1,7.2-6.6,10.2-10.4c2-2.8,4.8-7,8.3-12.8s6.4-10.6,9-14.8s4-6.3,4.3-6.3
	c1.3,0,1.9,1.8,1.9,5.3c-0.2,6.6-7.9,20.2-23.2,40.9c-5.3,7-11.4,13.3-18.2,18.8c-7.1,5.8-13.6,8.7-19.3,8.7
	c-9.9,0-14.8-7.4-14.8-22.1c0-10.8,2.7-24.7,8.1-41.7c-7.9,15.9-17.8,30.8-29.4,44.3c-11,12.5-22,18.8-33,18.8
	c-12.5,0-18.8-8.6-18.8-25.8c0.1-13.7,3-27.2,8.5-39.8c5.5-13.1,13.9-24.9,24.5-34.3c10.7-9.4,22.2-14.1,34.6-14.2
	s20.9,4.1,25.6,12.3c5.2-10.3,10.6-22.1,16.1-35.6s9.2-22.2,10.9-26.2c1.8-4,3.1-7,3.9-8.8c0.9-1.9,1.9-3.7,3.2-5.3
	c1.8-2.4,4.4-4.2,7.4-4.9c4.6-0.8,9.3-1.2,14-1.1C2168.5,595.7,2172.4,595.6,2173.6,595.4 M2105.1,681.1c-2.2-3.4-6-5-11.2-5
	c-8.4,0-16.8,4.2-25.3,12.8c-8.5,8.5-15.4,18.5-20.4,29.4c-5.2,11.1-7.8,20.8-7.8,29.3c0,5.8,2.2,8.7,6.7,8.7
	C2062.1,756.2,2081.4,731.2,2105.1,681.1"/>
<path class="st1" d="M2429.1,722.3c-6.9,11.6-13.2,21.3-18.9,29c-5.6,7.6-12.1,14.4-19.5,20.3c-7.3,5.8-13.9,8.7-19.9,8.7
	c-11,0-16.5-6.3-16.5-19c0-14.8,5.9-35.8,17.7-63c2.6-6.9,3.9-11.7,3.9-14.3c0-3.7-1.7-5.6-5-5.6c-2.1,0-5.6,1.2-10.7,3.6
	c-5.4,2.7-10.3,6.4-14.4,10.9c-4,4.2-7.7,8.7-11.1,13.4c-2.8,4.1-5.9,10.3-9.2,18.5c-3.4,8.2-5.6,14-6.7,17.4
	c-5.4,16.8-9.1,28.9-10.9,36.4h-27.4c9.7-26.9,16.4-45,20-54.3c3.6-9.3,5.8-15.1,6.6-17.4l2.5-7.9c2.1-6,3.1-10.9,3.1-14.8
	s-1.8-5.9-5.3-5.9c-3,0-7,1.3-12.2,3.9c-5.6,3-10.7,6.8-15,11.5c-4.9,5.2-9,11.1-12.2,17.5c-3.3,6.7-5.9,12.4-7.9,17.2
	c-2,4.8-4,10.7-6,17.8c-2,7-3.9,12.7-5.4,17.1c-1.6,4.4-3.2,9.5-4.9,15.2h-27.2c1.8-7.1,4.1-14.1,6.7-21l18.2-46.5
	c7.5-18.7,11.2-32.3,11.2-40.9c0.1-1.2-0.1-2.5-0.6-3.7h11.8c6.3,0,10.4,0.6,12.3,1.8c1.8,1,2.8,2.9,2.8,4.9c0,2-1.1,6.8-3.4,14.3
	c16.4-14.9,32.9-22.4,49.3-22.4c9.9,0,14.8,4.1,14.8,12.3c0,3.5-1,7.9-3.1,13.2c17-17,34.5-25.5,52.4-25.5c9.7,0,14.6,4.1,14.6,12.3
	c0,3.6-0.7,7.2-2,10.6c-1.3,3.4-3,7.7-5,13s-3.7,9.7-5,13.2s-2.8,7.7-4.5,12.7c-3.6,10.3-5.3,17.9-5.3,22.8s1.6,7.5,4.6,7.5
	c3.1,0,7-2.1,11.6-6.2c3.8-3.2,7.3-6.8,10.4-10.7c2.3-3,5.2-7.2,8.7-12.8c3.5-5.5,6.4-10.3,8.8-14.4s3.8-6.2,4.2-6.2
	c1.1,0,1.7,1.7,1.7,5.2C2431.8,715.8,2430.9,719.3,2429.1,722.3"/>
<path class="st1" d="M2533.5,666.5l14,0.3h2.8c-6.1,5-13.7,17.7-22.7,38.2c-9,20.5-13.5,35.4-13.5,44.7c0,4.9,1.7,7.3,5,7.3
	c10.8,0,24.6-16,41.4-47.9c0.8-1.3,1.4-2,2-2c1.1,0,1.7,1.7,1.7,5.2c0,3.5-1,6.9-2.8,9.9c-23,38.7-42.2,58-57.7,58
	c-10.1,0-15.1-7.7-15.1-23.2c0-11.6,2-23.2,5.9-34.2c-21.3,37.7-41,56.6-59.1,56.6c-12.5,0-18.8-8.6-18.8-25.8
	c0-13.1,2.9-26.3,8.6-39.8c5.5-13.1,13.9-24.9,24.5-34.3c10.7-9.4,22.3-14.1,35-14.1c5.9,0,11.6,1.4,16.8,4.1
	c5.2,2.6,8.9,7.4,10.4,13c2.2-4.5,5.5-8.3,9.5-11.2C2525.7,668,2529.8,666.4,2533.5,666.5 M2510.3,685c-1.9-6-6.3-9-13.2-9
	c-12.3,0-24.3,8.5-35.8,25.6c-11.6,17.1-17.4,32.4-17.4,45.8c0,5.8,2.2,8.7,6.7,8.7c4.9,0,10.5-3,17.1-9.1
	c6.8-6.4,12.7-13.6,17.6-21.4C2496.9,707.3,2505.2,693.8,2510.3,685 M2499.4,622.3c-3.7,0.9-7.6,3.5-11.6,7.7s-7.1,6.3-9.1,6.3
	c-3.9,0-5.9-1.6-5.9-4.8s2.3-8,6.9-14.6c4.6-6.6,8.8-9.8,12.8-9.8c2,0,4,1.4,5.9,4.2c1.9,2.8,2.8,5.3,2.8,7.4
	S2500.5,622.1,2499.4,622.3 M2551.7,622.3c-3.8,0.9-7.6,3.5-11.6,7.7s-7,6.3-9.1,6.3c-3.9,0-5.9-1.6-5.9-4.8c0-3.2,2.3-8,6.9-14.6
	c4.6-6.5,8.8-9.8,12.7-9.8c2,0,4,1.4,5.9,4.2c1.9,2.8,2.8,5.3,2.8,7.4S2552.8,622.1,2551.7,622.3"/>
<path class="st1" d="M2667.7,721.7c-14,23.3-26.7,39.6-38.1,48.7c-11.4,9.2-26.2,13.7-44.2,13.7c-10.5,0-19.2-2-26.3-6
	c-7.1-4-10.6-9.9-10.7-17.8c0-4.4,1.4-8.7,3.9-12.3c2.4-3.6,6.5-5.7,10.8-5.6c4.6,0,7.5,1.7,8.8,5c-3.4,3.2-5.3,7.7-5.3,12.3
	c0,9.3,5.2,14,15.7,14c6,0.1,11.8-2.3,16.1-6.4c4.6-4.3,6.8-9,6.9-14.1c0.1-4.7-1.1-9.4-3.4-13.6c-2.2-3.8-4.9-7.3-8.1-10.4l-9.5-9
	c-7.7-7.3-11.5-15.6-11.5-25.1c-0.1-9.1,3.8-17.9,10.8-23.8c7.2-6.4,17-9.7,29.5-9.7c7.9,0,14.5,1.4,19.9,4.2s8.1,7.1,8.1,13
	c0.1,5.6-1.8,11-5.3,15.3c-3.5,4.3-8.4,6.4-14.4,6.5c-6.1,0-9.1-2.8-9.1-8.4c0-1.3,2.1-3.3,6.4-5.9s6.4-5.3,6.4-8.1
	c0.1-2.6-1.2-5-3.5-6.3c-2.3-1.4-5.7-2.1-10-2.1c-4.5,0.1-8.9,1.7-12.5,4.5c-3.8,2.7-6.1,7.1-6,11.8c0,4.8,2.1,9.4,6.2,13.7
	c4,4.2,8.5,7.9,13.4,10.9c5.2,3.3,9.8,7.5,13.5,12.5c4.1,5.3,6.2,10.9,6.1,16.8c0.1,5.5-1.3,11-4.1,15.8c-2.4,4.4-5.7,8.2-9.6,11.2
	c10.4-4.5,21.6-15.7,33.3-33.6c1.1-1.5,3.1-4.5,5.9-9.2c6.5-11.8,10.2-17.6,10.9-17.7c1.1,0,1.7,1.7,1.7,5.2
	C2670.5,715.3,2669.5,718.7,2667.7,721.7"/>
<path class="st1" d="M2699.3,666.5l14,0.3h2.8c-3,2.2-6.9,8.3-11.9,18.2s-8.6,17.4-11.1,22.4c-3.1,6.7-5.9,13.5-8.3,20.4
	c-3.1,8.6-4.6,15.6-4.6,21c0,5.4,1.8,8.1,5.3,8.1c2.4,0,5.9-1.6,10.2-4.9c4.1-2.9,7.7-6.4,10.8-10.4c2.8-3.6,5.9-8.3,9.4-13.9
	c3.5-5.6,6.5-10.5,9-14.6c2.5-4.1,3.9-6.2,4.3-6.2c1.1,0,1.7,1.7,1.7,5.2c0,3.5-1,7-2.8,10c-6.9,11.6-13.2,21.3-18.9,29
	c-5.6,7.6-12.1,14.4-19.5,20.3c-7.3,5.8-13.9,8.7-19.9,8.7c-10.5,0-15.7-7.3-15.7-21.8c0-22.6,7.8-47.6,23.2-75.1
	C2684,672.2,2691.3,666.5,2699.3,666.5 M2737.5,629.6h-1.1c-3.7,0-7.3,1.6-10.8,4.7c-3.1,2.7-5.6,6.1-7.4,9.8
	c-4.9-1.9-7.3-5.2-7.3-10.1c0-4.9,2.2-9.8,6.7-14.7c4.5-5,8.8-7.4,12.9-7.4c4.1,0,7.2,0.9,9.2,2.8c2,1.8,3.1,4.4,3.1,7.1
	C2742.8,624.8,2741,627.3,2737.5,629.6"/>
<path class="st1" d="M2832.6,666.5l14,0.3h2.8c-6.1,5-13.7,17.8-22.7,38.2c-9,20.5-13.5,35.4-13.5,44.7c0,4.9,1.7,7.3,5.1,7.3
	c10.8,0,24.6-16,41.4-47.9c0.8-1.3,1.4-2,2-2c1.1,0,1.7,1.7,1.7,5.2c0,3.5-1,6.9-2.8,10c-23,38.7-42.2,58-57.7,58
	c-10.1,0-15.1-7.8-15.1-23.2c0-11.6,2-23.2,5.9-34.2c-21.3,37.7-41,56.6-59.1,56.6c-12.5,0-18.8-8.6-18.8-25.8
	c0-13.1,2.9-26.3,8.6-39.8c5.5-13.1,13.9-24.9,24.5-34.3c10.7-9.4,22.3-14.1,35-14.2c5.9,0,11.6,1.4,16.8,4.1
	c5.2,2.6,8.9,7.4,10.4,13c2.2-4.5,5.5-8.3,9.5-11.2C2824.9,668,2828.9,666.4,2832.6,666.5 M2809.4,684.9c-1.9-6-6.3-9-13.1-9
	c-12.3,0-24.3,8.5-35.9,25.6S2743,734,2743,747.5c0,5.8,2.2,8.7,6.7,8.7c4.9,0,10.6-3,17.1-9.1c6.8-6.4,12.7-13.6,17.6-21.4
	c11.6-18.3,19.9-31.8,24.9-40.6"/>
<path class="st1" d="M2925.6,666l14.3,0.3h2.8c-2.8,2.1-6.8,8.1-11.9,18.2s-9,17.7-11.5,22.8c-3.2,6.7-6,13.7-8.4,20.7
	c-3.1,8.7-4.6,15.7-4.6,21.1c0,5.4,1.9,8.1,5.6,8.2c2.4-0.2,5.9-1.9,10.2-5.2c4.1-3,7.7-6.4,10.9-10.4c3.5-4.5,6.6-9.1,9.5-14
	c3.4-5.7,6.4-10.6,9-14.8c2.6-4.2,4-6.3,4.3-6.3c1.3,0,2,1.7,2,5.2c0,3.5-1,6.9-2.8,9.9c-8,13.3-14.7,23.4-19.9,30.5
	c-5.4,7.3-11.8,13.8-19,19.4c-7.4,5.9-14,8.8-20,8.8c-10.7,0-16-7.9-16-23.5c0-10.7,2.1-22.7,6.2-36.1c4.2-13.8,10.4-26.9,18.2-38.9
	c-6.6,5.2-13.1,7.8-19.6,7.8c-2.2,0-4.4-0.5-6.4-1.4c-13.2,26.2-20.4,39.2-21.4,39.2c-1,0-1.5-1.6-1.5-4.6c0-3.1,1.2-7.4,3.5-12.9
	c2.3-5.5,4.9-10.8,7.6-15.8s4.1-7.8,4.3-8.4c-6.7-3.3-10.1-8.8-10.1-16.2c0-3.7,1.2-7.2,3.5-10.1c2.3-3,5.9-4.6,9.7-4.5
	c3.8-0.1,7.4,1.3,10.1,3.9c-0.4,1.6-0.6,3.3-0.6,5c-0.2,4.6,1.8,9.1,5.5,11.9c3.8,2.9,8.5,4.5,13.3,4.3c1.1,0,2.2-0.1,3.4-0.3
	C2912.3,670.6,2918.9,665.9,2925.6,666"/>
<path class="st1" d="M3059.3,666.5l14,0.3h2.8c-6.1,5-13.7,17.8-22.7,38.2c-9,20.5-13.5,35.4-13.5,44.7c0,4.9,1.7,7.3,5,7.3
	c10.8,0,24.6-16,41.4-47.9c0.8-1.3,1.4-2,2-2c1.1,0,1.7,1.7,1.7,5.2c0,3.5-1,6.9-2.8,10c-23,38.7-42.2,58-57.7,58
	c-10.1,0-15.1-7.8-15.1-23.2c0-11.6,2-23.2,5.9-34.2c-21.3,37.7-41,56.6-59.1,56.6c-12.5,0-18.8-8.6-18.8-25.8
	c0-13.1,2.9-26.3,8.6-39.8c5.5-13.1,13.9-24.9,24.5-34.3c10.7-9.4,22.3-14.1,35-14.2c5.9,0,11.6,1.4,16.8,4.1
	c5.2,2.6,8.9,7.4,10.4,13c2.2-4.5,5.5-8.3,9.5-11.2C3051.5,668,3055.5,666.4,3059.3,666.5 M3036,684.9c-1.9-6-6.3-9-13.2-9
	c-12.3,0-24.3,8.5-35.8,25.6c-11.6,17.1-17.4,32.4-17.4,45.9c0,5.8,2.2,8.7,6.7,8.7c4.9,0,10.6-3,17.1-9.1
	c6.8-6.4,12.7-13.6,17.6-21.4c11.6-18.3,19.9-31.8,24.9-40.6"/>
</svg>
